G04*
G04 #@! TF.GenerationSoftware,Altium Limited,Altium Designer,24.2.2 (26)*
G04*
G04 Layer_Color=16711935*
%FSLAX44Y44*%
%MOMM*%
G71*
G04*
G04 #@! TF.SameCoordinates,EEC84D6A-0AE8-4C3C-B58C-44986A5593EB*
G04*
G04*
G04 #@! TF.FilePolarity,Negative*
G04*
G01*
G75*
%ADD18R,2.0000X2.0000*%
%ADD31C,1.8500*%
%ADD32R,1.8500X1.8500*%
%ADD33C,1.9000*%
%ADD34R,1.9000X1.9000*%
%ADD35C,2.0000*%
%ADD36R,1.5032X1.5032*%
%ADD37C,1.5032*%
%ADD38O,2.2032X1.2032*%
%ADD39O,2.2032X1.2032*%
%ADD40C,1.3000*%
%ADD41R,1.3000X1.3000*%
%ADD42C,1.6900*%
%ADD43R,1.6900X1.6900*%
%ADD44C,1.3500*%
%ADD45R,1.3500X1.3500*%
%ADD46C,1.2500*%
%ADD47R,1.2500X1.2500*%
%ADD48C,1.2000*%
%ADD49R,1.2000X1.2000*%
%ADD50R,1.4032X1.4032*%
%ADD51C,1.4032*%
%ADD52C,1.7032*%
%ADD53R,1.7032X1.7032*%
%ADD54R,1.5032X1.5032*%
%ADD55C,1.4532*%
%ADD56R,1.4532X1.4532*%
%ADD57C,1.4732*%
%ADD58C,3.2032*%
D18*
X1084834Y555752D02*
D03*
X1086100Y693928D02*
D03*
X881888Y438404D02*
D03*
D31*
X1180000Y850000D02*
D03*
X1155000D02*
D03*
D32*
X1130000D02*
D03*
D33*
X732700Y920000D02*
D03*
X842700D02*
D03*
X1172700D02*
D03*
X1062700D02*
D03*
X952700D02*
D03*
X402700D02*
D03*
X622700D02*
D03*
X512700D02*
D03*
X292700D02*
D03*
D34*
X707300D02*
D03*
X817300D02*
D03*
X1147300D02*
D03*
X1037300D02*
D03*
X927300D02*
D03*
X377300D02*
D03*
X597300D02*
D03*
X487300D02*
D03*
X267300D02*
D03*
D35*
X1084834Y504952D02*
D03*
Y530352D02*
D03*
X1086100Y643128D02*
D03*
Y668528D02*
D03*
X881888Y387604D02*
D03*
Y413004D02*
D03*
D36*
X1017016Y490474D02*
D03*
X1156208Y491236D02*
D03*
X490370Y612902D02*
D03*
X815340Y340360D02*
D03*
Y304800D02*
D03*
X876554Y326136D02*
D03*
X874522Y287274D02*
D03*
D37*
X1042416Y490474D02*
D03*
X1181608Y491236D02*
D03*
X515770Y612902D02*
D03*
X651510Y523240D02*
D03*
X789940Y340360D02*
D03*
Y304800D02*
D03*
X901954Y326136D02*
D03*
X899922Y287274D02*
D03*
D38*
X1150366Y534670D02*
D03*
Y547370D02*
D03*
D39*
Y560070D02*
D03*
D40*
X1179400Y654530D02*
D03*
Y674530D02*
D03*
Y694530D02*
D03*
D41*
Y714530D02*
D03*
D42*
X330200Y554990D02*
D03*
Y580390D02*
D03*
Y605790D02*
D03*
Y631190D02*
D03*
Y656590D02*
D03*
Y681990D02*
D03*
Y707390D02*
D03*
Y466090D02*
D03*
Y440690D02*
D03*
Y415290D02*
D03*
Y389890D02*
D03*
Y364490D02*
D03*
Y339090D02*
D03*
Y313690D02*
D03*
D43*
Y732790D02*
D03*
Y491490D02*
D03*
D44*
X407670Y346626D02*
D03*
X382270D02*
D03*
Y422826D02*
D03*
X407670Y482108D02*
D03*
X382270D02*
D03*
Y558308D02*
D03*
X407670Y617590D02*
D03*
X382270D02*
D03*
Y693790D02*
D03*
D45*
X407670Y422826D02*
D03*
Y558308D02*
D03*
Y693790D02*
D03*
D46*
X445008Y473283D02*
D03*
Y329476D02*
D03*
Y617090D02*
D03*
X693928Y583730D02*
D03*
X676910Y480530D02*
D03*
X658876Y684746D02*
D03*
D47*
X445008Y573283D02*
D03*
Y429476D02*
D03*
Y717090D02*
D03*
X693928Y683730D02*
D03*
X676910Y380530D02*
D03*
X658876Y584746D02*
D03*
D48*
X515220Y419100D02*
D03*
Y572770D02*
D03*
X755490Y490220D02*
D03*
D49*
X490220Y419100D02*
D03*
Y572770D02*
D03*
X735490Y490220D02*
D03*
D50*
X494030Y474710D02*
D03*
D51*
Y523510D02*
D03*
D52*
X617220Y384810D02*
D03*
Y410210D02*
D03*
Y435610D02*
D03*
Y461010D02*
D03*
Y486410D02*
D03*
Y511810D02*
D03*
Y537210D02*
D03*
Y562610D02*
D03*
Y588010D02*
D03*
Y613410D02*
D03*
Y638810D02*
D03*
Y664210D02*
D03*
Y689610D02*
D03*
Y715010D02*
D03*
X541020Y384810D02*
D03*
Y410210D02*
D03*
Y435610D02*
D03*
Y461010D02*
D03*
Y486410D02*
D03*
Y511810D02*
D03*
Y537210D02*
D03*
Y562610D02*
D03*
Y588010D02*
D03*
Y613410D02*
D03*
Y638810D02*
D03*
Y664210D02*
D03*
Y689610D02*
D03*
D53*
Y715010D02*
D03*
D54*
X651510Y548640D02*
D03*
D55*
X675640Y350520D02*
D03*
X650240Y325120D02*
D03*
D56*
X675640Y299720D02*
D03*
D57*
X962660Y652272D02*
D03*
X1020826Y684784D02*
D03*
Y664464D02*
D03*
X692912Y710692D02*
D03*
D58*
X1168400Y279400D02*
D03*
Y787400D02*
D03*
X279400D02*
D03*
Y279400D02*
D03*
M02*
