M48
;Layer_Color=9474304
;FILE_FORMAT=4:4
METRIC,LZ
;TYPE=PLATED
T01F00S00C0.7000
T02F00S00C0.7112
T03F00S00C0.7500
T04F00S00C0.8000
T05F00S00C0.8500
T06F00S00C0.9000
T07F00S00C1.0900
T08F00S00C1.2000
T09F00S00C1.2500
T10F00S00C1.3000
T11F00S00C3.0000
%
T01
X0049022Y004191
X0051522
X0049403Y0047471
Y0052351
X0049022Y0057277
X0051522
X0073549Y0049022
X0075549
T02
X0096266Y00652272
X01020826Y00664464
Y00684784
X00692912Y00710692
T03
X00445008Y00329476
X0065024Y0032512
X0067564Y0035052
X0067691Y0038053
X0067564Y0029972
X0067691Y0048053
X00693928Y0058373
X00658876Y00584746
Y00684746
X00693928Y0068373
X00445008Y0071709
Y0061709
Y00573283
Y00473283
Y00429476
T04
X0078994Y003048
Y0034036
X0081534
Y003048
X00874522Y00287274
X00899922
X00901954Y00326136
X00876554
X01017016Y00490474
X01042416
X01156208Y00491236
X01181608
X011794Y0065453
Y0067453
Y0069453
Y0071453
X0065151Y0054864
Y0052324
X0051577Y00612902
X0049037
T05
X0038227Y00346626
X0040767
Y00422826
Y00482108
Y00558308
Y0061759
Y0069379
X0038227
Y0061759
Y00558308
Y00482108
Y00422826
T06
X0054102Y0038481
X0061722
X01150366Y0053467
Y0054737
Y0056007
X0061722Y0056261
Y0053721
Y0051181
Y0048641
Y0046101
Y0043561
Y0041021
X0054102
Y0043561
Y0046101
Y0048641
Y0051181
Y0053721
Y0056261
Y0058801
Y0061341
Y0063881
Y0066421
Y0068961
Y0071501
X0061722
Y0068961
Y0066421
Y0063881
Y0061341
Y0058801
T07
X003302Y0031369
Y0033909
Y0036449
Y0038989
Y0041529
Y0044069
Y0046609
Y0049149
Y0055499
Y0058039
Y0060579
Y0063119
Y0065659
Y0068199
Y0070739
Y0073279
T08
X0113Y0085
X01155
X0118
T09
X002673Y0092
X002927
X003773
X004027
X004873
X005127
X005973
X006227
X007073
X007327
X008173
X008427
X009273
X009527
X010373
X010627
X011473
X011727
T10
X00881888Y00387604
Y00413004
Y00438404
X01084834Y00504952
Y00530352
Y00555752
X010861Y00643128
Y00668528
Y00693928
T11
X002794Y002794
X011684
Y007874
X002794
M30
