G04*
G04 #@! TF.GenerationSoftware,Altium Limited,Altium Designer,24.2.2 (26)*
G04*
G04 Layer_Physical_Order=1*
G04 Layer_Color=255*
%FSLAX44Y44*%
%MOMM*%
G71*
G04*
G04 #@! TF.SameCoordinates,FF9118C4-6FED-4B38-AEEA-9CBEA1064A6B*
G04*
G04*
G04 #@! TF.FilePolarity,Positive*
G04*
G01*
G75*
%ADD14C,0.6000*%
%ADD16C,0.2540*%
%ADD18R,2.0000X2.0000*%
%ADD19R,0.7587X1.3082*%
%ADD20R,1.3082X0.7587*%
%ADD21R,1.3300X1.3300*%
%ADD22R,0.9000X2.0000*%
%ADD23R,2.0000X0.9000*%
%ADD24R,1.3000X1.5500*%
%ADD25R,0.6000X1.4000*%
G04:AMPARAMS|DCode=26|XSize=1.0043mm|YSize=3.1821mm|CornerRadius=0.4369mm|HoleSize=0mm|Usage=FLASHONLY|Rotation=0.000|XOffset=0mm|YOffset=0mm|HoleType=Round|Shape=RoundedRectangle|*
%AMROUNDEDRECTD26*
21,1,1.0043,2.3084,0,0,0.0*
21,1,0.1306,3.1821,0,0,0.0*
1,1,0.8737,0.0653,-1.1542*
1,1,0.8737,-0.0653,-1.1542*
1,1,0.8737,-0.0653,1.1542*
1,1,0.8737,0.0653,1.1542*
%
%ADD26ROUNDEDRECTD26*%
G04:AMPARAMS|DCode=27|XSize=1.0043mm|YSize=0.8721mm|CornerRadius=0.4361mm|HoleSize=0mm|Usage=FLASHONLY|Rotation=0.000|XOffset=0mm|YOffset=0mm|HoleType=Round|Shape=RoundedRectangle|*
%AMROUNDEDRECTD27*
21,1,1.0043,0.0000,0,0,0.0*
21,1,0.1322,0.8721,0,0,0.0*
1,1,0.8721,0.0661,0.0000*
1,1,0.8721,-0.0661,0.0000*
1,1,0.8721,-0.0661,0.0000*
1,1,0.8721,0.0661,0.0000*
%
%ADD27ROUNDEDRECTD27*%
%ADD28R,1.0043X0.8721*%
%ADD31R,1.6900X1.6900*%
%ADD32C,1.6900*%
%ADD33C,1.8500*%
%ADD34R,1.8500X1.8500*%
%ADD35C,1.9000*%
%ADD36R,1.9000X1.9000*%
%ADD37C,2.0000*%
%ADD42C,1.3000*%
%ADD43R,1.3000X1.3000*%
%ADD44C,1.3500*%
%ADD45R,1.3500X1.3500*%
%ADD46C,1.2500*%
%ADD47R,1.2500X1.2500*%
%ADD48C,1.2000*%
%ADD49R,1.2000X1.2000*%
%ADD59R,1.3000X1.3000*%
%ADD60O,2.0000X1.0000*%
%ADD61O,2.0000X1.0000*%
%ADD62R,1.2000X1.2000*%
%ADD63C,1.5000*%
%ADD64R,1.5000X1.5000*%
%ADD65C,1.2700*%
%ADD66C,3.0000*%
G36*
X1206500Y605310D02*
X1189756D01*
X1185049Y610018D01*
Y647394D01*
X1186634Y648979D01*
X1187824Y651041D01*
X1188440Y653340D01*
Y655720D01*
X1187824Y658019D01*
X1186634Y660081D01*
X1184951Y661764D01*
X1182889Y662954D01*
X1180590Y663570D01*
X1178210D01*
X1175911Y662954D01*
X1173849Y661764D01*
X1172166Y660081D01*
X1170976Y658019D01*
X1170360Y655720D01*
Y653340D01*
X1170976Y651041D01*
X1172166Y648979D01*
X1173752Y647394D01*
Y607678D01*
X1173751Y607678D01*
X1174181Y605516D01*
X1175406Y603684D01*
X1179498Y599592D01*
X1179012Y598419D01*
X1167761D01*
Y601917D01*
X1155094D01*
Y592855D01*
X1152400Y590162D01*
X1151227Y590648D01*
Y591566D01*
X1138559D01*
Y583755D01*
X1144334D01*
X1144820Y582582D01*
X1123639Y561400D01*
X1097374D01*
Y568292D01*
X1072294D01*
Y561400D01*
X1051052D01*
X1051052Y561401D01*
X1048890Y560971D01*
X1047058Y559746D01*
X1047058Y559746D01*
X947364Y460052D01*
X897888D01*
X897887Y460052D01*
X895726Y459622D01*
X893893Y458398D01*
X893893Y458398D01*
X886440Y450944D01*
X869348D01*
Y425864D01*
X876006D01*
X876169Y425648D01*
X875832Y423987D01*
X874188Y423038D01*
X871853Y420704D01*
X870203Y417844D01*
X869348Y414655D01*
Y411353D01*
X870203Y408164D01*
X871853Y405304D01*
X874188Y402970D01*
X877048Y401319D01*
X878381Y400961D01*
Y399647D01*
X877048Y399289D01*
X874188Y397639D01*
X871853Y395304D01*
X870203Y392444D01*
X869348Y389255D01*
Y385953D01*
X870203Y382764D01*
X871853Y379904D01*
X874188Y377570D01*
X876239Y376385D01*
Y335176D01*
X867514D01*
Y317096D01*
X877606D01*
X882006Y312696D01*
X882006Y312696D01*
X883838Y311471D01*
X886000Y311041D01*
X886000Y311042D01*
X892033D01*
X892973Y310102D01*
X894805Y308877D01*
X896967Y308447D01*
X896967Y308447D01*
X906941D01*
X906941Y308447D01*
X909103Y308877D01*
X910935Y310102D01*
X913950Y313116D01*
X921556D01*
X922237Y311846D01*
X921748Y310665D01*
X921667Y310048D01*
X912436Y300817D01*
X911211Y298984D01*
X910781Y296823D01*
X910781Y296822D01*
Y289467D01*
X910005Y288854D01*
X908740Y289292D01*
X908346Y290763D01*
X907156Y292825D01*
X905473Y294508D01*
X903411Y295698D01*
X901192Y296293D01*
Y287274D01*
X899922D01*
Y286004D01*
X890903D01*
X891498Y283785D01*
X892440Y282153D01*
X891857Y280882D01*
X888902D01*
X883562Y286222D01*
Y296314D01*
X865482D01*
Y278234D01*
X875574D01*
X882568Y271240D01*
X882568Y271240D01*
X884400Y270015D01*
X886562Y269585D01*
X886562Y269585D01*
X904909D01*
X904909Y269585D01*
X907071Y270015D01*
X908903Y271240D01*
X920424Y282761D01*
X920424Y282761D01*
X920751Y283251D01*
X922184Y283109D01*
X922443Y282484D01*
X923550Y281042D01*
X924991Y279936D01*
X926670Y279241D01*
X928471Y279004D01*
X929793D01*
X931594Y279241D01*
X933273Y279936D01*
X934714Y281042D01*
X935820Y282484D01*
X936516Y284163D01*
X936752Y285959D01*
X937399Y286926D01*
X937617Y288025D01*
X943688Y294095D01*
X943688Y294095D01*
X944912Y295928D01*
X945342Y298090D01*
X945342Y298090D01*
Y312965D01*
X945342Y312965D01*
X944912Y315127D01*
X943688Y316959D01*
X943688Y316959D01*
X937888Y322759D01*
X936639Y323593D01*
X936693Y324863D01*
X936693Y325053D01*
Y330494D01*
X921571D01*
Y325683D01*
X921571Y324863D01*
X920487Y324413D01*
X912166D01*
X911435Y324745D01*
X911372Y324866D01*
X892935D01*
X893272Y323609D01*
X892298Y322338D01*
X888340D01*
X885594Y325084D01*
Y327188D01*
X885882Y327476D01*
X885882Y327476D01*
X887107Y329308D01*
X887537Y331470D01*
X887536Y331470D01*
Y372308D01*
X888710Y372794D01*
X893510Y367994D01*
X893510Y367994D01*
X895342Y366769D01*
X897504Y366339D01*
X897504Y366339D01*
X929546D01*
Y359448D01*
X954626D01*
Y384528D01*
X929546D01*
Y377636D01*
X899844D01*
X893815Y383665D01*
X894428Y385953D01*
Y389255D01*
X893573Y392444D01*
X891923Y395304D01*
X889588Y397639D01*
X886728Y399289D01*
X885395Y399647D01*
Y400961D01*
X886728Y401319D01*
X889588Y402970D01*
X891923Y405304D01*
X893573Y408164D01*
X894428Y411353D01*
Y414655D01*
X893573Y417844D01*
X891923Y420704D01*
X889588Y423038D01*
X887944Y423987D01*
X887607Y425648D01*
X887770Y425864D01*
X894428D01*
Y433517D01*
X923929D01*
Y430085D01*
X924614D01*
Y423811D01*
X924614Y423811D01*
X925044Y421650D01*
X926269Y419817D01*
X929546Y416540D01*
Y399448D01*
X954626D01*
Y424528D01*
X937534D01*
X935911Y426151D01*
Y430085D01*
X936597D01*
Y448247D01*
X937656Y448755D01*
X939404D01*
X940463Y448247D01*
X940463Y447485D01*
Y440436D01*
X946797D01*
X953131D01*
Y448247D01*
X952747D01*
X952362Y449517D01*
X953698Y450409D01*
X1053392Y550103D01*
X1072294D01*
Y543212D01*
X1078952D01*
X1079115Y542996D01*
X1078778Y541335D01*
X1077134Y540387D01*
X1074799Y538052D01*
X1073149Y535192D01*
X1072294Y532003D01*
Y528701D01*
X1073149Y525512D01*
X1074799Y522652D01*
X1077134Y520317D01*
X1079994Y518667D01*
X1081327Y518309D01*
Y516995D01*
X1079994Y516637D01*
X1077134Y514986D01*
X1074799Y512652D01*
X1073149Y509792D01*
X1072294Y506603D01*
Y503301D01*
X1073149Y500112D01*
X1074799Y497252D01*
X1077134Y494917D01*
X1079994Y493267D01*
X1083183Y492412D01*
X1086485D01*
X1089674Y493267D01*
X1092534Y494917D01*
X1094868Y497252D01*
X1096519Y500112D01*
X1097374Y503301D01*
Y506603D01*
X1096519Y509792D01*
X1094868Y512652D01*
X1092534Y514986D01*
X1089674Y516637D01*
X1088341Y516995D01*
Y518309D01*
X1089674Y518667D01*
X1092534Y520317D01*
X1094868Y522652D01*
X1096519Y525512D01*
X1097374Y528701D01*
Y532003D01*
X1096519Y535192D01*
X1094868Y538052D01*
X1092534Y540387D01*
X1090890Y541335D01*
X1090553Y542996D01*
X1090716Y543212D01*
X1097374D01*
Y550103D01*
X1125978D01*
X1125978Y550103D01*
X1128140Y550533D01*
X1129973Y551758D01*
X1136807Y558592D01*
X1138009Y558184D01*
X1138020Y558102D01*
X1138780Y556268D01*
X1139988Y554692D01*
X1140428Y554355D01*
Y553085D01*
X1139988Y552748D01*
X1138780Y551172D01*
X1138020Y549338D01*
X1137761Y547370D01*
X1138020Y545402D01*
X1138780Y543568D01*
X1139988Y541992D01*
X1140428Y541655D01*
Y540385D01*
X1139988Y540048D01*
X1138780Y538473D01*
X1138020Y536638D01*
X1137928Y535940D01*
X1150366D01*
X1162804D01*
X1162712Y536638D01*
X1161952Y538473D01*
X1160744Y540048D01*
X1161036Y541404D01*
X1161323Y541721D01*
X1181768D01*
Y540230D01*
X1206500D01*
Y266700D01*
X1182165D01*
X1181679Y267873D01*
X1182024Y268219D01*
X1183944Y271092D01*
X1185266Y274284D01*
X1185940Y277673D01*
Y281127D01*
X1185266Y284516D01*
X1183944Y287708D01*
X1182024Y290581D01*
X1179581Y293024D01*
X1176708Y294944D01*
X1173516Y296266D01*
X1170127Y296940D01*
X1166673D01*
X1163284Y296266D01*
X1160092Y294944D01*
X1157219Y293024D01*
X1154776Y290581D01*
X1152856Y287708D01*
X1151534Y284516D01*
X1150860Y281127D01*
Y277673D01*
X1151534Y274284D01*
X1152856Y271092D01*
X1154776Y268219D01*
X1155121Y267873D01*
X1154635Y266700D01*
X293165D01*
X292679Y267873D01*
X293024Y268219D01*
X294944Y271092D01*
X296266Y274284D01*
X296940Y277673D01*
Y281127D01*
X296266Y284516D01*
X294944Y287708D01*
X293024Y290581D01*
X290581Y293024D01*
X287708Y294944D01*
X284516Y296266D01*
X281127Y296940D01*
X277673D01*
X274284Y296266D01*
X271092Y294944D01*
X268219Y293024D01*
X267873Y292679D01*
X266700Y293165D01*
Y773635D01*
X267873Y774121D01*
X268219Y773776D01*
X271092Y771856D01*
X274284Y770534D01*
X277673Y769860D01*
X281127D01*
X284516Y770534D01*
X287708Y771856D01*
X290581Y773776D01*
X293024Y776219D01*
X294944Y779092D01*
X296266Y782284D01*
X296940Y785673D01*
Y789128D01*
X296266Y792516D01*
X294944Y795708D01*
X293024Y798581D01*
X292679Y798927D01*
X293165Y800100D01*
X1108710D01*
X1109886Y799874D01*
X1109886Y798830D01*
Y780288D01*
X1107814Y778216D01*
X1087311D01*
Y780665D01*
X1069149D01*
Y767998D01*
X1081817D01*
X1084414Y765400D01*
X1084015Y764130D01*
X1079500D01*
Y757797D01*
Y751463D01*
X1084697D01*
Y737542D01*
X1083353Y736199D01*
X1082511Y734939D01*
X1082215Y733452D01*
Y706468D01*
X1073560D01*
Y681388D01*
X1080218D01*
X1080381Y681172D01*
X1080044Y679511D01*
X1078400Y678562D01*
X1076066Y676228D01*
X1074415Y673368D01*
X1073560Y670179D01*
Y666877D01*
X1074415Y663688D01*
X1076066Y660828D01*
X1078400Y658493D01*
X1081260Y656843D01*
X1082593Y656485D01*
Y655171D01*
X1081260Y654813D01*
X1078400Y653163D01*
X1076066Y650828D01*
X1074415Y647968D01*
X1073560Y644779D01*
Y641477D01*
X1074415Y638288D01*
X1076066Y635428D01*
X1078400Y633093D01*
X1081260Y631443D01*
X1084449Y630588D01*
X1087751D01*
X1090940Y631443D01*
X1093800Y633093D01*
X1096134Y635428D01*
X1097785Y638288D01*
X1098640Y641477D01*
Y644779D01*
X1097785Y647968D01*
X1097291Y648825D01*
X1125173Y676707D01*
X1126015Y677967D01*
X1126311Y679454D01*
Y734794D01*
X1134966D01*
Y759874D01*
X1109886D01*
Y734794D01*
X1118541D01*
Y681063D01*
X1091797Y654319D01*
X1090940Y654813D01*
X1089607Y655171D01*
Y656485D01*
X1090940Y656843D01*
X1093800Y658493D01*
X1096134Y660828D01*
X1097785Y663688D01*
X1098640Y666877D01*
Y670179D01*
X1097785Y673368D01*
X1096134Y676228D01*
X1093800Y678562D01*
X1092156Y679511D01*
X1091819Y681172D01*
X1091982Y681388D01*
X1098640D01*
Y706468D01*
X1089985D01*
Y731843D01*
X1091328Y733186D01*
X1092170Y734447D01*
X1092466Y735933D01*
Y766728D01*
X1092170Y768214D01*
X1091527Y769176D01*
X1091985Y770446D01*
X1109423D01*
X1110910Y770742D01*
X1112170Y771584D01*
X1115380Y774794D01*
X1134966D01*
Y798830D01*
X1134966Y799874D01*
X1136142Y800100D01*
X1154635D01*
X1155121Y798927D01*
X1154776Y798581D01*
X1152856Y795708D01*
X1151534Y792516D01*
X1150860Y789128D01*
Y785673D01*
X1151534Y782284D01*
X1152856Y779092D01*
X1154776Y776219D01*
X1157219Y773776D01*
X1160092Y771856D01*
X1163284Y770534D01*
X1166673Y769860D01*
X1170127D01*
X1173516Y770534D01*
X1176708Y771856D01*
X1179581Y773776D01*
X1182024Y776219D01*
X1183944Y779092D01*
X1185266Y782284D01*
X1185940Y785673D01*
Y789128D01*
X1185266Y792516D01*
X1183944Y795708D01*
X1182024Y798581D01*
X1181679Y798927D01*
X1182165Y800100D01*
X1206500D01*
Y605310D01*
D02*
G37*
G36*
X1181768Y580230D02*
X1206500D01*
Y565310D01*
X1181768D01*
Y553018D01*
X1160648D01*
X1160304Y553624D01*
Y554355D01*
X1160744Y554692D01*
X1161952Y556268D01*
X1162712Y558102D01*
X1162971Y560070D01*
X1162712Y562038D01*
X1161952Y563872D01*
X1160744Y565448D01*
X1159168Y566656D01*
X1157334Y567416D01*
X1155366Y567675D01*
X1147549D01*
X1147063Y568848D01*
X1161970Y583755D01*
X1167761D01*
Y587122D01*
X1181768D01*
Y580230D01*
D02*
G37*
%LPC*%
G36*
X1076960Y764130D02*
X1069149D01*
Y759067D01*
X1076960D01*
Y764130D01*
D02*
G37*
G36*
Y756527D02*
X1069149D01*
Y751463D01*
X1076960D01*
Y756527D01*
D02*
G37*
G36*
X747270Y760224D02*
X739500D01*
Y751204D01*
X747270D01*
Y760224D01*
D02*
G37*
G36*
X736960D02*
X729190D01*
Y751204D01*
X736960D01*
Y760224D01*
D02*
G37*
G36*
X747270Y748664D02*
X739500D01*
Y739644D01*
X747270D01*
Y748664D01*
D02*
G37*
G36*
X736960D02*
X729190D01*
Y739644D01*
X736960D01*
Y748664D01*
D02*
G37*
G36*
X792270Y760224D02*
X774190D01*
Y746326D01*
X774003Y746201D01*
X751662Y723860D01*
X725615D01*
Y726309D01*
X707453D01*
Y713642D01*
X725615D01*
Y716090D01*
X753271D01*
X754758Y716386D01*
X756018Y717228D01*
X778434Y739644D01*
X792270D01*
Y760224D01*
D02*
G37*
G36*
X341190Y743780D02*
X319210D01*
Y721800D01*
X341190D01*
Y743780D01*
D02*
G37*
G36*
X551060Y725050D02*
X530980D01*
Y716839D01*
X522601D01*
Y722035D01*
X509934D01*
Y703873D01*
X522601D01*
Y709069D01*
X530980D01*
Y704970D01*
X551060D01*
Y725050D01*
D02*
G37*
G36*
X453798Y725880D02*
X436218D01*
Y708300D01*
X453798D01*
Y725880D01*
D02*
G37*
G36*
X989240Y712420D02*
X977970D01*
Y706650D01*
X989240D01*
Y712420D01*
D02*
G37*
G36*
X833050D02*
X821780D01*
Y706650D01*
X833050D01*
Y712420D01*
D02*
G37*
G36*
X819240D02*
X807970D01*
Y706650D01*
X819240D01*
Y712420D01*
D02*
G37*
G36*
X1188440Y723570D02*
X1170360D01*
Y705490D01*
X1188440D01*
Y723570D01*
D02*
G37*
G36*
X618542Y725050D02*
X615898D01*
X613345Y724366D01*
X611055Y723044D01*
X609186Y721175D01*
X607864Y718885D01*
X607180Y716332D01*
Y713688D01*
X607864Y711135D01*
X609186Y708845D01*
X611055Y706976D01*
X613345Y705654D01*
X615898Y704970D01*
X618542D01*
X621095Y705654D01*
X623385Y706976D01*
X625254Y708845D01*
X626576Y711135D01*
X627260Y713688D01*
Y716332D01*
X626576Y718885D01*
X625254Y721175D01*
X623385Y723044D01*
X621095Y724366D01*
X618542Y725050D01*
D02*
G37*
G36*
X331647Y718380D02*
X328753D01*
X325958Y717631D01*
X323452Y716184D01*
X321406Y714138D01*
X319959Y711632D01*
X319210Y708837D01*
Y705943D01*
X319959Y703148D01*
X321406Y700642D01*
X323452Y698596D01*
X325958Y697149D01*
X328753Y696400D01*
X331647D01*
X334442Y697149D01*
X336948Y698596D01*
X338994Y700642D01*
X340441Y703148D01*
X341190Y705943D01*
Y708837D01*
X340441Y711632D01*
X338994Y714138D01*
X336948Y716184D01*
X334442Y717631D01*
X331647Y718380D01*
D02*
G37*
G36*
X383540Y703067D02*
Y695060D01*
X391547D01*
X390927Y697376D01*
X389704Y699494D01*
X387974Y701224D01*
X385856Y702447D01*
X383540Y703067D01*
D02*
G37*
G36*
X1180590Y703570D02*
X1178210D01*
X1175911Y702954D01*
X1173849Y701764D01*
X1172166Y700081D01*
X1170976Y698019D01*
X1170360Y695720D01*
Y693340D01*
X1170976Y691041D01*
X1172166Y688979D01*
X1173849Y687296D01*
X1175911Y686106D01*
X1178210Y685490D01*
X1180590D01*
X1182889Y686106D01*
X1184951Y687296D01*
X1186634Y688979D01*
X1187824Y691041D01*
X1188440Y693340D01*
Y695720D01*
X1187824Y698019D01*
X1186634Y700081D01*
X1184951Y701764D01*
X1182889Y702954D01*
X1180590Y703570D01*
D02*
G37*
G36*
X391547Y692520D02*
X383540D01*
Y684513D01*
X385856Y685133D01*
X387974Y686356D01*
X389704Y688086D01*
X390927Y690204D01*
X391547Y692520D01*
D02*
G37*
G36*
X416960Y703080D02*
X398380D01*
Y684500D01*
X416960D01*
Y703080D01*
D02*
G37*
G36*
X618542Y699650D02*
X615898D01*
X613345Y698966D01*
X611055Y697644D01*
X609186Y695775D01*
X607864Y693485D01*
X607180Y690932D01*
Y688288D01*
X607864Y685735D01*
X609186Y683445D01*
X611055Y681576D01*
X613345Y680254D01*
X615898Y679570D01*
X618542D01*
X621095Y680254D01*
X623385Y681576D01*
X625254Y683445D01*
X626576Y685735D01*
X627260Y688288D01*
Y690932D01*
X626576Y693485D01*
X625254Y695775D01*
X623385Y697644D01*
X621095Y698966D01*
X618542Y699650D01*
D02*
G37*
G36*
X660033Y693536D02*
X657719D01*
X655483Y692937D01*
X653479Y691780D01*
X651842Y690143D01*
X650685Y688139D01*
X650086Y685903D01*
Y683589D01*
X650685Y681353D01*
X651842Y679349D01*
X653479Y677712D01*
X655483Y676555D01*
X657719Y675956D01*
X660033D01*
X662269Y676555D01*
X664273Y677712D01*
X665910Y679349D01*
X667067Y681353D01*
X667666Y683589D01*
Y685903D01*
X667067Y688139D01*
X665910Y690143D01*
X664273Y691780D01*
X662269Y692937D01*
X660033Y693536D01*
D02*
G37*
G36*
X702718Y692520D02*
X685138D01*
Y674940D01*
X702718D01*
Y692520D01*
D02*
G37*
G36*
X694082Y719582D02*
X691742D01*
X689481Y718976D01*
X687453Y717806D01*
X685798Y716151D01*
X684628Y714123D01*
X684022Y711862D01*
Y709522D01*
X684628Y707261D01*
X685798Y705233D01*
X687453Y703578D01*
X689481Y702408D01*
X691742Y701802D01*
X694082D01*
X694525Y701921D01*
X696999Y699447D01*
X696999Y699447D01*
X698831Y698222D01*
X700993Y697792D01*
X700993Y697792D01*
X707453D01*
Y697107D01*
X717627D01*
X726048Y688686D01*
X726048Y688686D01*
X727881Y687461D01*
X730042Y687031D01*
X807970D01*
Y683865D01*
X805410D01*
X803923Y683569D01*
X802663Y682727D01*
X794255Y674319D01*
X792270D01*
Y680724D01*
X774190D01*
Y660144D01*
X792270D01*
Y666549D01*
X795864D01*
X797351Y666845D01*
X798611Y667687D01*
X806700Y675776D01*
X807970Y675325D01*
Y660240D01*
Y647540D01*
Y634840D01*
Y622140D01*
Y609440D01*
Y596740D01*
Y584040D01*
Y571340D01*
Y558640D01*
Y545940D01*
Y533240D01*
X833050D01*
Y545940D01*
Y558640D01*
Y571340D01*
Y584040D01*
Y596740D01*
Y609440D01*
Y622140D01*
Y634840D01*
Y647540D01*
Y660240D01*
Y672940D01*
Y685640D01*
Y698340D01*
Y704110D01*
X807970D01*
Y698328D01*
X732382D01*
X725615Y705096D01*
Y709774D01*
X707453D01*
Y709090D01*
X703333D01*
X701802Y710620D01*
Y711862D01*
X701196Y714123D01*
X700026Y716151D01*
X698371Y717806D01*
X696343Y718976D01*
X694082Y719582D01*
D02*
G37*
G36*
X747270Y680724D02*
X739500D01*
Y671704D01*
X747270D01*
Y680724D01*
D02*
G37*
G36*
X736960D02*
X729190D01*
Y671704D01*
X736960D01*
Y680724D01*
D02*
G37*
G36*
X331647Y692980D02*
X328753D01*
X325958Y692231D01*
X323452Y690784D01*
X321406Y688738D01*
X319959Y686232D01*
X319210Y683437D01*
Y680543D01*
X319959Y677748D01*
X321406Y675242D01*
X323452Y673196D01*
X325958Y671749D01*
X328753Y671000D01*
X331647D01*
X334442Y671749D01*
X336948Y673196D01*
X338994Y675242D01*
X340441Y677748D01*
X341190Y680543D01*
Y683437D01*
X340441Y686232D01*
X338994Y688738D01*
X336948Y690784D01*
X334442Y692231D01*
X331647Y692980D01*
D02*
G37*
G36*
X1180590Y683570D02*
X1178210D01*
X1175911Y682954D01*
X1173849Y681764D01*
X1172166Y680081D01*
X1170976Y678019D01*
X1170360Y675720D01*
Y673340D01*
X1170976Y671041D01*
X1172166Y668979D01*
X1173849Y667296D01*
X1175911Y666106D01*
X1178210Y665490D01*
X1180590D01*
X1182889Y666106D01*
X1184951Y667296D01*
X1186634Y668979D01*
X1187824Y671041D01*
X1188440Y673340D01*
Y675720D01*
X1187824Y678019D01*
X1186634Y680081D01*
X1184951Y681764D01*
X1182889Y682954D01*
X1180590Y683570D01*
D02*
G37*
G36*
X747270Y669164D02*
X739500D01*
Y660144D01*
X747270D01*
Y669164D01*
D02*
G37*
G36*
X736960D02*
X729190D01*
Y660144D01*
X736960D01*
Y669164D01*
D02*
G37*
G36*
X997088Y787975D02*
X813932D01*
X812445Y787679D01*
X811185Y786837D01*
X802933Y778585D01*
X394398D01*
X392912Y778289D01*
X391651Y777447D01*
X365553Y751349D01*
X364711Y750088D01*
X364415Y748602D01*
Y564727D01*
X302053Y502365D01*
X301211Y501105D01*
X300915Y499618D01*
Y466090D01*
X301211Y464603D01*
X302053Y463343D01*
X320144Y445252D01*
X319959Y444932D01*
X319210Y442137D01*
Y439243D01*
X319959Y436448D01*
X321406Y433942D01*
X323452Y431896D01*
X325958Y430449D01*
X328753Y429700D01*
X331647D01*
X334442Y430449D01*
X336948Y431896D01*
X338994Y433942D01*
X340441Y436448D01*
X341190Y439243D01*
Y442137D01*
X340441Y444932D01*
X338994Y447438D01*
X336948Y449484D01*
X334442Y450931D01*
X331647Y451680D01*
X328753D01*
X325958Y450931D01*
X325638Y450746D01*
X308685Y467699D01*
Y498009D01*
X371047Y560371D01*
X371889Y561631D01*
X372185Y563118D01*
Y614428D01*
X373455Y614595D01*
X373613Y614004D01*
X374836Y611886D01*
X376566Y610156D01*
X378684Y608933D01*
X381047Y608300D01*
X383493D01*
X385856Y608933D01*
X387974Y610156D01*
X389704Y611886D01*
X390927Y614004D01*
X391560Y616367D01*
Y618813D01*
X390927Y621176D01*
X389704Y623294D01*
X387974Y625024D01*
X385856Y626247D01*
X383493Y626880D01*
X381047D01*
X378684Y626247D01*
X376566Y625024D01*
X374836Y623294D01*
X373613Y621176D01*
X373455Y620584D01*
X372185Y620752D01*
Y690628D01*
X373455Y690796D01*
X373613Y690204D01*
X374836Y688086D01*
X376566Y686356D01*
X378684Y685133D01*
X381000Y684513D01*
Y693790D01*
Y703067D01*
X378684Y702447D01*
X376566Y701224D01*
X374836Y699494D01*
X373613Y697376D01*
X373455Y696785D01*
X372185Y696952D01*
Y746993D01*
X396007Y770815D01*
X804542D01*
X806028Y771111D01*
X807289Y771953D01*
X811747Y776411D01*
X812920Y775925D01*
Y717280D01*
X813117Y716289D01*
X813679Y715449D01*
X814519Y714887D01*
X815510Y714690D01*
X995510D01*
X996501Y714887D01*
X997341Y715449D01*
X997903Y716289D01*
X998100Y717280D01*
Y775925D01*
X999273Y776411D01*
X1000435Y775249D01*
Y712420D01*
X991780D01*
Y705380D01*
X990510D01*
Y704110D01*
X977970D01*
Y698340D01*
Y685640D01*
Y672940D01*
Y658465D01*
X969040D01*
X968119Y659386D01*
X966091Y660556D01*
X963830Y661162D01*
X961490D01*
X959229Y660556D01*
X957201Y659386D01*
X955546Y657731D01*
X954376Y655703D01*
X953770Y653442D01*
Y651102D01*
X954376Y648841D01*
X955546Y646813D01*
X957201Y645158D01*
X959229Y643988D01*
X961490Y643382D01*
X963830D01*
X966091Y643988D01*
X968119Y645158D01*
X969774Y646813D01*
X970944Y648841D01*
X971441Y650695D01*
X977970D01*
Y634840D01*
Y622140D01*
Y609440D01*
Y596740D01*
Y584040D01*
Y571340D01*
Y558640D01*
Y544165D01*
X974157D01*
X971485Y546837D01*
X970225Y547679D01*
X968738Y547975D01*
X842282D01*
X840795Y547679D01*
X839535Y546837D01*
X836653Y543955D01*
X835811Y542695D01*
X835515Y541208D01*
Y533707D01*
X829701Y527893D01*
X773001D01*
X765885Y535009D01*
Y577491D01*
X765589Y578978D01*
X764747Y580238D01*
X742115Y602870D01*
Y621280D01*
X747270D01*
Y641860D01*
X729190D01*
Y621280D01*
X734345D01*
Y601261D01*
X734641Y599774D01*
X735483Y598514D01*
X758115Y575882D01*
Y533400D01*
X758411Y531913D01*
X759253Y530653D01*
X768645Y521261D01*
X769905Y520419D01*
X771392Y520123D01*
X831310D01*
X832797Y520419D01*
X834057Y521261D01*
X840147Y527351D01*
X841320Y526865D01*
Y517740D01*
X847090D01*
Y530280D01*
X849630D01*
Y517740D01*
X969700D01*
Y536073D01*
X970970Y536752D01*
X971062Y536691D01*
X972548Y536395D01*
X977970D01*
Y533240D01*
X996205D01*
X996691Y532067D01*
X938409Y473785D01*
X739384D01*
X732662Y480507D01*
X733148Y481680D01*
X734220D01*
Y488950D01*
X726950D01*
Y487878D01*
X725777Y487392D01*
X715085Y498084D01*
Y522541D01*
X719135D01*
X719394Y521241D01*
X720236Y519981D01*
X740283Y499933D01*
X739797Y498760D01*
X736760D01*
Y491490D01*
X744030D01*
Y494527D01*
X745203Y495013D01*
X747356Y492860D01*
X746950Y491344D01*
Y489096D01*
X747532Y486924D01*
X748656Y484976D01*
X750246Y483386D01*
X752194Y482262D01*
X754366Y481680D01*
X756614D01*
X758786Y482262D01*
X760734Y483386D01*
X762324Y484976D01*
X763448Y486924D01*
X764030Y489096D01*
Y491344D01*
X763448Y493516D01*
X762324Y495464D01*
X760734Y497054D01*
X758786Y498178D01*
X756614Y498760D01*
X754366D01*
X752850Y498354D01*
X726867Y524337D01*
Y529098D01*
X726793Y529474D01*
Y540703D01*
X720970D01*
X720484Y541876D01*
X726334Y547726D01*
X727176Y548986D01*
X727472Y550473D01*
Y586351D01*
X727176Y587838D01*
X726334Y589098D01*
X662565Y652867D01*
X661305Y653709D01*
X659818Y654005D01*
X622164D01*
X621824Y655275D01*
X623385Y656176D01*
X625254Y658045D01*
X626576Y660335D01*
X627260Y662888D01*
Y665532D01*
X626576Y668085D01*
X625254Y670375D01*
X623385Y672244D01*
X621095Y673566D01*
X618542Y674250D01*
X615898D01*
X613345Y673566D01*
X611055Y672244D01*
X609186Y670375D01*
X607864Y668085D01*
X607180Y665532D01*
Y662888D01*
X607864Y660335D01*
X609186Y658045D01*
X611055Y656176D01*
X612617Y655275D01*
X612276Y654005D01*
X582119D01*
X550379Y685745D01*
X551060Y688288D01*
Y690932D01*
X550376Y693485D01*
X549054Y695775D01*
X547185Y697644D01*
X544895Y698966D01*
X542342Y699650D01*
X539698D01*
X537145Y698966D01*
X534855Y697644D01*
X532986Y695775D01*
X531664Y693485D01*
X530980Y690932D01*
Y688288D01*
X531664Y685735D01*
X532986Y683445D01*
X534855Y681576D01*
X537145Y680254D01*
X539698Y679570D01*
X542342D01*
X544885Y680251D01*
X577763Y647373D01*
X579023Y646531D01*
X580510Y646235D01*
X608787D01*
X609273Y645062D01*
X609186Y644975D01*
X607864Y642685D01*
X607180Y640132D01*
Y637488D01*
X607864Y634935D01*
X609186Y632645D01*
X611055Y630776D01*
X613345Y629454D01*
X615898Y628770D01*
X618542D01*
X621095Y629454D01*
X623385Y630776D01*
X625254Y632645D01*
X626576Y634935D01*
X627260Y637488D01*
Y640132D01*
X626576Y642685D01*
X625254Y644975D01*
X625167Y645062D01*
X625653Y646235D01*
X658209D01*
X719702Y584742D01*
Y552082D01*
X708453Y540833D01*
X707611Y539572D01*
X707315Y538086D01*
Y496475D01*
X707611Y494988D01*
X708453Y493728D01*
X735028Y467153D01*
X736288Y466311D01*
X737775Y466015D01*
X940018D01*
X941505Y466311D01*
X942765Y467153D01*
X1041924Y566312D01*
X1042766Y567572D01*
X1043062Y569059D01*
Y654689D01*
X1053529D01*
Y667356D01*
X1035367D01*
Y658875D01*
X1035292Y658499D01*
Y570668D01*
X1004223Y539599D01*
X1003050Y540085D01*
Y545940D01*
Y558640D01*
Y571340D01*
Y584040D01*
Y596740D01*
Y609440D01*
Y622140D01*
Y634840D01*
Y641945D01*
X1003675Y642363D01*
X1017471Y656159D01*
X1019656Y655574D01*
X1021996D01*
X1024257Y656180D01*
X1026285Y657350D01*
X1027940Y659005D01*
X1029110Y661033D01*
X1029716Y663294D01*
Y665634D01*
X1029110Y667895D01*
X1027940Y669923D01*
X1027412Y670450D01*
X1027537Y671714D01*
X1027781Y671877D01*
X1029576Y673672D01*
X1035367D01*
Y671224D01*
X1053529D01*
Y683891D01*
X1035367D01*
Y681442D01*
X1030177D01*
X1029404Y682449D01*
X1029716Y683614D01*
Y685954D01*
X1029110Y688215D01*
X1027940Y690243D01*
X1026285Y691898D01*
X1024257Y693068D01*
X1021996Y693674D01*
X1019656D01*
X1017395Y693068D01*
X1015367Y691898D01*
X1013712Y690243D01*
X1012542Y688215D01*
X1011936Y685954D01*
Y684137D01*
X1011664Y683865D01*
X1003050D01*
Y692746D01*
X1003675Y693163D01*
X1007067Y696555D01*
X1007909Y697815D01*
X1008205Y699302D01*
Y776858D01*
X1007909Y778345D01*
X1007067Y779605D01*
X999835Y786837D01*
X998575Y787679D01*
X997088Y787975D01*
D02*
G37*
G36*
X542342Y674250D02*
X539698D01*
X537145Y673566D01*
X534855Y672244D01*
X532986Y670375D01*
X531664Y668085D01*
X530980Y665532D01*
Y662888D01*
X531664Y660335D01*
X532986Y658045D01*
X534855Y656176D01*
X537145Y654854D01*
X539698Y654170D01*
X542342D01*
X544895Y654854D01*
X547185Y656176D01*
X549054Y658045D01*
X550376Y660335D01*
X551060Y662888D01*
Y665532D01*
X550376Y668085D01*
X549054Y670375D01*
X547185Y672244D01*
X544895Y673566D01*
X542342Y674250D01*
D02*
G37*
G36*
X923050Y657920D02*
X915130D01*
Y650000D01*
X923050D01*
Y657920D01*
D02*
G37*
G36*
X875890D02*
X867970D01*
Y650000D01*
X875890D01*
Y657920D01*
D02*
G37*
G36*
X912590D02*
X896780D01*
Y648730D01*
X894240D01*
Y657920D01*
X878430D01*
Y648730D01*
X877160D01*
Y647460D01*
X867970D01*
Y639540D01*
Y631650D01*
X877160D01*
Y629110D01*
X867970D01*
Y621190D01*
Y613300D01*
X877160D01*
Y612030D01*
X878430D01*
Y602840D01*
X894240D01*
Y612030D01*
X896780D01*
Y602840D01*
X912590D01*
Y612030D01*
X913860D01*
Y613300D01*
X923050D01*
Y621190D01*
Y629110D01*
X913860D01*
Y631650D01*
X923050D01*
Y639540D01*
Y647460D01*
X913860D01*
Y648730D01*
X912590D01*
Y657920D01*
D02*
G37*
G36*
X331647Y667580D02*
X328753D01*
X325958Y666831D01*
X323452Y665384D01*
X321406Y663338D01*
X319959Y660832D01*
X319210Y658037D01*
Y655143D01*
X319959Y652348D01*
X321406Y649842D01*
X323452Y647796D01*
X325958Y646349D01*
X328753Y645600D01*
X331647D01*
X334442Y646349D01*
X336948Y647796D01*
X338994Y649842D01*
X340441Y652348D01*
X341190Y655143D01*
Y658037D01*
X340441Y660832D01*
X338994Y663338D01*
X336948Y665384D01*
X334442Y666831D01*
X331647Y667580D01*
D02*
G37*
G36*
X792270Y641860D02*
X784500D01*
Y632840D01*
X792270D01*
Y641860D01*
D02*
G37*
G36*
X781960D02*
X774190D01*
Y632840D01*
X781960D01*
Y641860D01*
D02*
G37*
G36*
X542342Y648850D02*
X539698D01*
X537145Y648166D01*
X534855Y646844D01*
X532986Y644975D01*
X531664Y642685D01*
X530980Y640132D01*
Y637488D01*
X531664Y634935D01*
X532986Y632645D01*
X534855Y630776D01*
X537145Y629454D01*
X539698Y628770D01*
X542342D01*
X544895Y629454D01*
X547185Y630776D01*
X549054Y632645D01*
X550376Y634935D01*
X551060Y637488D01*
Y640132D01*
X550376Y642685D01*
X549054Y644975D01*
X547185Y646844D01*
X544895Y648166D01*
X542342Y648850D01*
D02*
G37*
G36*
X331647Y642180D02*
X328753D01*
X325958Y641431D01*
X323452Y639984D01*
X321406Y637938D01*
X319959Y635432D01*
X319210Y632637D01*
Y629743D01*
X319959Y626948D01*
X321406Y624442D01*
X323452Y622396D01*
X325958Y620949D01*
X328753Y620200D01*
X331647D01*
X334442Y620949D01*
X336948Y622396D01*
X338994Y624442D01*
X340441Y626948D01*
X341190Y629743D01*
Y632637D01*
X340441Y635432D01*
X338994Y637938D01*
X336948Y639984D01*
X334442Y641431D01*
X331647Y642180D01*
D02*
G37*
G36*
X499410Y621942D02*
X491640D01*
Y614172D01*
X499410D01*
Y621942D01*
D02*
G37*
G36*
X489100D02*
X481330D01*
Y614172D01*
X489100D01*
Y621942D01*
D02*
G37*
G36*
X408893Y626880D02*
X406447D01*
X404084Y626247D01*
X401966Y625024D01*
X400236Y623294D01*
X399013Y621176D01*
X398380Y618813D01*
Y616367D01*
X399013Y614004D01*
X400236Y611886D01*
X401966Y610156D01*
X404084Y608933D01*
X406447Y608300D01*
X408893D01*
X411256Y608933D01*
X413374Y610156D01*
X415104Y611886D01*
X416327Y614004D01*
X416960Y616367D01*
Y618813D01*
X416327Y621176D01*
X415104Y623294D01*
X413374Y625024D01*
X411256Y626247D01*
X408893Y626880D01*
D02*
G37*
G36*
X331647Y616780D02*
X331470D01*
Y607060D01*
X341190D01*
Y607237D01*
X340441Y610032D01*
X338994Y612538D01*
X336948Y614584D01*
X334442Y616031D01*
X331647Y616780D01*
D02*
G37*
G36*
X328930D02*
X328753D01*
X325958Y616031D01*
X323452Y614584D01*
X321406Y612538D01*
X319959Y610032D01*
X319210Y607237D01*
Y607060D01*
X328930D01*
Y616780D01*
D02*
G37*
G36*
X506067Y722035D02*
X493399D01*
Y709367D01*
X483409Y699376D01*
X482567Y698116D01*
X482271Y696630D01*
Y675386D01*
X482567Y673899D01*
X483409Y672639D01*
X511885Y644163D01*
Y621098D01*
X510219Y620136D01*
X508536Y618453D01*
X507346Y616391D01*
X506730Y614092D01*
Y611712D01*
X507346Y609413D01*
X508536Y607351D01*
X510219Y605668D01*
X512281Y604478D01*
X514580Y603862D01*
X516960D01*
X519259Y604478D01*
X521321Y605668D01*
X523004Y607351D01*
X524194Y609413D01*
X524810Y611712D01*
Y614092D01*
X524194Y616391D01*
X523004Y618453D01*
X521321Y620136D01*
X519655Y621098D01*
Y645772D01*
X519359Y647259D01*
X518517Y648519D01*
X490041Y676995D01*
Y695021D01*
X498893Y703873D01*
X506067D01*
Y722035D01*
D02*
G37*
G36*
X499410Y611632D02*
X491640D01*
Y603862D01*
X499410D01*
Y611632D01*
D02*
G37*
G36*
X489100D02*
X481330D01*
Y603862D01*
X489100D01*
Y611632D01*
D02*
G37*
G36*
X618542Y623450D02*
X615898D01*
X613345Y622766D01*
X611055Y621444D01*
X609186Y619575D01*
X607864Y617285D01*
X607180Y614732D01*
Y612088D01*
X607864Y609535D01*
X609186Y607245D01*
X611055Y605376D01*
X613345Y604054D01*
X615898Y603370D01*
X618542D01*
X621095Y604054D01*
X623385Y605376D01*
X625254Y607245D01*
X626576Y609535D01*
X627260Y612088D01*
Y614732D01*
X626576Y617285D01*
X625254Y619575D01*
X623385Y621444D01*
X621095Y622766D01*
X618542Y623450D01*
D02*
G37*
G36*
X542342D02*
X539698D01*
X537145Y622766D01*
X534855Y621444D01*
X532986Y619575D01*
X531664Y617285D01*
X530980Y614732D01*
Y612088D01*
X531664Y609535D01*
X532986Y607245D01*
X534855Y605376D01*
X537145Y604054D01*
X539698Y603370D01*
X542342D01*
X544895Y604054D01*
X547185Y605376D01*
X549054Y607245D01*
X550376Y609535D01*
X551060Y612088D01*
Y614732D01*
X550376Y617285D01*
X549054Y619575D01*
X547185Y621444D01*
X544895Y622766D01*
X542342Y623450D01*
D02*
G37*
G36*
X923050Y610760D02*
X915130D01*
Y602840D01*
X923050D01*
Y610760D01*
D02*
G37*
G36*
X875890D02*
X867970D01*
Y602840D01*
X875890D01*
Y610760D01*
D02*
G37*
G36*
X341190Y604520D02*
X331470D01*
Y594800D01*
X331647D01*
X334442Y595549D01*
X336948Y596996D01*
X338994Y599042D01*
X340441Y601548D01*
X341190Y604343D01*
Y604520D01*
D02*
G37*
G36*
X328930D02*
X319210D01*
Y604343D01*
X319959Y601548D01*
X321406Y599042D01*
X323452Y596996D01*
X325958Y595549D01*
X328753Y594800D01*
X328930D01*
Y604520D01*
D02*
G37*
G36*
X1151227Y601917D02*
X1146163D01*
Y594106D01*
X1151227D01*
Y601917D01*
D02*
G37*
G36*
X1143623D02*
X1138559D01*
Y594106D01*
X1143623D01*
Y601917D01*
D02*
G37*
G36*
X695198Y592490D02*
Y585000D01*
X702688D01*
X702119Y587123D01*
X700962Y589127D01*
X699325Y590764D01*
X697321Y591921D01*
X695198Y592490D01*
D02*
G37*
G36*
X692658D02*
X690535Y591921D01*
X688531Y590764D01*
X686894Y589127D01*
X685737Y587123D01*
X685168Y585000D01*
X692658D01*
Y592490D01*
D02*
G37*
G36*
X542342Y598050D02*
X539698D01*
X537145Y597366D01*
X534855Y596044D01*
X532986Y594175D01*
X531664Y591885D01*
X530980Y589332D01*
Y586688D01*
X531664Y584135D01*
X532986Y581845D01*
X534855Y579976D01*
X537145Y578654D01*
X539698Y577970D01*
X542342D01*
X544895Y578654D01*
X547185Y579976D01*
X549054Y581845D01*
X550376Y584135D01*
X551060Y586688D01*
Y589332D01*
X550376Y591885D01*
X549054Y594175D01*
X547185Y596044D01*
X544895Y597366D01*
X542342Y598050D01*
D02*
G37*
G36*
X667666Y593536D02*
X650086D01*
Y575956D01*
X667666D01*
Y593536D01*
D02*
G37*
G36*
X702688Y582460D02*
X695198D01*
Y574970D01*
X697321Y575539D01*
X699325Y576696D01*
X700962Y578333D01*
X702119Y580337D01*
X702688Y582460D01*
D02*
G37*
G36*
X692658D02*
X685168D01*
X685737Y580337D01*
X686894Y578333D01*
X688531Y576696D01*
X690535Y575539D01*
X692658Y574970D01*
Y582460D01*
D02*
G37*
G36*
X516490Y581271D02*
Y574040D01*
X523721D01*
X523178Y576066D01*
X522054Y578014D01*
X520464Y579604D01*
X518516Y580728D01*
X516490Y581271D01*
D02*
G37*
G36*
X513950D02*
X511924Y580728D01*
X509976Y579604D01*
X508386Y578014D01*
X507262Y576066D01*
X506719Y574040D01*
X513950D01*
Y581271D01*
D02*
G37*
G36*
X331647Y591380D02*
X328753D01*
X325958Y590631D01*
X323452Y589184D01*
X321406Y587138D01*
X319959Y584632D01*
X319210Y581837D01*
Y578943D01*
X319959Y576148D01*
X321406Y573642D01*
X323452Y571596D01*
X325958Y570149D01*
X328753Y569400D01*
X331647D01*
X334442Y570149D01*
X336948Y571596D01*
X338994Y573642D01*
X340441Y576148D01*
X341190Y578943D01*
Y581837D01*
X340441Y584632D01*
X338994Y587138D01*
X336948Y589184D01*
X334442Y590631D01*
X331647Y591380D01*
D02*
G37*
G36*
X453798Y582073D02*
X436218D01*
Y564493D01*
X453798D01*
Y582073D01*
D02*
G37*
G36*
X523721Y571500D02*
X516490D01*
Y564269D01*
X518516Y564812D01*
X520464Y565936D01*
X522054Y567526D01*
X523178Y569474D01*
X523721Y571500D01*
D02*
G37*
G36*
X513950D02*
X506719D01*
X507262Y569474D01*
X508386Y567526D01*
X509976Y565936D01*
X511924Y564812D01*
X513950Y564269D01*
Y571500D01*
D02*
G37*
G36*
X618542Y572650D02*
X618490D01*
Y563880D01*
X627260D01*
Y563932D01*
X626576Y566485D01*
X625254Y568775D01*
X623385Y570644D01*
X621095Y571966D01*
X618542Y572650D01*
D02*
G37*
G36*
X615950D02*
X615898D01*
X613345Y571966D01*
X611055Y570644D01*
X609186Y568775D01*
X607864Y566485D01*
X607180Y563932D01*
Y563880D01*
X615950D01*
Y572650D01*
D02*
G37*
G36*
X383540Y567585D02*
Y559578D01*
X391547D01*
X390927Y561894D01*
X389704Y564012D01*
X387974Y565742D01*
X385856Y566965D01*
X383540Y567585D01*
D02*
G37*
G36*
X381000D02*
X378684Y566965D01*
X376566Y565742D01*
X374836Y564012D01*
X373613Y561894D01*
X372993Y559578D01*
X381000D01*
Y567585D01*
D02*
G37*
G36*
X792270Y630300D02*
X783230D01*
X774190D01*
Y621280D01*
X779345D01*
Y562360D01*
X774190D01*
Y553340D01*
X783230D01*
X792270D01*
Y562360D01*
X787115D01*
Y621280D01*
X792270D01*
Y630300D01*
D02*
G37*
G36*
X627260Y561340D02*
X618490D01*
Y552570D01*
X618542D01*
X621095Y553254D01*
X623385Y554576D01*
X625254Y556445D01*
X626576Y558735D01*
X627260Y561288D01*
Y561340D01*
D02*
G37*
G36*
X615950D02*
X607180D01*
Y561288D01*
X607864Y558735D01*
X609186Y556445D01*
X611055Y554576D01*
X613345Y553254D01*
X615898Y552570D01*
X615950D01*
Y561340D01*
D02*
G37*
G36*
X542342Y572650D02*
X539698D01*
X537145Y571966D01*
X534855Y570644D01*
X532986Y568775D01*
X531664Y566485D01*
X530980Y563932D01*
Y561288D01*
X531664Y558735D01*
X532986Y556445D01*
X534855Y554576D01*
X537145Y553254D01*
X539698Y552570D01*
X542342D01*
X544895Y553254D01*
X547185Y554576D01*
X549054Y556445D01*
X550376Y558735D01*
X551060Y561288D01*
Y563932D01*
X550376Y566485D01*
X549054Y568775D01*
X547185Y570644D01*
X544895Y571966D01*
X542342Y572650D01*
D02*
G37*
G36*
X660550Y557680D02*
X652780D01*
Y549910D01*
X660550D01*
Y557680D01*
D02*
G37*
G36*
X391547Y557038D02*
X383540D01*
Y549031D01*
X385856Y549651D01*
X387974Y550874D01*
X389704Y552604D01*
X390927Y554722D01*
X391547Y557038D01*
D02*
G37*
G36*
X381000D02*
X372993D01*
X373613Y554722D01*
X374836Y552604D01*
X376566Y550874D01*
X378684Y549651D01*
X381000Y549031D01*
Y557038D01*
D02*
G37*
G36*
X416960Y567598D02*
X398380D01*
Y549018D01*
X416960D01*
Y567598D01*
D02*
G37*
G36*
X618542Y598050D02*
X615898D01*
X613345Y597366D01*
X611055Y596044D01*
X609186Y594175D01*
X607864Y591885D01*
X607180Y589332D01*
Y586688D01*
X607864Y584135D01*
X609186Y581845D01*
X611055Y579976D01*
X613345Y578654D01*
X615898Y577970D01*
X618542D01*
X621085Y578651D01*
X637315Y562421D01*
Y487391D01*
X637611Y485904D01*
X638453Y484644D01*
X716919Y406177D01*
Y393509D01*
X724093D01*
X748068Y369533D01*
X749329Y368691D01*
X750815Y368395D01*
X772970D01*
Y362740D01*
X778556D01*
X786055Y355241D01*
Y348556D01*
X784389Y347594D01*
X782706Y345911D01*
X781516Y343849D01*
X780900Y341550D01*
Y339170D01*
X781516Y336871D01*
X782478Y335205D01*
X781919Y333935D01*
X773483D01*
X769491Y337927D01*
X768231Y338769D01*
X766744Y339065D01*
X616104D01*
X614617Y338769D01*
X613357Y337927D01*
X558715Y283285D01*
X326221D01*
X294461Y315045D01*
Y517567D01*
X323271Y546377D01*
X323452Y546196D01*
X325958Y544749D01*
X328753Y544000D01*
X331647D01*
X334442Y544749D01*
X336948Y546196D01*
X338994Y548242D01*
X340441Y550748D01*
X341190Y553543D01*
Y556437D01*
X340441Y559232D01*
X338994Y561738D01*
X336948Y563784D01*
X334442Y565231D01*
X331647Y565980D01*
X328753D01*
X325958Y565231D01*
X323452Y563784D01*
X321406Y561738D01*
X319959Y559232D01*
X319210Y556437D01*
Y553543D01*
X319261Y553354D01*
X287829Y521923D01*
X286987Y520663D01*
X286691Y519176D01*
Y313436D01*
X286987Y311949D01*
X287829Y310689D01*
X321865Y276653D01*
X323125Y275811D01*
X324612Y275515D01*
X560324D01*
X561811Y275811D01*
X563071Y276653D01*
X617713Y331295D01*
X642293D01*
X642922Y330025D01*
X642049Y328513D01*
X641450Y326277D01*
Y323963D01*
X642049Y321727D01*
X643206Y319723D01*
X644843Y318086D01*
X646847Y316929D01*
X649083Y316330D01*
X651397D01*
X653633Y316929D01*
X655637Y318086D01*
X657274Y319723D01*
X658147Y321235D01*
X768011D01*
X781398Y307848D01*
X780900Y305990D01*
Y303610D01*
X781516Y301311D01*
X782706Y299249D01*
X784389Y297566D01*
X786451Y296376D01*
X788750Y295760D01*
X791130D01*
X793429Y296376D01*
X795491Y297566D01*
X797174Y299249D01*
X798364Y301311D01*
X798980Y303610D01*
Y305990D01*
X798482Y307848D01*
X806291Y315657D01*
X812910D01*
X814396Y315953D01*
X815657Y316795D01*
X828397Y329535D01*
X829239Y330795D01*
X829535Y332282D01*
Y348438D01*
X829239Y349925D01*
X828397Y351185D01*
X819341Y360241D01*
X818081Y361083D01*
X817352Y361228D01*
X817202Y361470D01*
X817912Y362740D01*
X822150D01*
Y371010D01*
X816610D01*
X811070D01*
Y369380D01*
X809800Y368726D01*
X809450Y368977D01*
Y381820D01*
X798370D01*
Y364000D01*
X798370Y363781D01*
X797100Y363040D01*
X796750Y363238D01*
Y381820D01*
X785670D01*
Y369380D01*
X784400Y368726D01*
X784050Y368977D01*
Y381820D01*
X772970D01*
Y376165D01*
X752424D01*
X736254Y392336D01*
X736740Y393509D01*
X746121D01*
Y403977D01*
X750836D01*
X752322Y404272D01*
X753583Y405114D01*
X769864Y421395D01*
X772970D01*
Y415740D01*
X784050D01*
Y434820D01*
X772970D01*
Y429165D01*
X733769D01*
X685248Y477686D01*
X685700Y479373D01*
Y481687D01*
X685101Y483923D01*
X683944Y485927D01*
X682307Y487564D01*
X680303Y488721D01*
X678067Y489320D01*
X675753D01*
X673517Y488721D01*
X671513Y487564D01*
X669876Y485927D01*
X668719Y483923D01*
X668120Y481687D01*
Y479373D01*
X668719Y477137D01*
X669876Y475133D01*
X671513Y473496D01*
X673517Y472339D01*
X675753Y471740D01*
X678067D01*
X679754Y472192D01*
X729413Y422533D01*
X730673Y421691D01*
X732160Y421395D01*
X757217D01*
X757703Y420222D01*
X749227Y411746D01*
X742311D01*
X741935Y411671D01*
X733454D01*
Y396795D01*
X732280Y396309D01*
X729586Y399003D01*
Y411671D01*
X722413D01*
X645085Y488999D01*
Y515219D01*
X646355Y515778D01*
X648021Y514816D01*
X650320Y514200D01*
X652700D01*
X654999Y514816D01*
X657061Y516006D01*
X658744Y517689D01*
X659934Y519751D01*
X660550Y522050D01*
Y524430D01*
X659934Y526729D01*
X658744Y528791D01*
X657061Y530474D01*
X654999Y531664D01*
X652700Y532280D01*
X650320D01*
X648021Y531664D01*
X646355Y530702D01*
X645085Y531261D01*
Y539600D01*
X650240D01*
Y548640D01*
Y557680D01*
X645085D01*
Y564030D01*
X644789Y565517D01*
X643947Y566777D01*
X626579Y584145D01*
X627260Y586688D01*
Y589332D01*
X626576Y591885D01*
X625254Y594175D01*
X623385Y596044D01*
X621095Y597366D01*
X618542Y598050D01*
D02*
G37*
G36*
X792270Y550800D02*
X784500D01*
Y541780D01*
X792270D01*
Y550800D01*
D02*
G37*
G36*
X781960D02*
X774190D01*
Y541780D01*
X781960D01*
Y550800D01*
D02*
G37*
G36*
X747270Y562360D02*
X729190D01*
Y541780D01*
X730193D01*
X730659Y540703D01*
X730659D01*
Y522541D01*
X743327D01*
Y540703D01*
X743327D01*
X743793Y541780D01*
X747270D01*
Y562360D01*
D02*
G37*
G36*
X660550Y547370D02*
X652780D01*
Y539600D01*
X660550D01*
Y547370D01*
D02*
G37*
G36*
X542342Y547250D02*
X542290D01*
Y538480D01*
X551060D01*
Y538532D01*
X550376Y541085D01*
X549054Y543375D01*
X547185Y545244D01*
X544895Y546566D01*
X542342Y547250D01*
D02*
G37*
G36*
X539750D02*
X539698D01*
X537145Y546566D01*
X534855Y545244D01*
X532986Y543375D01*
X531664Y541085D01*
X530980Y538532D01*
Y538480D01*
X539750D01*
Y547250D01*
D02*
G37*
G36*
X618542D02*
X615898D01*
X613345Y546566D01*
X611055Y545244D01*
X609186Y543375D01*
X607864Y541085D01*
X607180Y538532D01*
Y535888D01*
X607864Y533335D01*
X609186Y531045D01*
X611055Y529176D01*
X613345Y527854D01*
X615898Y527170D01*
X618542D01*
X621095Y527854D01*
X623385Y529176D01*
X625254Y531045D01*
X626576Y533335D01*
X627260Y535888D01*
Y538532D01*
X626576Y541085D01*
X625254Y543375D01*
X623385Y545244D01*
X621095Y546566D01*
X618542Y547250D01*
D02*
G37*
G36*
X551060Y535940D02*
X542290D01*
Y527170D01*
X542342D01*
X544895Y527854D01*
X547185Y529176D01*
X549054Y531045D01*
X550376Y533335D01*
X551060Y535888D01*
Y535940D01*
D02*
G37*
G36*
X539750D02*
X530980D01*
Y535888D01*
X531664Y533335D01*
X532986Y531045D01*
X534855Y529176D01*
X537145Y527854D01*
X539698Y527170D01*
X539750D01*
Y535940D01*
D02*
G37*
G36*
X1162804Y533400D02*
X1151636D01*
Y527065D01*
X1155366D01*
X1157334Y527324D01*
X1159168Y528084D01*
X1160744Y529292D01*
X1161952Y530868D01*
X1162712Y532702D01*
X1162804Y533400D01*
D02*
G37*
G36*
X1149096D02*
X1137928D01*
X1138020Y532702D01*
X1138780Y530868D01*
X1139988Y529292D01*
X1141563Y528084D01*
X1143398Y527324D01*
X1145366Y527065D01*
X1149096D01*
Y533400D01*
D02*
G37*
G36*
X618542Y521850D02*
X615898D01*
X613345Y521166D01*
X611055Y519844D01*
X609186Y517975D01*
X607864Y515685D01*
X607180Y513132D01*
Y510488D01*
X607864Y507935D01*
X609186Y505645D01*
X611055Y503776D01*
X613345Y502454D01*
X615898Y501770D01*
X618542D01*
X621095Y502454D01*
X623385Y503776D01*
X625254Y505645D01*
X626576Y507935D01*
X627260Y510488D01*
Y513132D01*
X626576Y515685D01*
X625254Y517975D01*
X623385Y519844D01*
X621095Y521166D01*
X618542Y521850D01*
D02*
G37*
G36*
X542342D02*
X539698D01*
X537145Y521166D01*
X534855Y519844D01*
X532986Y517975D01*
X531664Y515685D01*
X530980Y513132D01*
Y510488D01*
X531664Y507935D01*
X532986Y505645D01*
X534855Y503776D01*
X537145Y502454D01*
X539698Y501770D01*
X542342D01*
X544895Y502454D01*
X547185Y503776D01*
X549054Y505645D01*
X550376Y507935D01*
X551060Y510488D01*
Y513132D01*
X550376Y515685D01*
X549054Y517975D01*
X547185Y519844D01*
X544895Y521166D01*
X542342Y521850D01*
D02*
G37*
G36*
X1182878Y500255D02*
Y492506D01*
X1190627D01*
X1190032Y494725D01*
X1188842Y496787D01*
X1187159Y498470D01*
X1185097Y499660D01*
X1182878Y500255D01*
D02*
G37*
G36*
X1180338D02*
X1178119Y499660D01*
X1176057Y498470D01*
X1174374Y496787D01*
X1173184Y494725D01*
X1172589Y492506D01*
X1180338D01*
Y500255D01*
D02*
G37*
G36*
X1043686Y499493D02*
Y491744D01*
X1051435D01*
X1050840Y493963D01*
X1049650Y496025D01*
X1047967Y497708D01*
X1045905Y498898D01*
X1043686Y499493D01*
D02*
G37*
G36*
X1041146D02*
X1038927Y498898D01*
X1036865Y497708D01*
X1035182Y496025D01*
X1033992Y493963D01*
X1033397Y491744D01*
X1041146D01*
Y499493D01*
D02*
G37*
G36*
X734220Y498760D02*
X726950D01*
Y491490D01*
X734220D01*
Y498760D01*
D02*
G37*
G36*
X1190627Y489966D02*
X1182878D01*
Y482217D01*
X1185097Y482812D01*
X1187159Y484002D01*
X1188842Y485685D01*
X1190032Y487747D01*
X1190627Y489966D01*
D02*
G37*
G36*
X1180338D02*
X1172589D01*
X1173184Y487747D01*
X1174374Y485685D01*
X1176057Y484002D01*
X1178119Y482812D01*
X1180338Y482217D01*
Y489966D01*
D02*
G37*
G36*
X1165248Y500276D02*
X1147168D01*
Y482196D01*
X1165248D01*
Y500276D01*
D02*
G37*
G36*
X744030Y488950D02*
X736760D01*
Y481680D01*
X744030D01*
Y488950D01*
D02*
G37*
G36*
X1051435Y489204D02*
X1043686D01*
Y481455D01*
X1045905Y482050D01*
X1047967Y483240D01*
X1049650Y484923D01*
X1050840Y486985D01*
X1051435Y489204D01*
D02*
G37*
G36*
X1041146D02*
X1033397D01*
X1033992Y486985D01*
X1035182Y484923D01*
X1036865Y483240D01*
X1038927Y482050D01*
X1041146Y481455D01*
Y489204D01*
D02*
G37*
G36*
X1026056Y499514D02*
X1007976D01*
Y481434D01*
X1026056D01*
Y499514D01*
D02*
G37*
G36*
X341190Y502480D02*
X319210D01*
Y480500D01*
X341190D01*
Y502480D01*
D02*
G37*
G36*
X618542Y496450D02*
X615898D01*
X613345Y495766D01*
X611055Y494444D01*
X609186Y492575D01*
X607864Y490285D01*
X607180Y487732D01*
Y485088D01*
X607864Y482535D01*
X609186Y480245D01*
X611055Y478376D01*
X613345Y477054D01*
X615898Y476370D01*
X618542D01*
X621095Y477054D01*
X623385Y478376D01*
X625254Y480245D01*
X626576Y482535D01*
X627260Y485088D01*
Y487732D01*
X626576Y490285D01*
X625254Y492575D01*
X623385Y494444D01*
X621095Y495766D01*
X618542Y496450D01*
D02*
G37*
G36*
X542342D02*
X539698D01*
X537145Y495766D01*
X534855Y494444D01*
X532986Y492575D01*
X531664Y490285D01*
X530980Y487732D01*
Y485088D01*
X531664Y482535D01*
X532986Y480245D01*
X534855Y478376D01*
X537145Y477054D01*
X539698Y476370D01*
X542342D01*
X544895Y477054D01*
X547185Y478376D01*
X549054Y480245D01*
X550376Y482535D01*
X551060Y485088D01*
Y487732D01*
X550376Y490285D01*
X549054Y492575D01*
X547185Y494444D01*
X544895Y495766D01*
X542342Y496450D01*
D02*
G37*
G36*
X408893Y491398D02*
X406447D01*
X404084Y490765D01*
X401966Y489542D01*
X400236Y487812D01*
X399013Y485694D01*
X398380Y483331D01*
Y480885D01*
X399013Y478522D01*
X400236Y476404D01*
X401966Y474674D01*
X404084Y473451D01*
X406447Y472818D01*
X408893D01*
X411256Y473451D01*
X413374Y474674D01*
X415104Y476404D01*
X416327Y478522D01*
X416960Y480885D01*
Y483331D01*
X416327Y485694D01*
X415104Y487812D01*
X413374Y489542D01*
X411256Y490765D01*
X408893Y491398D01*
D02*
G37*
G36*
X383493D02*
X381047D01*
X378684Y490765D01*
X376566Y489542D01*
X374836Y487812D01*
X373613Y485694D01*
X372980Y483331D01*
Y480885D01*
X373613Y478522D01*
X374836Y476404D01*
X376566Y474674D01*
X378684Y473451D01*
X381047Y472818D01*
X383493D01*
X385856Y473451D01*
X387974Y474674D01*
X389704Y476404D01*
X390927Y478522D01*
X391560Y480885D01*
Y483331D01*
X390927Y485694D01*
X389704Y487812D01*
X387974Y489542D01*
X385856Y490765D01*
X383493Y491398D01*
D02*
G37*
G36*
X502570Y483250D02*
X485490D01*
Y466170D01*
X502570D01*
Y483250D01*
D02*
G37*
G36*
X446165Y482073D02*
X443851D01*
X441615Y481474D01*
X439611Y480317D01*
X437974Y478680D01*
X436817Y476676D01*
X436218Y474440D01*
Y472126D01*
X436817Y469890D01*
X437974Y467886D01*
X439611Y466249D01*
X441615Y465092D01*
X443851Y464493D01*
X446165D01*
X448401Y465092D01*
X450405Y466249D01*
X452042Y467886D01*
X453199Y469890D01*
X453798Y472126D01*
Y474440D01*
X453199Y476676D01*
X452042Y478680D01*
X450405Y480317D01*
X448401Y481474D01*
X446165Y482073D01*
D02*
G37*
G36*
X331647Y477080D02*
X328753D01*
X325958Y476331D01*
X323452Y474884D01*
X321406Y472838D01*
X319959Y470332D01*
X319210Y467537D01*
Y464643D01*
X319959Y461848D01*
X321406Y459342D01*
X323452Y457296D01*
X325958Y455849D01*
X328753Y455100D01*
X331647D01*
X334442Y455849D01*
X336948Y457296D01*
X338994Y459342D01*
X340441Y461848D01*
X341190Y464643D01*
Y467537D01*
X340441Y470332D01*
X338994Y472838D01*
X336948Y474884D01*
X334442Y476331D01*
X331647Y477080D01*
D02*
G37*
G36*
X618542Y471050D02*
X615898D01*
X613345Y470366D01*
X611055Y469044D01*
X609186Y467175D01*
X607864Y464885D01*
X607180Y462332D01*
Y459688D01*
X607864Y457135D01*
X609186Y454845D01*
X611055Y452976D01*
X613345Y451654D01*
X615898Y450970D01*
X618542D01*
X621095Y451654D01*
X623385Y452976D01*
X625254Y454845D01*
X626576Y457135D01*
X627260Y459688D01*
Y462332D01*
X626576Y464885D01*
X625254Y467175D01*
X623385Y469044D01*
X621095Y470366D01*
X618542Y471050D01*
D02*
G37*
G36*
X446165Y625880D02*
X443851D01*
X441615Y625281D01*
X439611Y624124D01*
X437974Y622487D01*
X436817Y620483D01*
X436218Y618247D01*
Y615933D01*
X436817Y613697D01*
X437974Y611693D01*
X439611Y610056D01*
X441615Y608899D01*
X443851Y608300D01*
X446165D01*
X447852Y608752D01*
X476525Y580079D01*
Y521620D01*
X476821Y520133D01*
X477663Y518873D01*
X531661Y464875D01*
X530980Y462332D01*
Y459688D01*
X531664Y457135D01*
X532986Y454845D01*
X534855Y452976D01*
X537145Y451654D01*
X539698Y450970D01*
X542342D01*
X544895Y451654D01*
X547185Y452976D01*
X549054Y454845D01*
X550376Y457135D01*
X551060Y459688D01*
Y462332D01*
X550376Y464885D01*
X549054Y467175D01*
X547185Y469044D01*
X544895Y470366D01*
X542342Y471050D01*
X539698D01*
X537155Y470369D01*
X493824Y513700D01*
X494350Y514970D01*
X495154D01*
X497326Y515552D01*
X499274Y516676D01*
X500864Y518266D01*
X501988Y520214D01*
X502570Y522386D01*
Y524634D01*
X501988Y526806D01*
X500864Y528754D01*
X499274Y530344D01*
X497326Y531468D01*
X495154Y532050D01*
X492906D01*
X490734Y531468D01*
X488786Y530344D01*
X487196Y528754D01*
X486072Y526806D01*
X485565Y524913D01*
X484295Y525080D01*
Y564230D01*
X498760D01*
Y581310D01*
X484295D01*
Y581688D01*
X483999Y583175D01*
X483157Y584435D01*
X453346Y614246D01*
X453798Y615933D01*
Y618247D01*
X453199Y620483D01*
X452042Y622487D01*
X450405Y624124D01*
X448401Y625281D01*
X446165Y625880D01*
D02*
G37*
G36*
X953131Y437896D02*
X948067D01*
Y430085D01*
X953131D01*
Y437896D01*
D02*
G37*
G36*
X945527D02*
X940463D01*
Y430085D01*
X945527D01*
Y437896D01*
D02*
G37*
G36*
X618542Y445650D02*
X615898D01*
X613345Y444966D01*
X611055Y443644D01*
X609186Y441775D01*
X607864Y439485D01*
X607180Y436932D01*
Y434288D01*
X607864Y431735D01*
X609186Y429445D01*
X611055Y427576D01*
X613345Y426254D01*
X615898Y425570D01*
X618542D01*
X621095Y426254D01*
X623385Y427576D01*
X625254Y429445D01*
X626576Y431735D01*
X627260Y434288D01*
Y436932D01*
X626576Y439485D01*
X625254Y441775D01*
X623385Y443644D01*
X621095Y444966D01*
X618542Y445650D01*
D02*
G37*
G36*
X542342D02*
X539698D01*
X537145Y444966D01*
X534855Y443644D01*
X532986Y441775D01*
X531664Y439485D01*
X530980Y436932D01*
Y434288D01*
X531664Y431735D01*
X532986Y429445D01*
X534855Y427576D01*
X537145Y426254D01*
X539698Y425570D01*
X542342D01*
X544895Y426254D01*
X547185Y427576D01*
X549054Y429445D01*
X550376Y431735D01*
X551060Y434288D01*
Y436932D01*
X550376Y439485D01*
X549054Y441775D01*
X547185Y443644D01*
X544895Y444966D01*
X542342Y445650D01*
D02*
G37*
G36*
X383540Y432103D02*
Y424096D01*
X391547D01*
X390927Y426412D01*
X389704Y428530D01*
X387974Y430260D01*
X385856Y431483D01*
X383540Y432103D01*
D02*
G37*
G36*
X381000D02*
X378684Y431483D01*
X376566Y430260D01*
X374836Y428530D01*
X373613Y426412D01*
X372993Y424096D01*
X381000D01*
Y432103D01*
D02*
G37*
G36*
X453798Y438266D02*
X436218D01*
Y420686D01*
X453798D01*
Y438266D01*
D02*
G37*
G36*
X516490Y427601D02*
Y420370D01*
X523721D01*
X523178Y422396D01*
X522054Y424344D01*
X520464Y425934D01*
X518516Y427058D01*
X516490Y427601D01*
D02*
G37*
G36*
X513950D02*
X511924Y427058D01*
X509976Y425934D01*
X508386Y424344D01*
X507262Y422396D01*
X506719Y420370D01*
X513950D01*
Y427601D01*
D02*
G37*
G36*
X331647Y426280D02*
X331470D01*
Y416560D01*
X341190D01*
Y416737D01*
X340441Y419532D01*
X338994Y422038D01*
X336948Y424084D01*
X334442Y425531D01*
X331647Y426280D01*
D02*
G37*
G36*
X328930D02*
X328753D01*
X325958Y425531D01*
X323452Y424084D01*
X321406Y422038D01*
X319959Y419532D01*
X319210Y416737D01*
Y416560D01*
X328930D01*
Y426280D01*
D02*
G37*
G36*
X822150Y434820D02*
X811070D01*
Y415740D01*
X822150D01*
Y434820D01*
D02*
G37*
G36*
X809450D02*
X798370D01*
Y415740D01*
X809450D01*
Y434820D01*
D02*
G37*
G36*
X796750D02*
X785670D01*
Y415740D01*
X796750D01*
Y434820D01*
D02*
G37*
G36*
X391547Y421556D02*
X383540D01*
Y413549D01*
X385856Y414169D01*
X387974Y415392D01*
X389704Y417122D01*
X390927Y419240D01*
X391547Y421556D01*
D02*
G37*
G36*
X381000D02*
X372993D01*
X373613Y419240D01*
X374836Y417122D01*
X376566Y415392D01*
X378684Y414169D01*
X381000Y413549D01*
Y421556D01*
D02*
G37*
G36*
X416960Y432116D02*
X398380D01*
Y413536D01*
X416960D01*
Y432116D01*
D02*
G37*
G36*
X523721Y417830D02*
X516490D01*
Y410599D01*
X518516Y411142D01*
X520464Y412266D01*
X522054Y413856D01*
X523178Y415804D01*
X523721Y417830D01*
D02*
G37*
G36*
X513950D02*
X506719D01*
X507262Y415804D01*
X508386Y413856D01*
X509976Y412266D01*
X511924Y411142D01*
X513950Y410599D01*
Y417830D01*
D02*
G37*
G36*
X498760Y427640D02*
X481680D01*
Y410560D01*
X498760D01*
Y427640D01*
D02*
G37*
G36*
X341190Y414020D02*
X331470D01*
Y404300D01*
X331647D01*
X334442Y405049D01*
X336948Y406496D01*
X338994Y408542D01*
X340441Y411048D01*
X341190Y413843D01*
Y414020D01*
D02*
G37*
G36*
X328930D02*
X319210D01*
Y413843D01*
X319959Y411048D01*
X321406Y408542D01*
X323452Y406496D01*
X325958Y405049D01*
X328753Y404300D01*
X328930D01*
Y414020D01*
D02*
G37*
G36*
X618542Y420250D02*
X615898D01*
X613345Y419566D01*
X611055Y418244D01*
X609186Y416375D01*
X607864Y414085D01*
X607180Y411532D01*
Y408888D01*
X607864Y406335D01*
X609186Y404045D01*
X611055Y402176D01*
X613345Y400854D01*
X615898Y400170D01*
X618542D01*
X621095Y400854D01*
X623385Y402176D01*
X625254Y404045D01*
X626576Y406335D01*
X627260Y408888D01*
Y411532D01*
X626576Y414085D01*
X625254Y416375D01*
X623385Y418244D01*
X621095Y419566D01*
X618542Y420250D01*
D02*
G37*
G36*
X542342D02*
X539698D01*
X537145Y419566D01*
X534855Y418244D01*
X532986Y416375D01*
X531664Y414085D01*
X530980Y411532D01*
Y408888D01*
X531664Y406335D01*
X532986Y404045D01*
X534855Y402176D01*
X537145Y400854D01*
X539698Y400170D01*
X542342D01*
X544895Y400854D01*
X547185Y402176D01*
X549054Y404045D01*
X550376Y406335D01*
X551060Y408888D01*
Y411532D01*
X550376Y414085D01*
X549054Y416375D01*
X547185Y418244D01*
X544895Y419566D01*
X542342Y420250D01*
D02*
G37*
G36*
X331647Y400880D02*
X331470D01*
Y391160D01*
X341190D01*
Y391337D01*
X340441Y394132D01*
X338994Y396638D01*
X336948Y398684D01*
X334442Y400131D01*
X331647Y400880D01*
D02*
G37*
G36*
X328930D02*
X328753D01*
X325958Y400131D01*
X323452Y398684D01*
X321406Y396638D01*
X319959Y394132D01*
X319210Y391337D01*
Y391160D01*
X328930D01*
Y400880D01*
D02*
G37*
G36*
X341190Y388620D02*
X331470D01*
Y378900D01*
X331647D01*
X334442Y379649D01*
X336948Y381096D01*
X338994Y383142D01*
X340441Y385648D01*
X341190Y388443D01*
Y388620D01*
D02*
G37*
G36*
X328930D02*
X319210D01*
Y388443D01*
X319959Y385648D01*
X321406Y383142D01*
X323452Y381096D01*
X325958Y379649D01*
X328753Y378900D01*
X328930D01*
Y388620D01*
D02*
G37*
G36*
X618542Y394850D02*
X615898D01*
X613345Y394166D01*
X611055Y392844D01*
X609186Y390975D01*
X607864Y388685D01*
X607180Y386132D01*
Y383488D01*
X607864Y380935D01*
X609186Y378645D01*
X611055Y376776D01*
X613345Y375454D01*
X615898Y374770D01*
X618542D01*
X621095Y375454D01*
X623385Y376776D01*
X625254Y378645D01*
X626576Y380935D01*
X627260Y383488D01*
Y386132D01*
X626576Y388685D01*
X625254Y390975D01*
X623385Y392844D01*
X621095Y394166D01*
X618542Y394850D01*
D02*
G37*
G36*
X542342D02*
X539698D01*
X537145Y394166D01*
X534855Y392844D01*
X532986Y390975D01*
X531664Y388685D01*
X530980Y386132D01*
Y383488D01*
X531664Y380935D01*
X532986Y378645D01*
X534855Y376776D01*
X537145Y375454D01*
X539698Y374770D01*
X542342D01*
X544895Y375454D01*
X547185Y376776D01*
X549054Y378645D01*
X550376Y380935D01*
X551060Y383488D01*
Y386132D01*
X550376Y388685D01*
X549054Y390975D01*
X547185Y392844D01*
X544895Y394166D01*
X542342Y394850D01*
D02*
G37*
G36*
X822150Y381820D02*
X817880D01*
Y373550D01*
X822150D01*
Y381820D01*
D02*
G37*
G36*
X815340D02*
X811070D01*
Y373550D01*
X815340D01*
Y381820D01*
D02*
G37*
G36*
X331647Y375480D02*
X328753D01*
X325958Y374731D01*
X323452Y373284D01*
X321406Y371238D01*
X319959Y368732D01*
X319210Y365937D01*
Y363043D01*
X319959Y360248D01*
X321406Y357742D01*
X323452Y355696D01*
X325958Y354249D01*
X328753Y353500D01*
X331647D01*
X334442Y354249D01*
X336948Y355696D01*
X338994Y357742D01*
X340441Y360248D01*
X341190Y363043D01*
Y365937D01*
X340441Y368732D01*
X338994Y371238D01*
X336948Y373284D01*
X334442Y374731D01*
X331647Y375480D01*
D02*
G37*
G36*
X685700Y389320D02*
X668120D01*
Y371740D01*
X671755D01*
Y358427D01*
X670243Y357554D01*
X668606Y355917D01*
X667449Y353913D01*
X666850Y351677D01*
Y349363D01*
X667449Y347127D01*
X668606Y345123D01*
X670243Y343486D01*
X672247Y342329D01*
X674483Y341730D01*
X676797D01*
X679033Y342329D01*
X681037Y343486D01*
X682674Y345123D01*
X683831Y347127D01*
X684430Y349363D01*
Y351677D01*
X683831Y353913D01*
X682674Y355917D01*
X681037Y357554D01*
X679525Y358427D01*
Y371740D01*
X685700D01*
Y389320D01*
D02*
G37*
G36*
X408893Y355916D02*
X406447D01*
X404084Y355283D01*
X401966Y354060D01*
X400236Y352330D01*
X399013Y350212D01*
X398380Y347849D01*
Y345403D01*
X399013Y343040D01*
X400236Y340922D01*
X401966Y339192D01*
X404084Y337969D01*
X406447Y337336D01*
X408893D01*
X411256Y337969D01*
X413374Y339192D01*
X415104Y340922D01*
X416327Y343040D01*
X416960Y345403D01*
Y347849D01*
X416327Y350212D01*
X415104Y352330D01*
X413374Y354060D01*
X411256Y355283D01*
X408893Y355916D01*
D02*
G37*
G36*
X383493D02*
X381047D01*
X378684Y355283D01*
X376566Y354060D01*
X374836Y352330D01*
X373613Y350212D01*
X372980Y347849D01*
Y345403D01*
X373613Y343040D01*
X374836Y340922D01*
X376566Y339192D01*
X378684Y337969D01*
X381047Y337336D01*
X383493D01*
X385856Y337969D01*
X387974Y339192D01*
X389704Y340922D01*
X390927Y343040D01*
X391560Y345403D01*
Y347849D01*
X390927Y350212D01*
X389704Y352330D01*
X387974Y354060D01*
X385856Y355283D01*
X383493Y355916D01*
D02*
G37*
G36*
X936693Y338665D02*
X930402D01*
Y333034D01*
X936693D01*
Y338665D01*
D02*
G37*
G36*
X927862D02*
X921571D01*
Y333034D01*
X927862D01*
Y338665D01*
D02*
G37*
G36*
X331647Y350080D02*
X328753D01*
X325958Y349331D01*
X323452Y347884D01*
X321406Y345838D01*
X319959Y343332D01*
X319210Y340537D01*
Y337643D01*
X319959Y334848D01*
X321406Y332342D01*
X323452Y330296D01*
X325958Y328849D01*
X328753Y328100D01*
X331647D01*
X334442Y328849D01*
X336948Y330296D01*
X338994Y332342D01*
X340441Y334848D01*
X341190Y337643D01*
Y340537D01*
X340441Y343332D01*
X338994Y345838D01*
X336948Y347884D01*
X334442Y349331D01*
X331647Y350080D01*
D02*
G37*
G36*
X903224Y335155D02*
Y327406D01*
X910973D01*
X910378Y329625D01*
X909188Y331687D01*
X907505Y333370D01*
X905443Y334560D01*
X903224Y335155D01*
D02*
G37*
G36*
X900684D02*
X898465Y334560D01*
X896403Y333370D01*
X894720Y331687D01*
X893530Y329625D01*
X892935Y327406D01*
X900684D01*
Y335155D01*
D02*
G37*
G36*
X446165Y338266D02*
X443851D01*
X441615Y337667D01*
X439611Y336510D01*
X437974Y334873D01*
X436817Y332869D01*
X436218Y330633D01*
Y328319D01*
X436817Y326083D01*
X437974Y324079D01*
X439611Y322442D01*
X441615Y321285D01*
X443851Y320686D01*
X446165D01*
X448401Y321285D01*
X450405Y322442D01*
X452042Y324079D01*
X453199Y326083D01*
X453798Y328319D01*
Y330633D01*
X453199Y332869D01*
X452042Y334873D01*
X450405Y336510D01*
X448401Y337667D01*
X446165Y338266D01*
D02*
G37*
G36*
X824380Y313840D02*
X816610D01*
Y306070D01*
X824380D01*
Y313840D01*
D02*
G37*
G36*
X814070D02*
X806300D01*
Y306070D01*
X814070D01*
Y313840D01*
D02*
G37*
G36*
X331647Y324680D02*
X328753D01*
X325958Y323931D01*
X323452Y322484D01*
X321406Y320438D01*
X319959Y317932D01*
X319210Y315137D01*
Y312243D01*
X319959Y309448D01*
X321406Y306942D01*
X323452Y304896D01*
X325958Y303449D01*
X328753Y302700D01*
X331647D01*
X334442Y303449D01*
X336948Y304896D01*
X338994Y306942D01*
X340441Y309448D01*
X341190Y312243D01*
Y315137D01*
X340441Y317932D01*
X338994Y320438D01*
X336948Y322484D01*
X334442Y323931D01*
X331647Y324680D01*
D02*
G37*
G36*
X684430Y308510D02*
X676910D01*
Y300990D01*
X684430D01*
Y308510D01*
D02*
G37*
G36*
X674370D02*
X666850D01*
Y300990D01*
X674370D01*
Y308510D01*
D02*
G37*
G36*
X824380Y303530D02*
X816610D01*
Y295760D01*
X824380D01*
Y303530D01*
D02*
G37*
G36*
X814070D02*
X806300D01*
Y295760D01*
X814070D01*
Y303530D01*
D02*
G37*
G36*
X684430Y298450D02*
X676910D01*
Y290930D01*
X684430D01*
Y298450D01*
D02*
G37*
G36*
X674370D02*
X666850D01*
Y290930D01*
X674370D01*
Y298450D01*
D02*
G37*
G36*
X995685Y327374D02*
X994379D01*
X992576Y327137D01*
X990895Y326441D01*
X989452Y325333D01*
X988344Y323890D01*
X987648Y322210D01*
X987411Y320406D01*
Y297322D01*
X987648Y295518D01*
X988344Y293838D01*
X989452Y292395D01*
X990895Y291287D01*
X992576Y290591D01*
X994379Y290354D01*
X995685D01*
X997488Y290591D01*
X999169Y291287D01*
X1000612Y292395D01*
X1001720Y293838D01*
X1002416Y295518D01*
X1002653Y297322D01*
Y320406D01*
X1002416Y322210D01*
X1001720Y323890D01*
X1000612Y325333D01*
X999169Y326441D01*
X997488Y327137D01*
X995685Y327374D01*
D02*
G37*
G36*
X898652Y296293D02*
X896433Y295698D01*
X894371Y294508D01*
X892688Y292825D01*
X891498Y290763D01*
X890903Y288544D01*
X898652D01*
Y296293D01*
D02*
G37*
%LPD*%
G36*
X766253Y330178D02*
X765767Y329005D01*
X658173D01*
X657561Y330032D01*
X658187Y331295D01*
X765135D01*
X766253Y330178D01*
D02*
G37*
G36*
X811949Y354747D02*
X813209Y353905D01*
X814696Y353609D01*
X814985D01*
X818021Y350573D01*
X817535Y349400D01*
X816610D01*
Y340360D01*
Y331320D01*
X817535D01*
X818021Y330147D01*
X811301Y323426D01*
X804682D01*
X803195Y323131D01*
X801935Y322289D01*
X792988Y313342D01*
X791130Y313840D01*
X788750D01*
X786892Y313342D01*
X775242Y324992D01*
X775728Y326165D01*
X794211D01*
X795697Y326461D01*
X796957Y327303D01*
X802997Y333343D01*
X803839Y334603D01*
X804135Y336090D01*
Y353724D01*
X803839Y355211D01*
X802997Y356471D01*
X798268Y361200D01*
X798261Y361579D01*
X799374Y362740D01*
X799576Y362740D01*
X803956D01*
X811949Y354747D01*
D02*
G37*
%LPC*%
G36*
X814070Y349400D02*
X806300D01*
Y341630D01*
X814070D01*
Y349400D01*
D02*
G37*
G36*
Y339090D02*
X806300D01*
Y331320D01*
X814070D01*
Y339090D01*
D02*
G37*
%LPD*%
D14*
X897887Y454403D02*
X949704D01*
X882650Y439166D02*
X897887Y454403D01*
X949704D02*
X1051052Y555752D01*
X1084834D01*
X1179400Y607678D02*
Y654530D01*
Y607678D02*
X1194308Y592770D01*
X1150366Y547370D02*
X1188908D01*
X1194308Y552770D01*
X1125978Y555752D02*
X1162996Y592770D01*
X1194308D01*
X1084834Y555752D02*
X1125978D01*
X881888Y438404D02*
X882650Y439166D01*
X930263Y423811D02*
X942086Y411988D01*
X930263Y423811D02*
Y439166D01*
X874522Y287274D02*
X886562Y275234D01*
X904909D01*
X916430Y286755D02*
Y296823D01*
X904909Y275234D02*
X916430Y286755D01*
Y296823D02*
X928471Y308864D01*
X929132D01*
X700993Y703441D02*
X716534D01*
X693742Y710692D02*
X700993Y703441D01*
X692912Y710692D02*
X693742D01*
X730042Y692680D02*
X820510D01*
X719281Y703441D02*
X730042Y692680D01*
X716534Y703441D02*
X719281D01*
X932180Y289088D02*
Y290576D01*
X929132Y285964D02*
Y286040D01*
X932180Y289088D01*
Y290576D02*
X939694Y298090D01*
Y312965D01*
X911610Y318765D02*
X933894D01*
X906941Y314096D02*
X911610Y318765D01*
X886000Y316690D02*
X894373D01*
X896967Y314096D01*
X933894Y318765D02*
X939694Y312965D01*
X876554Y326136D02*
X886000Y316690D01*
X896967Y314096D02*
X906941D01*
X876554Y326136D02*
X881888Y331470D01*
Y387604D01*
X897504Y371988D02*
X942086D01*
X881888Y387604D02*
X897504Y371988D01*
X882650Y439166D02*
X930263D01*
D16*
X292700Y920000D02*
X306010Y933310D01*
X473990D01*
X487300Y920000D01*
X512700D02*
X597300D01*
X622700D02*
X636010Y933310D01*
X745991D01*
X759301Y920000D01*
X817300D01*
X842700D02*
X927300D01*
X952700D02*
X966010Y933310D01*
X1133990D01*
X1147300Y920000D01*
X1172700Y861170D02*
Y920000D01*
X1180000Y850000D02*
Y853870D01*
X1172700Y861170D02*
X1180000Y853870D01*
X1151328Y893592D02*
X1156408Y888512D01*
X1137980Y867980D02*
X1156408Y886408D01*
X377300Y920000D02*
X403708Y893592D01*
X1151328D01*
X1156408Y886408D02*
Y888512D01*
X416010Y906690D02*
X628213D01*
X402700Y920000D02*
X416010Y906690D01*
X1137980Y857980D02*
Y867980D01*
X1130000Y850000D02*
X1137980Y857980D01*
X1158512Y898672D02*
X1165080Y892104D01*
Y860080D02*
Y892104D01*
X1155000Y850000D02*
X1165080Y860080D01*
X1085000Y920000D02*
X1106328Y898672D01*
X1155000Y850000D02*
Y850000D01*
X1106328Y898672D02*
X1158512D01*
X1062700Y920000D02*
X1085000D01*
X746010Y906690D02*
X1023990D01*
X732700Y920000D02*
X746010Y906690D01*
X628213D02*
X641523Y920000D01*
X707300D01*
X1023990Y906690D02*
X1037300Y920000D01*
X762000Y533400D02*
X771392Y524008D01*
X762000Y533400D02*
Y577491D01*
X771392Y524008D02*
X831310D01*
X839400Y532098D01*
X738230Y601261D02*
X762000Y577491D01*
X711200Y538086D02*
X723587Y550473D01*
X711200Y496475D02*
X737775Y469900D01*
X711200Y496475D02*
Y538086D01*
X737775Y469900D02*
X940018D01*
X1039177Y569059D01*
X394398Y774700D02*
X804542D01*
X997088Y784090D02*
X1004320Y776858D01*
X813932Y784090D02*
X997088D01*
X804542Y774700D02*
X813932Y784090D01*
X368300Y748602D02*
X394398Y774700D01*
X1004320Y699302D02*
Y776858D01*
X290576Y313436D02*
X324612Y279400D01*
X560324D01*
X616104Y335180D01*
X290576Y313436D02*
Y519176D01*
X304800Y466090D02*
X330200Y440690D01*
X304800Y499618D02*
X368300Y563118D01*
X304800Y466090D02*
Y499618D01*
X368300Y563118D02*
Y748602D01*
X723587Y550473D02*
Y586351D01*
X659818Y650120D02*
X723587Y586351D01*
X676910Y480530D02*
X732160Y425280D01*
X768255D01*
X722982Y522728D02*
X755490Y490220D01*
X722982Y522728D02*
Y529098D01*
X720459Y531622D02*
X722982Y529098D01*
X962660Y653092D02*
X964148Y654580D01*
X990510D01*
X962660Y652272D02*
Y653092D01*
X839400Y541208D02*
X842282Y544090D01*
X839400Y532098D02*
Y541208D01*
X842282Y544090D02*
X968738D01*
X972548Y540280D02*
X990510D01*
X968738Y544090D02*
X972548Y540280D01*
X1016618Y674624D02*
X1025034D01*
X1009274Y667280D02*
X1016618Y674624D01*
X990510Y667280D02*
X1009274D01*
X990510D02*
X991548Y666242D01*
X1027968Y677557D02*
X1044448D01*
X1025034Y674624D02*
X1027968Y677557D01*
X1018077Y684784D02*
X1020826D01*
X990510Y679980D02*
X1013273D01*
X1018077Y684784D01*
X1000928Y645110D02*
X1020282Y664464D01*
X1020826D01*
X993740Y695910D02*
X1000928D01*
X1004320Y699302D01*
X1041701Y661023D02*
X1044448D01*
X1039177Y658499D02*
X1041701Y661023D01*
X1039177Y569059D02*
Y658499D01*
X877160Y648730D02*
X895510D01*
X877160Y630380D02*
X895510D01*
X616104Y335180D02*
X766744D01*
X771874Y330050D01*
X794211D01*
X1080977Y774331D02*
X1109423D01*
X1088581Y735933D02*
Y766728D01*
X1078230Y774331D02*
X1080977D01*
X1088581Y766728D01*
X1086100Y733452D02*
X1088581Y735933D01*
X1086100Y693928D02*
Y733452D01*
X1109423Y774331D02*
X1122426Y787334D01*
X1086100Y643128D02*
X1122426Y679454D01*
Y747334D01*
X993740Y645110D02*
X1000928D01*
X580510Y650120D02*
X659818D01*
X783230Y552070D02*
Y631570D01*
X929132Y285964D02*
X929793D01*
X814696Y357494D02*
X816594D01*
X825650Y348438D01*
X803910Y368280D02*
X814696Y357494D01*
X480410Y521620D02*
X541020Y461010D01*
X480410Y521620D02*
Y581688D01*
X445008Y617090D02*
X480410Y581688D01*
X990510Y692680D02*
X993740Y695910D01*
X290576Y519176D02*
X326390Y554990D01*
X641200Y487391D02*
Y564030D01*
X617220Y588010D02*
X641200Y564030D01*
X736993Y550833D02*
X738230Y552070D01*
X736993Y531622D02*
Y550833D01*
X778000Y743454D02*
X783230Y748684D01*
X776750Y743454D02*
X778000D01*
X753271Y719975D02*
X776750Y743454D01*
X783230Y748684D02*
Y749934D01*
X716534Y719975D02*
X753271D01*
X783230Y670434D02*
X795864D01*
X805410Y679980D01*
X820510D01*
X738230Y601261D02*
Y631570D01*
X541020Y689610D02*
X580510Y650120D01*
X789940Y340360D02*
Y356850D01*
X791210Y372280D02*
X792504Y370986D01*
Y361470D02*
Y370986D01*
Y361470D02*
X800250Y353724D01*
X794211Y330050D02*
X800250Y336090D01*
X789940Y304800D02*
X804682Y319542D01*
X800250Y336090D02*
Y353724D01*
X803910Y368280D02*
Y372280D01*
X804682Y319542D02*
X812910D01*
X815340Y340360D02*
X816610Y341630D01*
X778510Y368280D02*
Y372280D01*
X675640Y350520D02*
Y379260D01*
X778510Y368280D02*
X789940Y356850D01*
X675640Y379260D02*
X676910Y380530D01*
X641200Y487391D02*
X723253Y405337D01*
Y399842D02*
Y402590D01*
Y405337D01*
Y399842D02*
X750815Y372280D01*
X739787Y402590D02*
Y405337D01*
X742311Y407861D01*
X750836D01*
X768255Y425280D01*
X750815Y372280D02*
X778510D01*
X768255Y425280D02*
X778510D01*
X650240Y325120D02*
X769620D01*
X789940Y304800D01*
X515770Y612902D02*
Y645772D01*
X486156Y675386D02*
X515770Y645772D01*
X516267Y712954D02*
X518323Y715010D01*
X499733Y710207D02*
Y712954D01*
X486156Y696630D02*
X499733Y710207D01*
X486156Y675386D02*
Y696630D01*
X516267Y712954D02*
X538964D01*
X541020Y715010D01*
X326390Y554990D02*
X330200D01*
X825650Y332282D02*
Y348438D01*
X812910Y319542D02*
X825650Y332282D01*
X990510Y641880D02*
X993740Y645110D01*
D18*
X1194308Y552770D02*
D03*
Y592770D02*
D03*
X1122426Y747334D02*
D03*
Y787334D02*
D03*
X942086Y371988D02*
D03*
Y411988D02*
D03*
X1084834Y555752D02*
D03*
X1086100Y693928D02*
D03*
X881888Y438404D02*
D03*
D19*
X1161427Y592836D02*
D03*
X1144893D02*
D03*
X739787Y402590D02*
D03*
X723253D02*
D03*
X736993Y531622D02*
D03*
X720459D02*
D03*
X499733Y712954D02*
D03*
X516267D02*
D03*
X930263Y439166D02*
D03*
X946797D02*
D03*
D20*
X1078230Y774331D02*
D03*
Y757797D02*
D03*
X1044448Y677557D02*
D03*
Y661023D02*
D03*
X716534Y703441D02*
D03*
Y719975D02*
D03*
D21*
X913860Y612030D02*
D03*
X895510D02*
D03*
X877160D02*
D03*
X913860Y630380D02*
D03*
X895510D02*
D03*
X877160D02*
D03*
X913860Y648730D02*
D03*
X895510D02*
D03*
X877160D02*
D03*
D22*
X962660Y530280D02*
D03*
X949960D02*
D03*
X937260D02*
D03*
X924560D02*
D03*
X911860D02*
D03*
X899160D02*
D03*
X886460D02*
D03*
X873760D02*
D03*
X861060D02*
D03*
X848360D02*
D03*
D23*
X990510Y705380D02*
D03*
Y692680D02*
D03*
Y679980D02*
D03*
Y667280D02*
D03*
Y654580D02*
D03*
Y641880D02*
D03*
Y629180D02*
D03*
Y616480D02*
D03*
Y603780D02*
D03*
Y591080D02*
D03*
Y578380D02*
D03*
Y565680D02*
D03*
Y552980D02*
D03*
Y540280D02*
D03*
X820510D02*
D03*
Y552980D02*
D03*
Y565680D02*
D03*
Y578380D02*
D03*
Y591080D02*
D03*
Y603780D02*
D03*
Y616480D02*
D03*
Y629180D02*
D03*
Y641880D02*
D03*
Y654580D02*
D03*
Y667280D02*
D03*
Y679980D02*
D03*
Y692680D02*
D03*
Y705380D02*
D03*
D24*
X738230Y552070D02*
D03*
X783230D02*
D03*
X738230Y631570D02*
D03*
X783230D02*
D03*
X783230Y749934D02*
D03*
X738230D02*
D03*
X783230Y670434D02*
D03*
X738230D02*
D03*
D25*
X778510Y372280D02*
D03*
X791210D02*
D03*
X803910D02*
D03*
X816610D02*
D03*
Y425280D02*
D03*
X803910D02*
D03*
X791210D02*
D03*
X778510D02*
D03*
D26*
X995032Y308864D02*
D03*
D27*
X929132Y285964D02*
D03*
Y308864D02*
D03*
D28*
Y331764D02*
D03*
D31*
X330200Y732790D02*
D03*
Y491490D02*
D03*
D32*
Y707390D02*
D03*
Y681990D02*
D03*
Y656590D02*
D03*
Y631190D02*
D03*
Y605790D02*
D03*
Y580390D02*
D03*
Y554990D02*
D03*
Y466090D02*
D03*
Y440690D02*
D03*
Y415290D02*
D03*
Y389890D02*
D03*
Y364490D02*
D03*
Y339090D02*
D03*
Y313690D02*
D03*
D33*
X1180000Y850000D02*
D03*
X1155000D02*
D03*
D34*
X1130000D02*
D03*
D35*
X732700Y920000D02*
D03*
X842700D02*
D03*
X1172700D02*
D03*
X1062700D02*
D03*
X952700D02*
D03*
X402700D02*
D03*
X622700D02*
D03*
X512700D02*
D03*
X292700D02*
D03*
D36*
X707300D02*
D03*
X817300D02*
D03*
X1147300D02*
D03*
X1037300D02*
D03*
X927300D02*
D03*
X377300D02*
D03*
X597300D02*
D03*
X487300D02*
D03*
X267300D02*
D03*
D37*
X1084834Y504952D02*
D03*
Y530352D02*
D03*
X1086100Y643128D02*
D03*
Y668528D02*
D03*
X881888Y387604D02*
D03*
Y413004D02*
D03*
D42*
X1042416Y490474D02*
D03*
X1181608Y491236D02*
D03*
X1179400Y654530D02*
D03*
Y674530D02*
D03*
Y694530D02*
D03*
X515770Y612902D02*
D03*
X651510Y523240D02*
D03*
X789940Y340360D02*
D03*
Y304800D02*
D03*
X901954Y326136D02*
D03*
X899922Y287274D02*
D03*
D43*
X1179400Y714530D02*
D03*
X651510Y548640D02*
D03*
D44*
X407670Y346626D02*
D03*
X382270D02*
D03*
Y422826D02*
D03*
X407670Y482108D02*
D03*
X382270D02*
D03*
Y558308D02*
D03*
X407670Y617590D02*
D03*
X382270D02*
D03*
Y693790D02*
D03*
D45*
X407670Y422826D02*
D03*
Y558308D02*
D03*
Y693790D02*
D03*
D46*
X445008Y473283D02*
D03*
Y329476D02*
D03*
Y617090D02*
D03*
X693928Y583730D02*
D03*
X675640Y350520D02*
D03*
X650240Y325120D02*
D03*
X676910Y480530D02*
D03*
X658876Y684746D02*
D03*
D47*
X445008Y573283D02*
D03*
Y429476D02*
D03*
Y717090D02*
D03*
X693928Y683730D02*
D03*
X675640Y299720D02*
D03*
X676910Y380530D02*
D03*
X658876Y584746D02*
D03*
D48*
X515220Y419100D02*
D03*
X494030Y523510D02*
D03*
X515220Y572770D02*
D03*
X755490Y490220D02*
D03*
D49*
X490220Y419100D02*
D03*
Y572770D02*
D03*
X735490Y490220D02*
D03*
D59*
X1017016Y490474D02*
D03*
X1156208Y491236D02*
D03*
X490370Y612902D02*
D03*
X815340Y340360D02*
D03*
Y304800D02*
D03*
X876554Y326136D02*
D03*
X874522Y287274D02*
D03*
D60*
X1150366Y534670D02*
D03*
Y547370D02*
D03*
D61*
Y560070D02*
D03*
D62*
X494030Y474710D02*
D03*
D63*
X617220Y384810D02*
D03*
Y410210D02*
D03*
Y435610D02*
D03*
Y461010D02*
D03*
Y486410D02*
D03*
Y511810D02*
D03*
Y537210D02*
D03*
Y562610D02*
D03*
Y588010D02*
D03*
Y613410D02*
D03*
Y638810D02*
D03*
Y664210D02*
D03*
Y689610D02*
D03*
Y715010D02*
D03*
X541020Y384810D02*
D03*
Y410210D02*
D03*
Y435610D02*
D03*
Y461010D02*
D03*
Y486410D02*
D03*
Y511810D02*
D03*
Y537210D02*
D03*
Y562610D02*
D03*
Y588010D02*
D03*
Y613410D02*
D03*
Y638810D02*
D03*
Y664210D02*
D03*
Y689610D02*
D03*
D64*
Y715010D02*
D03*
D65*
X962660Y652272D02*
D03*
X1020826Y684784D02*
D03*
Y664464D02*
D03*
X692912Y710692D02*
D03*
D66*
X1168400Y279400D02*
D03*
Y787400D02*
D03*
X279400D02*
D03*
Y279400D02*
D03*
M02*
