G04*
G04 #@! TF.GenerationSoftware,Altium Limited,Altium Designer,24.2.2 (26)*
G04*
G04 Layer_Color=32896*
%FSLAX44Y44*%
%MOMM*%
G71*
G04*
G04 #@! TF.SameCoordinates,EEC84D6A-0AE8-4C3C-B58C-44986A5593EB*
G04*
G04*
G04 #@! TF.FilePolarity,Positive*
G04*
G01*
G75*
%ADD16C,0.2540*%
D16*
X1165860Y728975D02*
Y718818D01*
X1160782Y713740D01*
X1155703Y718818D01*
Y728975D01*
X1140468Y713740D02*
X1150625D01*
X1140468Y723897D01*
Y726436D01*
X1143007Y728975D01*
X1148086D01*
X1150625Y726436D01*
X1165860Y703575D02*
Y693418D01*
X1160782Y688340D01*
X1155703Y693418D01*
Y703575D01*
X1150625Y688340D02*
X1145547D01*
X1148086D01*
Y703575D01*
X1150625Y701036D01*
X1155703Y675636D02*
X1158242Y678175D01*
X1163321D01*
X1165860Y675636D01*
Y673097D01*
X1163321Y670557D01*
X1158242D01*
X1155703Y668018D01*
Y665479D01*
X1158242Y662940D01*
X1163321D01*
X1165860Y665479D01*
X1150625Y662940D02*
Y678175D01*
X1143007D01*
X1140468Y675636D01*
Y670557D01*
X1143007Y668018D01*
X1150625D01*
X1125233Y662940D02*
X1135390D01*
X1125233Y673097D01*
Y675636D01*
X1127772Y678175D01*
X1132851D01*
X1135390Y675636D01*
X1157303Y655236D02*
X1159843Y657775D01*
X1164921D01*
X1167460Y655236D01*
Y652697D01*
X1164921Y650157D01*
X1159843D01*
X1157303Y647618D01*
Y645079D01*
X1159843Y642540D01*
X1164921D01*
X1167460Y645079D01*
X1152225Y642540D02*
Y657775D01*
X1144607D01*
X1142068Y655236D01*
Y650157D01*
X1144607Y647618D01*
X1152225D01*
X1136990Y642540D02*
X1131911D01*
X1134451D01*
Y657775D01*
X1136990Y655236D01*
X314960Y449575D02*
X304803D01*
X309882D01*
Y434340D01*
X297186D02*
X292107D01*
X289568Y436879D01*
Y441958D01*
X292107Y444497D01*
X297186D01*
X299725Y441958D01*
Y436879D01*
X297186Y434340D01*
X274333Y447036D02*
X276872Y449575D01*
X281951D01*
X284490Y447036D01*
Y444497D01*
X281951Y441958D01*
X276872D01*
X274333Y439418D01*
Y436879D01*
X276872Y434340D01*
X281951D01*
X284490Y436879D01*
X397303Y377775D02*
X407460D01*
Y370158D01*
X402382Y372697D01*
X399842D01*
X397303Y370158D01*
Y365079D01*
X399842Y362540D01*
X404921D01*
X407460Y365079D01*
X392225Y372697D02*
X387147Y362540D01*
X382068Y372697D01*
X376990Y362540D02*
Y377775D01*
X369372D01*
X366833Y375236D01*
Y370158D01*
X369372Y367618D01*
X376990D01*
X351598Y375236D02*
X354137Y377775D01*
X359216D01*
X361755Y375236D01*
Y372697D01*
X359216Y370158D01*
X354137D01*
X351598Y367618D01*
Y365079D01*
X354137Y362540D01*
X359216D01*
X361755Y365079D01*
X346520Y362540D02*
X341441D01*
X343980D01*
Y377775D01*
X346520D01*
X416560Y314958D02*
X406403D01*
X411482Y320036D02*
Y309879D01*
X401325Y320036D02*
X398786Y322575D01*
X393707D01*
X391168Y320036D01*
Y317497D01*
X393707Y314958D01*
X396247D01*
X393707D01*
X391168Y312418D01*
Y309879D01*
X393707Y307340D01*
X398786D01*
X401325Y309879D01*
X386090Y307340D02*
Y309879D01*
X383551D01*
Y307340D01*
X386090D01*
X373394Y320036D02*
X370855Y322575D01*
X365776D01*
X363237Y320036D01*
Y317497D01*
X365776Y314958D01*
X368316D01*
X365776D01*
X363237Y312418D01*
Y309879D01*
X365776Y307340D01*
X370855D01*
X373394Y309879D01*
X358159Y317497D02*
X353080Y307340D01*
X348002Y317497D01*
X317460Y340158D02*
X307303D01*
X312382Y345236D02*
Y335079D01*
X292068Y347775D02*
X302225D01*
Y340158D01*
X297147Y342697D01*
X294607D01*
X292068Y340158D01*
Y335079D01*
X294607Y332540D01*
X299686D01*
X302225Y335079D01*
X286990Y347775D02*
Y337618D01*
X281912Y332540D01*
X276833Y337618D01*
Y347775D01*
X307303Y395236D02*
X309842Y397775D01*
X314921D01*
X317460Y395236D01*
Y385079D01*
X314921Y382540D01*
X309842D01*
X307303Y385079D01*
Y390158D01*
X312382D01*
X302225Y382540D02*
Y397775D01*
X292068Y382540D01*
Y397775D01*
X286990D02*
Y382540D01*
X279372D01*
X276833Y385079D01*
Y395236D01*
X279372Y397775D01*
X286990D01*
X307303Y425236D02*
X309842Y427775D01*
X314921D01*
X317460Y425236D01*
Y415079D01*
X314921Y412540D01*
X309842D01*
X307303Y415079D01*
Y420158D01*
X312382D01*
X302225Y412540D02*
Y427775D01*
X292068Y412540D01*
Y427775D01*
X286990D02*
Y412540D01*
X279372D01*
X276833Y415079D01*
Y425236D01*
X279372Y427775D01*
X286990D01*
X314960Y563875D02*
X309882D01*
X312421D01*
Y548640D01*
X314960D01*
X309882D01*
X302264D02*
Y563875D01*
X294647D01*
X292107Y561336D01*
Y556258D01*
X294647Y553718D01*
X302264D01*
X297186D02*
X292107Y548640D01*
X314960Y474975D02*
X309882D01*
X312421D01*
Y459740D01*
X314960D01*
X309882D01*
X302264D02*
Y474975D01*
X294647D01*
X292107Y472436D01*
Y467357D01*
X294647Y464818D01*
X302264D01*
X297186D02*
X292107Y459740D01*
X287029D02*
Y474975D01*
X279412D01*
X276872Y472436D01*
Y467357D01*
X279412Y464818D01*
X287029D01*
X314960Y500375D02*
Y485140D01*
X304803D01*
X289568Y497836D02*
X292107Y500375D01*
X297186D01*
X299725Y497836D01*
Y487679D01*
X297186Y485140D01*
X292107D01*
X289568Y487679D01*
X284490Y485140D02*
Y500375D01*
X276872D01*
X274333Y497836D01*
Y492757D01*
X276872Y490218D01*
X284490D01*
X314960Y589275D02*
Y574040D01*
X307342D01*
X304803Y576579D01*
Y586736D01*
X307342Y589275D01*
X314960D01*
X299725D02*
Y574040D01*
Y581657D01*
X289568D01*
Y589275D01*
Y574040D01*
X284490Y589275D02*
X274333D01*
X279412D01*
Y574040D01*
X467360Y746753D02*
Y731518D01*
X459743D01*
X457203Y734057D01*
Y744214D01*
X459743Y746753D01*
X467360D01*
X452125D02*
Y731518D01*
Y739136D01*
X441968D01*
Y746753D01*
Y731518D01*
X436890Y746753D02*
X426733D01*
X431811D01*
Y731518D01*
X421655D02*
X416576D01*
X419116D01*
Y746753D01*
X421655Y744214D01*
X408959Y731518D02*
X403881D01*
X406420D01*
Y746753D01*
X408959Y744214D01*
X381028Y731518D02*
X373410D01*
X370871Y734057D01*
X373410Y736597D01*
X378489D01*
X381028Y739136D01*
X378489Y741675D01*
X370871D01*
X365793Y731518D02*
X360714D01*
X363254D01*
Y741675D01*
X365793D01*
X348019Y726440D02*
X345479D01*
X342940Y728979D01*
Y741675D01*
X350558D01*
X353097Y739136D01*
Y734057D01*
X350558Y731518D01*
X342940D01*
X314960Y690875D02*
Y675640D01*
X304803D01*
X289568Y688336D02*
X292107Y690875D01*
X297186D01*
X299725Y688336D01*
Y678179D01*
X297186Y675640D01*
X292107D01*
X289568Y678179D01*
X274333Y675640D02*
X284490D01*
X274333Y685797D01*
Y688336D01*
X276872Y690875D01*
X281951D01*
X284490Y688336D01*
X314960Y670553D02*
Y655318D01*
X307342D01*
X304803Y657858D01*
Y668014D01*
X307342Y670553D01*
X314960D01*
X299725Y655318D02*
X292107D01*
X289568Y657858D01*
X292107Y660397D01*
X297186D01*
X299725Y662936D01*
X297186Y665475D01*
X289568D01*
X284490Y650240D02*
Y665475D01*
X276872D01*
X274333Y662936D01*
Y657858D01*
X276872Y655318D01*
X284490D01*
X314960Y645153D02*
Y629918D01*
X307342D01*
X304803Y632458D01*
Y642614D01*
X307342Y645153D01*
X314960D01*
X299725Y629918D02*
X292107D01*
X289568Y632458D01*
X292107Y634997D01*
X297186D01*
X299725Y637536D01*
X297186Y640075D01*
X289568D01*
X284490Y624840D02*
Y640075D01*
X276872D01*
X274333Y637536D01*
Y632458D01*
X276872Y629918D01*
X284490D01*
X314960Y716275D02*
Y701040D01*
X304803D01*
X289568Y713736D02*
X292107Y716275D01*
X297186D01*
X299725Y713736D01*
Y703579D01*
X297186Y701040D01*
X292107D01*
X289568Y703579D01*
X284490Y701040D02*
X279412D01*
X281951D01*
Y716275D01*
X284490Y713736D01*
M02*
