G04*
G04 #@! TF.GenerationSoftware,Altium Limited,Altium Designer,24.2.2 (26)*
G04*
G04 Layer_Color=65535*
%FSLAX44Y44*%
%MOMM*%
G71*
G04*
G04 #@! TF.SameCoordinates,FF9118C4-6FED-4B38-AEEA-9CBEA1064A6B*
G04*
G04*
G04 #@! TF.FilePolarity,Positive*
G04*
G01*
G75*
%ADD10C,0.2500*%
%ADD11C,0.3000*%
%ADD12C,0.1500*%
%ADD13C,0.2000*%
%ADD14C,0.6000*%
%ADD15C,0.1000*%
%ADD16C,0.2540*%
%ADD17R,2.6000X0.7778*%
G36*
X1084361Y398496D02*
X1085299D01*
Y398392D01*
X1085820D01*
Y398288D01*
X1086237D01*
Y398184D01*
X1086654D01*
Y398079D01*
X1086967D01*
Y397975D01*
X1087176D01*
Y397871D01*
X1087488D01*
Y397767D01*
X1087697D01*
Y397663D01*
X1087905D01*
Y397558D01*
X1088113D01*
Y397454D01*
X1088322D01*
Y397350D01*
X1088426D01*
Y397246D01*
X1088635D01*
Y397141D01*
X1088739D01*
Y397037D01*
X1088947D01*
Y396933D01*
X1089052D01*
Y396829D01*
X1089156D01*
Y396724D01*
X1089364D01*
Y396620D01*
X1089468D01*
Y396516D01*
X1089573D01*
Y396412D01*
X1089677D01*
Y396307D01*
X1089781D01*
Y396203D01*
X1089885D01*
Y396099D01*
X1089990D01*
Y395995D01*
X1090094D01*
Y395891D01*
X1090198D01*
Y395786D01*
X1090302D01*
Y395682D01*
X1090406D01*
Y395578D01*
X1090511D01*
Y395474D01*
X1090615D01*
Y395369D01*
X1090719D01*
Y395265D01*
X1090823D01*
Y395057D01*
X1090928D01*
Y394953D01*
X1091032D01*
Y394848D01*
X1091136D01*
Y394640D01*
X1091240D01*
Y394536D01*
X1091345D01*
Y394327D01*
X1091449D01*
Y394119D01*
X1091553D01*
Y394015D01*
X1091657D01*
Y393806D01*
X1091761D01*
Y393598D01*
X1091866D01*
Y393389D01*
X1091970D01*
Y393077D01*
X1092074D01*
Y392868D01*
X1092178D01*
Y392555D01*
X1092282D01*
Y392243D01*
X1092387D01*
Y391930D01*
X1092491D01*
Y391617D01*
X1092595D01*
Y391200D01*
X1092699D01*
Y390679D01*
X1092804D01*
Y389950D01*
X1092908D01*
Y386927D01*
X1092804D01*
Y386093D01*
X1092699D01*
Y385676D01*
X1092595D01*
Y385155D01*
X1092491D01*
Y384843D01*
X1092387D01*
Y384530D01*
X1092282D01*
Y384217D01*
X1092178D01*
Y383905D01*
X1092074D01*
Y383696D01*
X1091970D01*
Y383488D01*
X1091866D01*
Y383175D01*
X1091761D01*
Y382967D01*
X1091657D01*
Y382758D01*
X1091553D01*
Y382654D01*
X1091449D01*
Y382445D01*
X1091345D01*
Y382341D01*
X1091240D01*
Y382133D01*
X1091136D01*
Y381924D01*
X1091032D01*
Y381820D01*
X1090928D01*
Y381716D01*
X1090823D01*
Y381507D01*
X1090719D01*
Y381403D01*
X1090615D01*
Y381299D01*
X1090511D01*
Y381091D01*
X1090406D01*
Y380986D01*
X1090302D01*
Y380882D01*
X1090198D01*
Y380778D01*
X1090094D01*
Y380674D01*
X1089990D01*
Y380569D01*
X1089885D01*
Y380361D01*
X1090094D01*
Y380257D01*
X1090198D01*
Y380153D01*
X1090302D01*
Y380048D01*
X1090511D01*
Y379944D01*
X1090719D01*
Y379840D01*
X1090928D01*
Y379736D01*
X1091136D01*
Y379631D01*
X1091345D01*
Y379527D01*
X1091553D01*
Y379423D01*
X1091866D01*
Y379319D01*
X1092178D01*
Y379215D01*
X1092491D01*
Y379110D01*
X1092908D01*
Y379006D01*
X1093637D01*
Y378902D01*
X1095201D01*
Y379006D01*
X1095826D01*
Y379110D01*
X1096243D01*
Y379215D01*
X1096556D01*
Y379319D01*
X1096868D01*
Y379423D01*
X1097077D01*
Y379527D01*
X1097285D01*
Y379631D01*
X1097494D01*
Y379736D01*
X1097598D01*
Y379840D01*
X1097806D01*
Y379944D01*
X1097911D01*
Y380048D01*
X1098015D01*
Y380153D01*
X1098223D01*
Y380257D01*
X1098328D01*
Y380361D01*
X1098432D01*
Y380465D01*
X1098536D01*
Y380569D01*
X1098640D01*
Y380674D01*
X1098745D01*
Y380882D01*
X1098849D01*
Y380986D01*
X1098953D01*
Y381091D01*
X1099057D01*
Y381299D01*
X1099161D01*
Y381403D01*
X1099266D01*
Y381612D01*
X1099370D01*
Y381820D01*
X1099474D01*
Y382029D01*
X1099578D01*
Y382237D01*
X1099683D01*
Y382445D01*
X1099787D01*
Y382758D01*
X1099891D01*
Y383071D01*
X1099995D01*
Y383488D01*
X1100099D01*
Y384113D01*
X1100204D01*
Y384843D01*
X1100308D01*
Y398392D01*
X1101767D01*
Y385676D01*
X1101663D01*
Y384739D01*
X1101559D01*
Y384217D01*
X1101454D01*
Y383696D01*
X1101350D01*
Y383383D01*
X1101246D01*
Y383071D01*
X1101142D01*
Y382758D01*
X1101038D01*
Y382550D01*
X1100933D01*
Y382341D01*
X1100829D01*
Y382029D01*
X1100725D01*
Y381924D01*
X1100621D01*
Y381716D01*
X1100516D01*
Y381507D01*
X1100412D01*
Y381403D01*
X1100308D01*
Y381195D01*
X1100204D01*
Y381091D01*
X1100099D01*
Y380986D01*
X1099995D01*
Y380882D01*
X1099891D01*
Y380778D01*
X1099787D01*
Y380674D01*
X1099683D01*
Y380569D01*
X1099578D01*
Y380465D01*
X1099474D01*
Y380257D01*
X1099370D01*
Y380153D01*
X1099161D01*
Y380048D01*
X1099057D01*
Y379944D01*
X1098953D01*
Y379840D01*
X1098849D01*
Y379736D01*
X1098745D01*
Y379631D01*
X1098536D01*
Y379527D01*
X1098328D01*
Y379423D01*
X1098223D01*
Y379319D01*
X1098015D01*
Y379215D01*
X1097806D01*
Y379110D01*
X1097598D01*
Y379006D01*
X1097390D01*
Y378902D01*
X1097181D01*
Y378798D01*
X1096868D01*
Y378693D01*
X1096660D01*
Y378589D01*
X1096243D01*
Y378485D01*
X1095826D01*
Y378381D01*
X1095305D01*
Y378276D01*
X1094471D01*
Y378172D01*
X1092804D01*
Y378276D01*
X1091866D01*
Y378381D01*
X1091345D01*
Y378485D01*
X1090928D01*
Y378589D01*
X1090615D01*
Y378693D01*
X1090302D01*
Y378798D01*
X1090094D01*
Y378902D01*
X1089885D01*
Y379006D01*
X1089677D01*
Y379110D01*
X1089468D01*
Y379215D01*
X1089260D01*
Y379319D01*
X1089052D01*
Y379423D01*
X1088947D01*
Y379527D01*
X1088739D01*
Y379631D01*
X1088635D01*
Y379527D01*
X1088426D01*
Y379423D01*
X1088218D01*
Y379319D01*
X1088009D01*
Y379215D01*
X1087801D01*
Y379110D01*
X1087697D01*
Y379006D01*
X1087384D01*
Y378902D01*
X1087176D01*
Y378798D01*
X1086863D01*
Y378693D01*
X1086550D01*
Y378589D01*
X1086237D01*
Y378485D01*
X1085716D01*
Y378381D01*
X1085195D01*
Y378276D01*
X1084153D01*
Y378172D01*
X1083006D01*
Y378276D01*
X1082068D01*
Y378381D01*
X1081443D01*
Y378485D01*
X1081026D01*
Y378589D01*
X1080714D01*
Y378693D01*
X1080401D01*
Y378798D01*
X1080192D01*
Y378902D01*
X1079880D01*
Y379006D01*
X1079671D01*
Y379110D01*
X1079463D01*
Y379215D01*
X1079254D01*
Y379319D01*
X1079046D01*
Y379423D01*
X1078837D01*
Y379527D01*
X1078733D01*
Y379631D01*
X1078525D01*
Y379736D01*
X1078420D01*
Y379840D01*
X1078212D01*
Y379944D01*
X1078108D01*
Y380048D01*
X1078004D01*
Y380153D01*
X1077899D01*
Y380257D01*
X1077795D01*
Y380361D01*
X1077587D01*
Y380465D01*
X1077483D01*
Y380569D01*
X1077378D01*
Y380674D01*
X1077274D01*
Y380778D01*
X1077170D01*
Y380882D01*
X1077066D01*
Y380986D01*
X1076961D01*
Y381091D01*
X1076857D01*
Y381299D01*
X1076753D01*
Y381403D01*
X1076649D01*
Y381507D01*
X1076544D01*
Y381612D01*
X1076440D01*
Y381716D01*
X1076336D01*
Y381924D01*
X1076232D01*
Y382029D01*
X1076127D01*
Y382237D01*
X1076023D01*
Y382341D01*
X1075919D01*
Y382550D01*
X1075815D01*
Y382758D01*
X1075711D01*
Y382967D01*
X1075606D01*
Y383175D01*
X1075502D01*
Y383279D01*
X1075398D01*
Y383592D01*
X1075294D01*
Y383800D01*
X1075190D01*
Y384113D01*
X1075085D01*
Y384322D01*
X1074981D01*
Y384634D01*
X1074877D01*
Y384947D01*
X1074773D01*
Y385364D01*
X1074668D01*
Y385885D01*
X1074564D01*
Y386406D01*
X1074460D01*
Y387240D01*
X1074356D01*
Y389533D01*
X1074460D01*
Y390367D01*
X1074564D01*
Y390992D01*
X1074668D01*
Y391513D01*
X1074773D01*
Y391826D01*
X1074877D01*
Y392138D01*
X1074981D01*
Y392451D01*
X1075085D01*
Y392764D01*
X1075190D01*
Y392972D01*
X1075294D01*
Y393285D01*
X1075398D01*
Y393493D01*
X1075502D01*
Y393702D01*
X1075606D01*
Y393910D01*
X1075711D01*
Y394015D01*
X1075815D01*
Y394223D01*
X1075919D01*
Y394431D01*
X1076023D01*
Y394536D01*
X1076127D01*
Y394744D01*
X1076232D01*
Y394848D01*
X1076336D01*
Y395057D01*
X1076440D01*
Y395161D01*
X1076544D01*
Y395265D01*
X1076649D01*
Y395369D01*
X1076753D01*
Y395578D01*
X1076857D01*
Y395682D01*
X1076961D01*
Y395786D01*
X1077066D01*
Y395891D01*
X1077170D01*
Y395995D01*
X1077274D01*
Y396099D01*
X1077378D01*
Y396203D01*
X1077483D01*
Y396307D01*
X1077587D01*
Y396412D01*
X1077795D01*
Y396516D01*
X1077899D01*
Y396620D01*
X1078004D01*
Y396724D01*
X1078108D01*
Y396829D01*
X1078212D01*
Y396933D01*
X1078420D01*
Y397037D01*
X1078525D01*
Y397141D01*
X1078733D01*
Y397246D01*
X1078837D01*
Y397350D01*
X1079046D01*
Y397454D01*
X1079254D01*
Y397558D01*
X1079463D01*
Y397663D01*
X1079671D01*
Y397767D01*
X1079880D01*
Y397871D01*
X1080192D01*
Y397975D01*
X1080401D01*
Y398079D01*
X1080714D01*
Y398184D01*
X1081026D01*
Y398288D01*
X1081443D01*
Y398392D01*
X1082068D01*
Y398496D01*
X1083006D01*
Y398601D01*
X1084361D01*
Y398496D01*
D02*
G37*
G36*
X1045485Y415068D02*
X1046736D01*
Y414964D01*
X1047570D01*
Y414860D01*
X1048195D01*
Y414756D01*
X1048820D01*
Y414651D01*
X1049342D01*
Y414547D01*
X1049758D01*
Y414443D01*
X1050280D01*
Y414339D01*
X1050592D01*
Y414234D01*
X1051009D01*
Y414130D01*
X1051426D01*
Y414026D01*
X1051739D01*
Y413922D01*
X1052051D01*
Y413817D01*
X1052364D01*
Y413713D01*
X1052677D01*
Y413609D01*
X1052989D01*
Y413505D01*
X1053198D01*
Y413400D01*
X1053511D01*
Y413296D01*
X1053719D01*
Y413192D01*
X1054032D01*
Y413088D01*
X1054240D01*
Y412984D01*
X1054553D01*
Y412879D01*
X1054761D01*
Y412775D01*
X1054970D01*
Y412671D01*
X1055178D01*
Y412567D01*
X1055387D01*
Y412463D01*
X1055595D01*
Y412358D01*
X1055804D01*
Y412254D01*
X1056012D01*
Y412150D01*
X1056220D01*
Y412046D01*
X1056429D01*
Y411941D01*
X1056637D01*
Y411837D01*
X1056846D01*
Y411733D01*
X1056950D01*
Y411629D01*
X1057158D01*
Y411525D01*
X1057367D01*
Y411420D01*
X1057575D01*
Y411316D01*
X1057680D01*
Y411212D01*
X1057888D01*
Y411108D01*
X1057992D01*
Y411003D01*
X1058201D01*
Y410899D01*
X1058305D01*
Y410795D01*
X1058513D01*
Y410691D01*
X1058618D01*
Y410587D01*
X1058826D01*
Y410482D01*
X1058930D01*
Y410378D01*
X1059139D01*
Y410274D01*
X1059243D01*
Y410169D01*
X1059451D01*
Y410065D01*
X1059556D01*
Y409961D01*
X1059660D01*
Y409857D01*
X1059868D01*
Y409753D01*
X1059973D01*
Y409648D01*
X1060077D01*
Y409544D01*
X1060285D01*
Y409440D01*
X1060389D01*
Y409336D01*
X1060494D01*
Y409231D01*
X1060598D01*
Y409127D01*
X1060806D01*
Y409023D01*
X1060911D01*
Y408919D01*
X1061015D01*
Y408815D01*
X1061119D01*
Y408710D01*
X1061223D01*
Y408606D01*
X1061328D01*
Y408502D01*
X1061432D01*
Y408398D01*
X1061640D01*
Y408293D01*
X1061744D01*
Y408189D01*
X1061849D01*
Y408085D01*
X1061953D01*
Y407981D01*
X1062057D01*
Y407877D01*
X1062161D01*
Y407772D01*
X1062265D01*
Y407668D01*
X1062370D01*
Y407564D01*
X1062474D01*
Y407460D01*
X1062578D01*
Y407355D01*
X1062682D01*
Y407251D01*
X1062787D01*
Y407147D01*
X1062891D01*
Y407043D01*
X1062995D01*
Y406939D01*
X1063099D01*
Y406834D01*
X1063204D01*
Y406730D01*
X1063308D01*
Y406626D01*
X1063412D01*
Y406522D01*
X1063516D01*
Y406417D01*
X1063621D01*
Y406313D01*
X1063725D01*
Y406105D01*
X1063829D01*
Y406001D01*
X1063933D01*
Y405896D01*
X1064037D01*
Y405792D01*
X1064142D01*
Y405688D01*
X1064246D01*
Y405584D01*
X1064350D01*
Y405375D01*
X1064454D01*
Y405271D01*
X1064558D01*
Y405167D01*
X1064663D01*
Y405062D01*
X1064767D01*
Y404854D01*
X1064871D01*
Y404750D01*
X1064975D01*
Y404646D01*
X1065080D01*
Y404437D01*
X1065184D01*
Y404333D01*
X1065288D01*
Y404229D01*
X1065392D01*
Y404020D01*
X1065497D01*
Y403916D01*
X1065601D01*
Y403708D01*
X1065705D01*
Y403603D01*
X1065809D01*
Y403395D01*
X1065913D01*
Y403291D01*
X1066018D01*
Y403082D01*
X1066122D01*
Y402978D01*
X1066226D01*
Y402770D01*
X1066330D01*
Y402665D01*
X1066434D01*
Y402457D01*
X1066539D01*
Y402353D01*
X1066643D01*
Y402144D01*
X1066747D01*
Y401936D01*
X1066851D01*
Y401727D01*
X1066956D01*
Y401623D01*
X1067060D01*
Y401415D01*
X1067164D01*
Y401206D01*
X1067268D01*
Y400998D01*
X1067373D01*
Y400789D01*
X1067477D01*
Y400581D01*
X1067581D01*
Y400372D01*
X1067685D01*
Y400164D01*
X1067790D01*
Y399955D01*
X1067894D01*
Y399747D01*
X1067998D01*
Y399538D01*
X1068102D01*
Y399330D01*
X1068206D01*
Y399017D01*
X1068311D01*
Y398809D01*
X1068415D01*
Y398496D01*
X1068519D01*
Y398288D01*
X1068623D01*
Y397975D01*
X1068727D01*
Y397767D01*
X1068832D01*
Y397454D01*
X1068936D01*
Y397141D01*
X1069040D01*
Y396829D01*
X1069144D01*
Y396516D01*
X1069249D01*
Y396203D01*
X1069353D01*
Y395786D01*
X1069457D01*
Y395369D01*
X1069561D01*
Y395057D01*
X1069666D01*
Y394536D01*
X1069770D01*
Y394119D01*
X1069874D01*
Y393598D01*
X1069978D01*
Y392972D01*
X1070082D01*
Y392347D01*
X1070187D01*
Y391513D01*
X1070291D01*
Y390262D01*
X1070395D01*
Y386927D01*
X1070291D01*
Y385676D01*
X1070187D01*
Y384843D01*
X1070082D01*
Y384217D01*
X1069978D01*
Y383592D01*
X1069874D01*
Y383071D01*
X1069770D01*
Y382654D01*
X1069666D01*
Y382133D01*
X1069561D01*
Y381820D01*
X1069457D01*
Y381403D01*
X1069353D01*
Y380986D01*
X1069249D01*
Y380674D01*
X1069144D01*
Y380361D01*
X1069040D01*
Y380048D01*
X1068936D01*
Y379736D01*
X1068832D01*
Y379423D01*
X1068727D01*
Y379215D01*
X1068623D01*
Y378902D01*
X1068519D01*
Y378693D01*
X1068415D01*
Y378381D01*
X1068311D01*
Y378172D01*
X1068206D01*
Y377860D01*
X1068102D01*
Y377651D01*
X1067998D01*
Y377443D01*
X1067894D01*
Y377234D01*
X1067790D01*
Y377026D01*
X1067685D01*
Y376817D01*
X1067581D01*
Y376609D01*
X1067477D01*
Y376400D01*
X1067373D01*
Y376192D01*
X1067268D01*
Y375984D01*
X1067164D01*
Y375775D01*
X1067060D01*
Y375567D01*
X1066956D01*
Y375462D01*
X1066851D01*
Y375254D01*
X1066747D01*
Y375046D01*
X1066643D01*
Y374837D01*
X1066539D01*
Y374733D01*
X1066434D01*
Y374524D01*
X1066330D01*
Y374420D01*
X1066226D01*
Y374212D01*
X1066122D01*
Y374107D01*
X1066018D01*
Y373899D01*
X1065913D01*
Y373795D01*
X1065809D01*
Y373586D01*
X1065705D01*
Y373482D01*
X1065601D01*
Y373274D01*
X1065497D01*
Y373169D01*
X1065392D01*
Y372961D01*
X1065288D01*
Y372857D01*
X1065184D01*
Y372752D01*
X1065080D01*
Y372544D01*
X1064975D01*
Y372440D01*
X1064871D01*
Y372336D01*
X1064767D01*
Y372127D01*
X1064663D01*
Y372023D01*
X1064558D01*
Y371919D01*
X1064454D01*
Y371814D01*
X1064350D01*
Y371606D01*
X1064246D01*
Y371502D01*
X1064142D01*
Y371398D01*
X1064037D01*
Y371293D01*
X1063933D01*
Y371189D01*
X1063829D01*
Y371085D01*
X1063725D01*
Y370876D01*
X1063621D01*
Y370772D01*
X1063516D01*
Y370668D01*
X1063412D01*
Y370564D01*
X1063308D01*
Y370460D01*
X1063204D01*
Y370355D01*
X1063099D01*
Y370251D01*
X1062995D01*
Y370147D01*
X1062891D01*
Y370043D01*
X1062787D01*
Y369938D01*
X1062682D01*
Y369834D01*
X1062578D01*
Y369730D01*
X1062474D01*
Y369626D01*
X1062370D01*
Y369521D01*
X1062265D01*
Y369417D01*
X1062161D01*
Y369313D01*
X1062057D01*
Y369209D01*
X1061953D01*
Y369105D01*
X1061849D01*
Y369000D01*
X1061744D01*
Y368896D01*
X1061640D01*
Y368792D01*
X1061432D01*
Y368688D01*
X1061328D01*
Y368583D01*
X1061223D01*
Y368479D01*
X1061119D01*
Y368375D01*
X1061015D01*
Y368271D01*
X1060911D01*
Y368167D01*
X1060806D01*
Y368062D01*
X1060598D01*
Y367958D01*
X1060494D01*
Y367854D01*
X1060389D01*
Y367750D01*
X1060285D01*
Y367645D01*
X1060077D01*
Y367541D01*
X1059973D01*
Y367437D01*
X1059868D01*
Y367333D01*
X1059660D01*
Y367229D01*
X1059556D01*
Y367124D01*
X1059451D01*
Y367020D01*
X1059243D01*
Y366916D01*
X1059139D01*
Y366812D01*
X1058930D01*
Y366707D01*
X1058826D01*
Y366603D01*
X1058618D01*
Y366499D01*
X1058513D01*
Y366395D01*
X1058305D01*
Y366291D01*
X1058201D01*
Y366186D01*
X1057992D01*
Y366082D01*
X1057888D01*
Y365978D01*
X1057680D01*
Y365874D01*
X1057575D01*
Y365769D01*
X1057367D01*
Y365665D01*
X1057158D01*
Y365561D01*
X1056950D01*
Y365457D01*
X1056846D01*
Y365353D01*
X1056637D01*
Y365248D01*
X1056429D01*
Y365144D01*
X1056220D01*
Y365040D01*
X1056012D01*
Y364936D01*
X1055804D01*
Y364831D01*
X1055595D01*
Y364727D01*
X1055387D01*
Y364623D01*
X1055178D01*
Y364519D01*
X1054970D01*
Y364414D01*
X1054761D01*
Y364310D01*
X1054553D01*
Y364206D01*
X1054240D01*
Y364102D01*
X1054032D01*
Y363997D01*
X1053719D01*
Y363893D01*
X1053511D01*
Y363789D01*
X1053198D01*
Y363685D01*
X1052989D01*
Y363581D01*
X1052677D01*
Y363476D01*
X1052364D01*
Y363372D01*
X1052051D01*
Y363268D01*
X1051739D01*
Y363164D01*
X1051426D01*
Y363060D01*
X1051009D01*
Y362955D01*
X1050592D01*
Y362851D01*
X1050280D01*
Y362747D01*
X1049758D01*
Y362643D01*
X1049342D01*
Y362538D01*
X1048820D01*
Y362434D01*
X1048195D01*
Y362330D01*
X1047570D01*
Y362226D01*
X1046736D01*
Y362122D01*
X1045381D01*
Y362017D01*
X1042254D01*
Y362122D01*
X1040899D01*
Y362226D01*
X1040065D01*
Y362330D01*
X1039440D01*
Y362434D01*
X1038815D01*
Y362538D01*
X1038294D01*
Y362643D01*
X1037877D01*
Y362747D01*
X1037356D01*
Y362851D01*
X1037043D01*
Y362955D01*
X1036626D01*
Y363060D01*
X1036209D01*
Y363164D01*
X1035896D01*
Y363268D01*
X1035584D01*
Y363372D01*
X1035271D01*
Y363476D01*
X1034958D01*
Y363581D01*
X1034646D01*
Y363685D01*
X1034437D01*
Y363789D01*
X1034125D01*
Y363893D01*
X1033916D01*
Y363997D01*
X1033603D01*
Y364102D01*
X1033395D01*
Y364206D01*
X1033082D01*
Y364310D01*
X1032874D01*
Y364414D01*
X1032665D01*
Y364519D01*
X1032457D01*
Y364623D01*
X1032249D01*
Y364727D01*
X1032040D01*
Y364831D01*
X1031832D01*
Y364936D01*
X1031623D01*
Y365040D01*
X1031415D01*
Y365144D01*
X1031206D01*
Y365248D01*
X1030998D01*
Y365353D01*
X1030789D01*
Y365457D01*
X1030685D01*
Y365561D01*
X1030477D01*
Y365665D01*
X1030268D01*
Y365769D01*
X1030060D01*
Y365874D01*
X1029956D01*
Y365978D01*
X1029747D01*
Y366082D01*
X1029643D01*
Y366186D01*
X1029434D01*
Y366291D01*
X1029330D01*
Y366395D01*
X1029122D01*
Y366499D01*
X1029017D01*
Y366603D01*
X1028809D01*
Y366707D01*
X1028705D01*
Y366812D01*
X1028496D01*
Y366916D01*
X1028392D01*
Y367020D01*
X1028184D01*
Y367124D01*
X1028080D01*
Y367229D01*
X1027975D01*
Y367333D01*
X1027767D01*
Y367437D01*
X1027663D01*
Y367541D01*
X1027558D01*
Y367645D01*
X1027350D01*
Y367750D01*
X1027246D01*
Y367854D01*
X1027141D01*
Y367958D01*
X1027037D01*
Y368062D01*
X1026829D01*
Y368167D01*
X1026724D01*
Y368271D01*
X1026620D01*
Y368375D01*
X1026516D01*
Y368479D01*
X1026412D01*
Y368583D01*
X1026308D01*
Y368688D01*
X1026203D01*
Y368792D01*
X1025995D01*
Y368896D01*
X1025891D01*
Y369000D01*
X1025787D01*
Y369105D01*
X1025682D01*
Y369209D01*
X1025578D01*
Y369313D01*
X1025474D01*
Y369417D01*
X1025370D01*
Y369521D01*
X1025265D01*
Y369626D01*
X1025161D01*
Y369730D01*
X1025057D01*
Y369834D01*
X1024953D01*
Y369938D01*
X1024848D01*
Y370043D01*
X1024744D01*
Y370147D01*
X1024640D01*
Y370251D01*
X1024536D01*
Y370355D01*
X1024432D01*
Y370460D01*
X1024327D01*
Y370564D01*
X1024223D01*
Y370668D01*
X1024119D01*
Y370772D01*
X1024015D01*
Y370876D01*
X1023910D01*
Y371085D01*
X1023806D01*
Y371189D01*
X1023702D01*
Y371293D01*
X1023598D01*
Y371398D01*
X1023493D01*
Y371502D01*
X1023389D01*
Y371606D01*
X1023285D01*
Y371814D01*
X1023181D01*
Y371919D01*
X1023077D01*
Y372023D01*
X1022972D01*
Y372127D01*
X1022868D01*
Y372336D01*
X1022764D01*
Y372440D01*
X1022660D01*
Y372544D01*
X1022555D01*
Y372752D01*
X1022451D01*
Y372857D01*
X1022347D01*
Y372961D01*
X1022243D01*
Y373169D01*
X1022139D01*
Y373274D01*
X1022034D01*
Y373482D01*
X1021930D01*
Y373586D01*
X1021826D01*
Y373795D01*
X1021722D01*
Y373899D01*
X1021618D01*
Y374107D01*
X1021513D01*
Y374212D01*
X1021409D01*
Y374420D01*
X1021305D01*
Y374524D01*
X1021201D01*
Y374733D01*
X1021096D01*
Y374837D01*
X1020992D01*
Y375046D01*
X1020888D01*
Y375254D01*
X1020784D01*
Y375462D01*
X1020679D01*
Y375567D01*
X1020575D01*
Y375775D01*
X1020471D01*
Y375984D01*
X1020367D01*
Y376192D01*
X1020263D01*
Y376400D01*
X1020158D01*
Y376609D01*
X1020054D01*
Y376817D01*
X1019950D01*
Y377026D01*
X1019846D01*
Y377234D01*
X1019741D01*
Y377443D01*
X1019637D01*
Y377651D01*
X1019533D01*
Y377860D01*
X1019429D01*
Y378172D01*
X1019324D01*
Y378381D01*
X1019220D01*
Y378693D01*
X1019116D01*
Y378902D01*
X1019012D01*
Y379215D01*
X1018908D01*
Y379423D01*
X1018803D01*
Y379736D01*
X1018699D01*
Y380048D01*
X1018595D01*
Y380361D01*
X1018491D01*
Y380674D01*
X1018387D01*
Y380986D01*
X1018282D01*
Y381403D01*
X1018178D01*
Y381820D01*
X1018074D01*
Y382133D01*
X1017970D01*
Y382654D01*
X1017865D01*
Y383071D01*
X1017761D01*
Y383592D01*
X1017657D01*
Y384217D01*
X1017553D01*
Y384843D01*
X1017448D01*
Y384947D01*
Y385676D01*
X1017344D01*
Y386927D01*
X1017240D01*
Y390262D01*
X1017344D01*
Y391513D01*
X1017448D01*
Y392347D01*
X1017553D01*
Y392972D01*
X1017657D01*
Y393598D01*
X1017761D01*
Y394119D01*
X1017865D01*
Y394536D01*
X1017970D01*
Y395057D01*
X1018074D01*
Y395369D01*
X1018178D01*
Y395786D01*
X1018282D01*
Y396203D01*
X1018387D01*
Y396516D01*
X1018491D01*
Y396829D01*
X1018595D01*
Y397141D01*
X1018699D01*
Y397454D01*
X1018803D01*
Y397767D01*
X1018908D01*
Y397975D01*
X1019012D01*
Y398288D01*
X1019116D01*
Y398496D01*
X1019220D01*
Y398809D01*
X1019324D01*
Y399017D01*
X1019429D01*
Y399330D01*
X1019533D01*
Y399538D01*
X1019637D01*
Y399747D01*
X1019741D01*
Y399955D01*
X1019846D01*
Y400164D01*
X1019950D01*
Y400372D01*
X1020054D01*
Y400581D01*
X1020158D01*
Y400789D01*
X1020263D01*
Y400998D01*
X1020367D01*
Y401206D01*
X1020471D01*
Y401415D01*
X1020575D01*
Y401623D01*
X1020679D01*
Y401727D01*
X1020784D01*
Y401936D01*
X1020888D01*
Y402144D01*
X1020992D01*
Y402353D01*
X1021096D01*
Y402457D01*
X1021201D01*
Y402665D01*
X1021305D01*
Y402770D01*
X1021409D01*
Y402978D01*
X1021513D01*
Y403082D01*
X1021618D01*
Y403291D01*
X1021722D01*
Y403395D01*
X1021826D01*
Y403603D01*
X1021930D01*
Y403708D01*
X1022034D01*
Y403916D01*
X1022139D01*
Y404020D01*
X1022243D01*
Y404229D01*
X1022347D01*
Y404333D01*
X1022451D01*
Y404437D01*
X1022555D01*
Y404646D01*
X1022660D01*
Y404750D01*
X1022764D01*
Y404854D01*
X1022868D01*
Y405062D01*
X1022972D01*
Y405167D01*
X1023077D01*
Y405271D01*
X1023181D01*
Y405375D01*
X1023285D01*
Y405584D01*
X1023389D01*
Y405688D01*
X1023493D01*
Y405792D01*
X1023598D01*
Y405896D01*
X1023702D01*
Y406001D01*
X1023806D01*
Y406105D01*
X1023910D01*
Y406313D01*
X1024015D01*
Y406417D01*
X1024119D01*
Y406522D01*
X1024223D01*
Y406626D01*
X1024327D01*
Y406730D01*
X1024432D01*
Y406834D01*
X1024536D01*
Y406939D01*
X1024640D01*
Y407043D01*
X1024744D01*
Y407147D01*
X1024848D01*
Y407251D01*
X1024953D01*
Y407355D01*
X1025057D01*
Y407460D01*
X1025161D01*
Y407564D01*
X1025265D01*
Y407668D01*
X1025370D01*
Y407772D01*
X1025474D01*
Y407877D01*
X1025578D01*
Y407981D01*
X1025682D01*
Y408085D01*
X1025787D01*
Y408189D01*
X1025891D01*
Y408293D01*
X1025995D01*
Y408398D01*
X1026203D01*
Y408502D01*
X1026308D01*
Y408606D01*
X1026412D01*
Y408710D01*
X1026516D01*
Y408815D01*
X1026620D01*
Y408919D01*
X1026724D01*
Y409023D01*
X1026829D01*
Y409127D01*
X1027037D01*
Y409231D01*
X1027141D01*
Y409336D01*
X1027246D01*
Y409440D01*
X1027350D01*
Y409544D01*
X1027558D01*
Y409648D01*
X1027663D01*
Y409753D01*
X1027767D01*
Y409857D01*
X1027975D01*
Y409961D01*
X1028080D01*
Y410065D01*
X1028184D01*
Y410169D01*
X1028392D01*
Y410274D01*
X1028496D01*
Y410378D01*
X1028705D01*
Y410482D01*
X1028809D01*
Y410587D01*
X1029017D01*
Y410691D01*
X1029122D01*
Y410795D01*
X1029330D01*
Y410899D01*
X1029434D01*
Y411003D01*
X1029643D01*
Y411108D01*
X1029747D01*
Y411212D01*
X1029956D01*
Y411316D01*
X1030060D01*
Y411420D01*
X1030268D01*
Y411525D01*
X1030477D01*
Y411629D01*
X1030685D01*
Y411733D01*
X1030789D01*
Y411837D01*
X1030998D01*
Y411941D01*
X1031206D01*
Y412046D01*
X1031415D01*
Y412150D01*
X1031623D01*
Y412254D01*
X1031832D01*
Y412358D01*
X1032040D01*
Y412463D01*
X1032249D01*
Y412567D01*
X1032457D01*
Y412671D01*
X1032665D01*
Y412775D01*
X1032874D01*
Y412879D01*
X1033082D01*
Y412984D01*
X1033395D01*
Y413088D01*
X1033603D01*
Y413192D01*
X1033916D01*
Y413296D01*
X1034125D01*
Y413400D01*
X1034437D01*
Y413505D01*
X1034646D01*
Y413609D01*
X1034958D01*
Y413713D01*
X1035271D01*
Y413817D01*
X1035584D01*
Y413922D01*
X1035896D01*
Y414026D01*
X1036209D01*
Y414130D01*
X1036626D01*
Y414234D01*
X1037043D01*
Y414339D01*
X1037356D01*
Y414443D01*
X1037877D01*
Y414547D01*
X1038294D01*
Y414651D01*
X1038815D01*
Y414756D01*
X1039440D01*
Y414860D01*
X1040065D01*
Y414964D01*
X1040899D01*
Y415068D01*
X1042150D01*
Y415172D01*
X1045485D01*
Y415068D01*
D02*
G37*
G36*
X1131471Y378589D02*
X1133243D01*
Y378068D01*
X1120007D01*
Y397350D01*
X1111668D01*
Y378068D01*
X1110001D01*
Y397350D01*
X1103226D01*
Y397975D01*
X1121674D01*
Y378589D01*
X1131367D01*
X1131471D01*
D02*
G37*
G36*
X1145229Y397663D02*
X1145333D01*
Y397350D01*
X1145438D01*
Y397141D01*
X1145542D01*
Y396829D01*
X1145646D01*
Y396516D01*
X1145750D01*
Y396203D01*
X1145855D01*
Y395891D01*
X1145959D01*
Y395682D01*
X1146063D01*
Y395369D01*
X1146167D01*
Y395057D01*
X1146271D01*
Y394744D01*
X1146376D01*
Y394431D01*
X1146480D01*
Y394223D01*
X1146584D01*
Y393910D01*
X1146688D01*
Y393598D01*
X1146793D01*
Y393285D01*
X1146897D01*
Y392972D01*
X1147001D01*
Y392764D01*
X1147105D01*
Y392451D01*
X1147209D01*
Y392138D01*
X1147314D01*
Y391826D01*
X1147418D01*
Y391617D01*
X1147522D01*
Y391305D01*
X1147626D01*
Y390992D01*
X1147731D01*
Y390679D01*
X1147835D01*
Y390367D01*
X1147939D01*
Y390158D01*
X1148043D01*
Y389846D01*
X1148148D01*
Y389533D01*
X1148252D01*
Y389220D01*
X1148356D01*
Y388908D01*
X1148460D01*
Y388699D01*
X1148564D01*
Y388386D01*
X1148669D01*
Y388074D01*
X1148773D01*
Y387761D01*
X1148877D01*
Y387553D01*
X1148981D01*
Y387240D01*
X1149086D01*
Y386927D01*
X1149190D01*
Y386614D01*
X1149294D01*
Y386302D01*
X1149398D01*
Y386093D01*
X1149502D01*
Y385781D01*
X1149607D01*
Y385468D01*
X1149711D01*
Y385155D01*
X1149815D01*
Y384843D01*
X1149919D01*
Y384634D01*
X1150024D01*
Y384322D01*
X1150128D01*
Y384009D01*
X1150232D01*
Y383696D01*
X1150336D01*
Y383383D01*
X1150441D01*
Y383175D01*
X1150545D01*
Y382862D01*
X1150649D01*
Y382550D01*
X1150753D01*
Y382237D01*
X1150857D01*
Y382029D01*
X1150962D01*
Y381716D01*
X1151066D01*
Y381403D01*
X1151170D01*
Y381091D01*
X1151274D01*
Y380778D01*
X1151378D01*
Y380569D01*
X1151483D01*
Y380257D01*
X1151587D01*
Y379944D01*
X1151691D01*
Y379631D01*
X1151795D01*
Y379319D01*
X1151900D01*
Y379110D01*
X1152004D01*
Y378798D01*
X1152108D01*
Y378485D01*
X1152212D01*
Y378172D01*
X1152317D01*
Y378068D01*
X1150545D01*
Y378172D01*
X1150441D01*
Y378485D01*
X1150336D01*
Y378798D01*
X1150232D01*
Y379110D01*
X1150128D01*
Y379423D01*
X1150024D01*
Y379631D01*
X1149919D01*
Y379944D01*
X1149815D01*
Y380257D01*
X1149711D01*
Y380569D01*
X1149607D01*
Y380778D01*
X1149502D01*
Y381091D01*
X1149398D01*
Y381403D01*
X1149294D01*
Y381716D01*
X1149190D01*
Y382029D01*
X1149086D01*
Y382237D01*
X1148981D01*
Y382550D01*
X1148877D01*
Y382862D01*
X1148773D01*
Y383175D01*
X1139080D01*
Y383071D01*
X1138976D01*
Y382758D01*
X1138871D01*
Y382445D01*
X1138767D01*
Y382133D01*
X1138663D01*
Y381820D01*
X1138559D01*
Y381612D01*
X1138455D01*
Y381299D01*
X1138350D01*
Y380986D01*
X1138246D01*
Y380674D01*
X1138142D01*
Y380361D01*
X1138038D01*
Y380048D01*
X1137933D01*
Y379840D01*
X1137829D01*
Y379527D01*
X1137725D01*
Y379215D01*
X1137621D01*
Y378902D01*
X1137516D01*
Y378589D01*
X1137412D01*
Y378276D01*
X1137308D01*
Y378068D01*
X1136579D01*
Y378172D01*
X1136683D01*
Y378485D01*
X1136787D01*
Y378798D01*
X1136891D01*
Y379110D01*
X1136995D01*
Y379423D01*
X1137100D01*
Y379631D01*
X1137204D01*
Y379944D01*
X1137308D01*
Y380257D01*
X1137412D01*
Y380569D01*
X1137516D01*
Y380882D01*
X1137621D01*
Y381091D01*
X1137725D01*
Y381403D01*
X1137829D01*
Y381716D01*
X1137933D01*
Y382029D01*
X1138038D01*
Y382341D01*
X1138142D01*
Y382550D01*
X1138246D01*
Y382862D01*
X1138350D01*
Y383175D01*
X1138455D01*
Y383488D01*
X1138559D01*
Y383800D01*
X1138663D01*
Y384009D01*
X1138767D01*
Y384322D01*
X1138871D01*
Y384634D01*
X1138976D01*
Y384947D01*
X1139080D01*
Y385260D01*
X1139184D01*
Y385572D01*
X1139288D01*
Y385781D01*
X1139393D01*
Y386093D01*
X1139497D01*
Y386406D01*
X1139601D01*
Y386719D01*
X1139705D01*
Y387031D01*
X1139809D01*
Y387240D01*
X1139914D01*
Y387553D01*
X1140018D01*
Y387865D01*
X1140122D01*
Y388178D01*
X1140226D01*
Y388491D01*
X1140331D01*
Y388699D01*
X1140435D01*
Y389012D01*
X1140539D01*
Y389324D01*
X1140643D01*
Y389637D01*
X1140748D01*
Y389950D01*
X1140852D01*
Y390158D01*
X1140956D01*
Y390471D01*
X1141060D01*
Y390784D01*
X1141164D01*
Y391096D01*
X1141269D01*
Y391409D01*
X1141373D01*
Y391722D01*
X1141477D01*
Y391930D01*
X1141581D01*
Y392243D01*
X1141685D01*
Y392555D01*
X1141790D01*
Y392868D01*
X1141894D01*
Y393181D01*
X1141998D01*
Y393389D01*
X1142102D01*
Y393702D01*
X1142207D01*
Y394015D01*
X1142311D01*
Y394327D01*
X1142415D01*
Y394640D01*
X1142519D01*
Y394848D01*
X1142624D01*
Y395161D01*
X1142728D01*
Y395474D01*
X1142832D01*
Y395786D01*
X1142936D01*
Y396099D01*
X1143040D01*
Y396307D01*
X1143145D01*
Y396620D01*
X1143249D01*
Y396933D01*
X1143353D01*
Y397246D01*
X1143457D01*
Y397558D01*
X1143562D01*
Y397871D01*
X1143666D01*
Y397975D01*
X1145229D01*
Y397663D01*
D02*
G37*
G36*
X1162635Y381195D02*
X1162531D01*
Y380882D01*
X1162427D01*
Y380569D01*
X1162322D01*
Y380257D01*
X1162218D01*
Y379944D01*
X1162114D01*
Y379631D01*
X1162010D01*
Y379423D01*
X1161905D01*
Y379110D01*
X1161801D01*
Y378798D01*
X1161697D01*
Y378693D01*
X1160238D01*
Y378902D01*
X1160134D01*
Y379215D01*
X1160029D01*
Y379527D01*
X1159925D01*
Y379840D01*
X1159821D01*
Y380153D01*
X1159717D01*
Y380465D01*
X1159612D01*
Y380778D01*
X1159508D01*
Y381091D01*
X1159404D01*
Y381403D01*
X1159300D01*
Y381716D01*
X1159195D01*
Y382029D01*
X1159091D01*
Y382341D01*
X1158987D01*
Y382654D01*
X1158883D01*
Y382967D01*
X1158779D01*
Y383279D01*
X1158674D01*
Y383592D01*
X1158570D01*
Y383905D01*
X1158466D01*
Y384217D01*
X1158362D01*
Y384530D01*
X1158257D01*
Y384843D01*
X1158153D01*
Y385155D01*
X1158049D01*
Y385468D01*
X1157945D01*
Y385781D01*
X1157840D01*
Y386093D01*
X1157736D01*
Y386406D01*
X1157632D01*
Y386823D01*
X1157528D01*
Y387136D01*
X1157424D01*
Y387448D01*
X1157319D01*
Y387761D01*
X1157215D01*
Y388074D01*
X1157111D01*
Y388386D01*
X1157007D01*
Y388699D01*
X1156902D01*
Y389012D01*
X1156798D01*
Y389324D01*
X1156694D01*
Y389637D01*
X1156590D01*
Y389950D01*
X1156486D01*
Y390262D01*
X1156381D01*
Y390575D01*
X1156277D01*
Y390888D01*
X1156173D01*
Y391200D01*
X1156069D01*
Y391513D01*
X1155964D01*
Y391826D01*
X1155860D01*
Y392138D01*
X1155756D01*
Y392451D01*
X1155652D01*
Y392764D01*
X1155547D01*
Y393077D01*
X1155443D01*
Y393389D01*
X1155339D01*
Y393702D01*
X1155235D01*
Y394015D01*
X1155131D01*
Y394327D01*
X1155026D01*
Y394640D01*
X1154922D01*
Y394953D01*
X1154818D01*
Y395265D01*
X1154714D01*
Y395578D01*
X1154610D01*
Y395891D01*
X1154505D01*
Y396203D01*
X1154401D01*
Y396620D01*
X1154297D01*
Y396933D01*
X1154193D01*
Y397246D01*
X1154088D01*
Y397558D01*
X1153984D01*
Y397871D01*
X1153880D01*
Y398184D01*
X1153776D01*
Y398496D01*
X1153671D01*
Y398601D01*
X1155443D01*
Y398392D01*
X1155547D01*
Y398079D01*
X1155652D01*
Y397767D01*
X1155756D01*
Y397454D01*
X1155860D01*
Y397141D01*
X1155964D01*
Y396829D01*
X1156069D01*
Y396516D01*
X1156173D01*
Y396203D01*
X1156277D01*
Y395891D01*
X1156381D01*
Y395578D01*
X1156486D01*
Y395265D01*
X1156590D01*
Y394953D01*
X1156694D01*
Y394640D01*
X1156798D01*
Y394327D01*
X1156902D01*
Y394015D01*
X1157007D01*
Y393702D01*
X1157111D01*
Y393389D01*
X1157215D01*
Y393077D01*
X1157319D01*
Y392764D01*
X1157424D01*
Y392451D01*
X1157528D01*
Y392138D01*
X1157632D01*
Y391826D01*
X1157736D01*
Y391513D01*
X1157840D01*
Y391200D01*
X1157945D01*
Y390888D01*
X1158049D01*
Y390575D01*
X1158153D01*
Y390262D01*
X1158257D01*
Y389950D01*
X1158362D01*
Y389637D01*
X1158466D01*
Y389324D01*
X1158570D01*
Y389012D01*
X1158674D01*
Y388699D01*
X1158779D01*
Y388386D01*
X1158883D01*
Y388074D01*
X1158987D01*
Y387761D01*
X1159091D01*
Y387344D01*
X1159195D01*
Y387031D01*
X1159300D01*
Y386719D01*
X1159404D01*
Y386406D01*
X1159508D01*
Y386093D01*
X1159612D01*
Y385781D01*
X1159717D01*
Y385468D01*
X1159821D01*
Y385155D01*
X1159925D01*
Y384843D01*
X1160029D01*
Y384530D01*
X1160134D01*
Y384217D01*
X1160238D01*
Y383905D01*
X1160342D01*
Y383592D01*
X1160446D01*
Y383279D01*
X1160550D01*
Y382967D01*
X1160655D01*
Y382654D01*
X1160759D01*
Y382341D01*
X1160863D01*
Y382029D01*
X1160967D01*
Y381716D01*
X1161071D01*
Y381403D01*
X1161176D01*
Y381091D01*
X1161280D01*
Y380778D01*
X1161384D01*
Y380465D01*
X1161488D01*
Y380257D01*
X1161593D01*
Y380569D01*
X1161697D01*
Y380882D01*
X1161801D01*
Y381195D01*
X1161905D01*
Y381507D01*
X1162010D01*
Y381716D01*
X1162114D01*
Y382029D01*
X1162218D01*
Y382341D01*
X1162322D01*
Y382654D01*
X1162427D01*
Y382862D01*
X1162531D01*
Y383175D01*
X1162635D01*
Y383488D01*
X1162739D01*
Y383800D01*
X1162843D01*
Y384009D01*
X1162948D01*
Y384322D01*
X1163052D01*
Y384634D01*
X1163156D01*
Y384947D01*
X1163260D01*
Y385155D01*
X1163364D01*
Y385468D01*
X1163469D01*
Y385781D01*
X1163573D01*
Y386093D01*
X1163677D01*
Y386406D01*
X1163781D01*
Y386614D01*
X1163886D01*
Y386927D01*
X1163990D01*
Y387240D01*
X1164094D01*
Y387553D01*
X1164198D01*
Y387761D01*
X1164303D01*
Y388074D01*
X1164407D01*
Y388386D01*
X1164511D01*
Y388699D01*
X1164615D01*
Y388908D01*
X1164719D01*
Y389220D01*
X1164824D01*
Y389741D01*
X1164719D01*
Y390054D01*
X1164615D01*
Y390262D01*
X1164511D01*
Y390575D01*
X1164407D01*
Y390888D01*
X1164303D01*
Y391200D01*
X1164198D01*
Y391513D01*
X1164094D01*
Y391722D01*
X1163990D01*
Y392034D01*
X1163886D01*
Y392347D01*
X1163781D01*
Y392660D01*
X1163677D01*
Y392972D01*
X1163573D01*
Y393181D01*
X1163469D01*
Y393493D01*
X1163364D01*
Y393806D01*
X1163260D01*
Y394119D01*
X1163156D01*
Y394431D01*
X1163052D01*
Y394640D01*
X1162948D01*
Y394953D01*
X1162843D01*
Y395265D01*
X1162739D01*
Y395578D01*
X1162635D01*
Y395891D01*
X1162531D01*
Y396099D01*
X1162427D01*
Y396412D01*
X1162322D01*
Y396724D01*
X1162218D01*
Y397037D01*
X1162114D01*
Y397350D01*
X1162010D01*
Y397558D01*
X1161905D01*
Y397871D01*
X1161801D01*
Y398184D01*
X1161697D01*
Y398496D01*
X1161593D01*
Y398601D01*
X1163364D01*
Y398392D01*
X1163469D01*
Y398184D01*
X1163573D01*
Y397871D01*
X1163677D01*
Y397558D01*
X1163781D01*
Y397246D01*
X1163886D01*
Y397037D01*
X1163990D01*
Y396724D01*
X1164094D01*
Y396412D01*
X1164198D01*
Y396099D01*
X1164303D01*
Y395891D01*
X1164407D01*
Y395578D01*
X1164511D01*
Y395265D01*
X1164615D01*
Y394953D01*
X1164719D01*
Y394640D01*
X1164824D01*
Y394431D01*
X1164928D01*
Y394119D01*
X1165032D01*
Y393806D01*
X1165136D01*
Y393493D01*
X1165240D01*
Y393285D01*
X1165345D01*
Y392972D01*
X1165449D01*
Y392660D01*
X1165553D01*
Y392347D01*
X1165657D01*
Y392138D01*
X1165866D01*
Y392347D01*
X1165970D01*
Y392660D01*
X1166074D01*
Y392972D01*
X1166179D01*
Y393285D01*
X1166283D01*
Y393598D01*
X1166387D01*
Y393806D01*
X1166491D01*
Y394119D01*
X1166596D01*
Y394431D01*
X1166700D01*
Y394744D01*
X1166804D01*
Y395057D01*
X1166908D01*
Y395265D01*
X1167012D01*
Y395578D01*
X1167117D01*
Y395891D01*
X1167221D01*
Y396203D01*
X1167325D01*
Y396516D01*
X1167429D01*
Y396724D01*
X1167533D01*
Y397037D01*
X1167638D01*
Y397350D01*
X1167742D01*
Y397663D01*
X1167846D01*
Y397975D01*
X1167950D01*
Y398184D01*
X1168055D01*
Y398496D01*
X1168159D01*
Y398601D01*
X1168784D01*
Y398496D01*
X1168680D01*
Y398184D01*
X1168576D01*
Y397871D01*
X1168472D01*
Y397558D01*
X1168367D01*
Y397350D01*
X1168263D01*
Y397037D01*
X1168159D01*
Y396724D01*
X1168055D01*
Y396412D01*
X1167950D01*
Y396099D01*
X1167846D01*
Y395786D01*
X1167742D01*
Y395578D01*
X1167638D01*
Y395265D01*
X1167533D01*
Y394953D01*
X1167429D01*
Y394640D01*
X1167325D01*
Y394327D01*
X1167221D01*
Y394119D01*
X1167117D01*
Y393806D01*
X1167012D01*
Y393493D01*
X1166908D01*
Y393181D01*
X1166804D01*
Y392868D01*
X1166700D01*
Y392660D01*
X1166596D01*
Y392347D01*
X1166491D01*
Y392034D01*
X1166387D01*
Y391722D01*
X1166283D01*
Y391409D01*
X1166179D01*
Y391096D01*
X1166074D01*
Y390992D01*
X1166179D01*
Y390679D01*
X1166283D01*
Y390367D01*
X1166387D01*
Y390054D01*
X1166491D01*
Y389846D01*
X1166596D01*
Y389533D01*
X1166700D01*
Y389220D01*
X1166804D01*
Y388908D01*
X1166908D01*
Y388595D01*
X1167012D01*
Y388386D01*
X1167117D01*
Y388074D01*
X1167221D01*
Y387761D01*
X1167325D01*
Y387448D01*
X1167429D01*
Y387240D01*
X1167533D01*
Y386927D01*
X1167638D01*
Y386614D01*
X1167742D01*
Y386302D01*
X1167846D01*
Y386093D01*
X1167950D01*
Y385781D01*
X1168055D01*
Y385468D01*
X1168159D01*
Y385155D01*
X1168263D01*
Y384947D01*
X1168367D01*
Y384634D01*
X1168472D01*
Y384322D01*
X1168576D01*
Y384009D01*
X1168680D01*
Y383800D01*
X1168784D01*
Y383488D01*
X1168888D01*
Y383175D01*
X1168993D01*
Y382862D01*
X1169097D01*
Y382654D01*
X1169201D01*
Y382341D01*
X1169305D01*
Y382029D01*
X1169410D01*
Y381716D01*
X1169514D01*
Y381403D01*
X1169618D01*
Y381195D01*
X1169722D01*
Y380882D01*
X1169827D01*
Y380569D01*
X1169931D01*
Y380257D01*
X1170035D01*
Y380465D01*
X1170139D01*
Y380778D01*
X1170243D01*
Y381091D01*
X1170348D01*
Y381403D01*
X1170452D01*
Y381716D01*
X1170556D01*
Y382029D01*
X1170660D01*
Y382341D01*
X1170764D01*
Y382654D01*
X1170869D01*
Y382967D01*
X1170973D01*
Y383279D01*
X1171077D01*
Y383592D01*
X1171181D01*
Y383905D01*
X1171286D01*
Y384217D01*
X1171390D01*
Y384634D01*
X1171494D01*
Y384947D01*
X1171598D01*
Y385260D01*
X1171702D01*
Y385572D01*
X1171807D01*
Y385885D01*
X1171911D01*
Y386198D01*
X1172015D01*
Y386510D01*
X1172119D01*
Y386823D01*
X1172224D01*
Y387136D01*
X1172328D01*
Y387448D01*
X1172432D01*
Y387761D01*
X1172536D01*
Y388074D01*
X1172641D01*
Y388386D01*
X1172745D01*
Y388699D01*
X1172849D01*
Y389012D01*
X1172953D01*
Y389324D01*
X1173057D01*
Y389637D01*
X1173162D01*
Y389950D01*
X1173266D01*
Y390262D01*
X1173370D01*
Y390575D01*
X1173474D01*
Y390888D01*
X1173579D01*
Y391200D01*
X1173683D01*
Y391513D01*
X1173787D01*
Y391826D01*
X1173891D01*
Y392138D01*
X1173996D01*
Y392451D01*
X1174100D01*
Y392764D01*
X1174204D01*
Y393077D01*
X1174308D01*
Y393493D01*
X1174412D01*
Y393806D01*
X1174517D01*
Y394119D01*
X1174621D01*
Y394431D01*
X1174725D01*
Y394744D01*
X1174829D01*
Y395057D01*
X1174933D01*
Y395369D01*
X1175038D01*
Y395682D01*
X1175142D01*
Y395995D01*
X1175246D01*
Y396307D01*
X1175350D01*
Y396620D01*
X1175455D01*
Y396933D01*
X1175559D01*
Y397246D01*
X1175663D01*
Y397558D01*
X1175767D01*
Y397871D01*
X1175872D01*
Y398184D01*
X1175976D01*
Y398496D01*
X1176080D01*
Y398601D01*
X1176705D01*
Y398496D01*
X1176601D01*
Y398184D01*
X1176497D01*
Y397871D01*
X1176393D01*
Y397558D01*
X1176289D01*
Y397141D01*
X1176184D01*
Y396829D01*
X1176080D01*
Y396516D01*
X1175976D01*
Y396203D01*
X1175872D01*
Y395891D01*
X1175767D01*
Y395578D01*
X1175663D01*
Y395265D01*
X1175559D01*
Y394953D01*
X1175455D01*
Y394640D01*
X1175350D01*
Y394327D01*
X1175246D01*
Y394015D01*
X1175142D01*
Y393702D01*
X1175038D01*
Y393389D01*
X1174933D01*
Y393077D01*
X1174829D01*
Y392764D01*
X1174725D01*
Y392451D01*
X1174621D01*
Y392138D01*
X1174517D01*
Y391826D01*
X1174412D01*
Y391513D01*
X1174308D01*
Y391096D01*
X1174204D01*
Y390784D01*
X1174100D01*
Y390471D01*
X1173996D01*
Y390158D01*
X1173891D01*
Y389846D01*
X1173787D01*
Y389533D01*
X1173683D01*
Y389220D01*
X1173579D01*
Y388908D01*
X1173474D01*
Y388595D01*
X1173370D01*
Y388282D01*
X1173266D01*
Y387970D01*
X1173162D01*
Y387657D01*
X1173057D01*
Y387344D01*
X1172953D01*
Y387031D01*
X1172849D01*
Y386719D01*
X1172745D01*
Y386406D01*
X1172641D01*
Y386093D01*
X1172536D01*
Y385781D01*
X1172432D01*
Y385364D01*
X1172328D01*
Y385051D01*
X1172224D01*
Y384739D01*
X1172119D01*
Y384426D01*
X1172015D01*
Y384113D01*
X1171911D01*
Y383800D01*
X1171807D01*
Y383488D01*
X1171702D01*
Y383175D01*
X1171598D01*
Y382862D01*
X1171494D01*
Y382550D01*
X1171390D01*
Y382237D01*
X1171286D01*
Y381924D01*
X1171181D01*
Y381612D01*
X1171077D01*
Y381299D01*
X1170973D01*
Y380986D01*
X1170869D01*
Y380674D01*
X1170764D01*
Y380361D01*
X1170660D01*
Y380048D01*
X1170556D01*
Y379631D01*
X1170452D01*
Y379319D01*
X1170348D01*
Y379006D01*
X1170243D01*
Y378693D01*
X1168680D01*
Y379006D01*
X1168576D01*
Y379319D01*
X1168472D01*
Y379631D01*
X1168367D01*
Y379840D01*
X1168263D01*
Y380153D01*
X1168159D01*
Y380465D01*
X1168055D01*
Y380778D01*
X1167950D01*
Y380986D01*
X1167846D01*
Y381299D01*
X1167742D01*
Y381612D01*
X1167638D01*
Y381924D01*
X1167533D01*
Y382133D01*
X1167429D01*
Y382445D01*
X1167325D01*
Y382758D01*
X1167221D01*
Y383071D01*
X1167117D01*
Y383383D01*
X1167012D01*
Y383592D01*
X1166908D01*
Y383905D01*
X1166804D01*
Y384217D01*
X1166700D01*
Y384530D01*
X1166596D01*
Y384739D01*
X1166491D01*
Y385051D01*
X1166387D01*
Y385364D01*
X1166283D01*
Y385676D01*
X1166179D01*
Y385989D01*
X1166074D01*
Y386198D01*
X1165970D01*
Y386510D01*
X1165866D01*
Y386823D01*
X1165762D01*
Y387136D01*
X1165657D01*
Y387344D01*
X1165553D01*
Y387657D01*
X1165449D01*
Y387970D01*
X1165345D01*
Y388282D01*
X1165240D01*
Y388491D01*
X1165136D01*
Y388282D01*
X1165032D01*
Y387970D01*
X1164928D01*
Y387657D01*
X1164824D01*
Y387344D01*
X1164719D01*
Y387031D01*
X1164615D01*
Y386719D01*
X1164511D01*
Y386510D01*
X1164407D01*
Y386198D01*
X1164303D01*
Y385885D01*
X1164198D01*
Y385572D01*
X1164094D01*
Y385260D01*
X1163990D01*
Y384947D01*
X1163886D01*
Y384739D01*
X1163781D01*
Y384426D01*
X1163677D01*
Y384113D01*
X1163573D01*
Y383800D01*
X1163469D01*
Y383488D01*
X1163364D01*
Y383175D01*
X1163260D01*
Y382967D01*
X1163156D01*
Y382654D01*
X1163052D01*
Y382341D01*
X1162948D01*
Y382029D01*
X1162843D01*
Y381716D01*
X1162739D01*
Y381403D01*
X1162635D01*
Y381299D01*
Y381195D01*
D02*
G37*
G36*
X1189421Y380153D02*
X1189525D01*
Y380257D01*
X1189629D01*
Y380361D01*
X1189734D01*
Y380465D01*
X1189838D01*
Y380569D01*
X1189942D01*
Y380674D01*
X1190046D01*
Y380882D01*
X1190151D01*
Y380986D01*
X1190255D01*
Y381195D01*
X1190359D01*
Y381403D01*
X1190463D01*
Y381612D01*
X1190567D01*
Y382029D01*
X1190672D01*
Y382445D01*
X1190776D01*
Y384009D01*
X1190672D01*
Y384530D01*
X1190567D01*
Y384843D01*
X1190463D01*
Y385051D01*
X1190359D01*
Y385260D01*
X1190255D01*
Y385468D01*
X1190151D01*
Y385676D01*
X1190046D01*
Y385781D01*
X1189942D01*
Y385989D01*
X1189838D01*
Y386093D01*
X1189734D01*
Y386198D01*
X1189629D01*
Y386302D01*
X1189525D01*
Y386406D01*
X1189421D01*
Y386510D01*
X1189317D01*
Y386614D01*
X1189212D01*
Y386719D01*
X1189108D01*
Y386823D01*
X1189004D01*
Y386927D01*
X1188796D01*
Y387031D01*
X1188587D01*
Y387136D01*
X1188483D01*
Y387240D01*
X1188274D01*
Y387344D01*
X1188066D01*
Y387448D01*
X1187858D01*
Y387553D01*
X1187649D01*
Y387657D01*
X1187441D01*
Y387761D01*
X1187128D01*
Y387865D01*
X1186815D01*
Y387970D01*
X1186398D01*
Y388074D01*
X1186086D01*
Y388178D01*
X1185565D01*
Y388282D01*
X1184939D01*
Y388386D01*
X1184314D01*
Y388491D01*
X1183689D01*
Y388595D01*
X1183167D01*
Y388699D01*
X1182646D01*
Y388803D01*
X1182334D01*
Y388908D01*
X1182021D01*
Y389012D01*
X1181708D01*
Y389116D01*
X1181500D01*
Y389220D01*
X1181187D01*
Y389324D01*
X1180979D01*
Y389429D01*
X1180770D01*
Y389533D01*
X1180666D01*
Y389637D01*
X1180458D01*
Y389741D01*
X1180249D01*
Y389846D01*
X1180145D01*
Y389950D01*
X1180041D01*
Y390054D01*
X1179832D01*
Y390158D01*
X1179728D01*
Y390262D01*
X1179624D01*
Y390367D01*
X1179520D01*
Y390471D01*
X1179415D01*
Y390575D01*
X1179311D01*
Y390784D01*
X1179207D01*
Y390888D01*
X1179103D01*
Y390992D01*
X1178998D01*
Y391200D01*
X1178894D01*
Y391409D01*
X1178790D01*
Y391617D01*
X1178686D01*
Y391930D01*
X1178581D01*
Y392243D01*
X1178477D01*
Y392868D01*
X1178373D01*
Y394119D01*
X1178477D01*
Y394640D01*
X1178581D01*
Y395057D01*
X1178686D01*
Y395265D01*
X1178790D01*
Y395578D01*
X1178894D01*
Y395682D01*
X1178998D01*
Y395891D01*
X1179103D01*
Y395995D01*
X1179207D01*
Y396203D01*
X1179311D01*
Y396307D01*
X1179415D01*
Y396412D01*
X1179520D01*
Y396516D01*
X1179624D01*
Y396620D01*
X1179728D01*
Y396724D01*
X1179832D01*
Y396829D01*
X1179936D01*
Y396933D01*
X1180041D01*
Y397037D01*
X1180145D01*
Y397141D01*
X1180353D01*
Y397246D01*
X1180458D01*
Y397350D01*
X1180562D01*
Y397454D01*
X1180770D01*
Y397558D01*
X1180979D01*
Y397663D01*
X1181187D01*
Y397767D01*
X1181395D01*
Y397871D01*
X1181604D01*
Y397975D01*
X1181812D01*
Y398079D01*
X1182125D01*
Y398184D01*
X1182438D01*
Y398288D01*
X1182855D01*
Y398392D01*
X1183376D01*
Y398496D01*
X1184210D01*
Y398601D01*
X1185982D01*
Y398496D01*
X1186711D01*
Y398392D01*
X1187336D01*
Y398288D01*
X1187649D01*
Y398184D01*
X1187962D01*
Y398079D01*
X1188274D01*
Y397975D01*
X1188483D01*
Y397871D01*
X1188691D01*
Y397767D01*
X1188900D01*
Y397663D01*
X1189108D01*
Y397558D01*
X1189317D01*
Y397454D01*
X1189421D01*
Y397350D01*
X1189629D01*
Y397246D01*
X1189734D01*
Y397141D01*
X1189838D01*
Y397037D01*
X1189942D01*
Y396933D01*
X1190151D01*
Y396829D01*
X1190255D01*
Y396724D01*
X1190359D01*
Y396620D01*
X1190463D01*
Y396412D01*
X1190567D01*
Y396307D01*
X1190672D01*
Y396203D01*
X1190776D01*
Y396099D01*
X1190880D01*
Y395891D01*
X1190984D01*
Y395786D01*
X1191088D01*
Y395578D01*
X1191193D01*
Y395369D01*
X1191297D01*
Y395057D01*
X1191088D01*
Y394953D01*
X1190880D01*
Y394848D01*
X1190672D01*
Y394744D01*
X1190463D01*
Y394640D01*
X1190255D01*
Y394536D01*
X1190046D01*
Y394431D01*
X1189942D01*
Y394536D01*
X1189838D01*
Y394744D01*
X1189734D01*
Y394953D01*
X1189629D01*
Y395161D01*
X1189525D01*
Y395369D01*
X1189421D01*
Y395474D01*
X1189317D01*
Y395682D01*
X1189212D01*
Y395786D01*
X1189108D01*
Y395995D01*
X1189004D01*
Y396099D01*
X1188900D01*
Y396203D01*
X1188796D01*
Y396307D01*
X1188691D01*
Y396412D01*
X1188587D01*
Y396516D01*
X1188483D01*
Y396620D01*
X1188379D01*
Y396724D01*
X1188274D01*
Y396829D01*
X1188066D01*
Y396933D01*
X1187962D01*
Y397037D01*
X1187753D01*
Y397141D01*
X1187649D01*
Y397246D01*
X1187441D01*
Y397350D01*
X1187232D01*
Y397454D01*
X1187024D01*
Y397558D01*
X1186711D01*
Y397663D01*
X1186503D01*
Y397767D01*
X1186086D01*
Y397871D01*
X1185565D01*
Y397975D01*
X1183897D01*
Y397871D01*
X1183376D01*
Y397767D01*
X1182959D01*
Y397663D01*
X1182646D01*
Y397558D01*
X1182438D01*
Y397454D01*
X1182125D01*
Y397350D01*
X1181917D01*
Y397246D01*
X1181708D01*
Y397141D01*
X1181604D01*
Y397037D01*
X1181395D01*
Y396933D01*
X1181291D01*
Y396829D01*
X1181187D01*
Y396724D01*
X1181083D01*
Y396620D01*
X1180979D01*
Y396516D01*
X1180874D01*
Y396412D01*
X1180770D01*
Y396307D01*
X1180666D01*
Y396099D01*
X1180562D01*
Y395995D01*
X1180458D01*
Y395786D01*
X1180353D01*
Y395578D01*
X1180249D01*
Y395369D01*
X1180145D01*
Y395057D01*
X1180041D01*
Y394536D01*
X1179936D01*
Y393389D01*
X1180041D01*
Y392972D01*
X1180145D01*
Y392555D01*
X1180249D01*
Y392347D01*
X1180353D01*
Y392138D01*
X1180458D01*
Y391930D01*
X1180562D01*
Y391826D01*
X1180666D01*
Y391617D01*
X1180770D01*
Y391513D01*
X1180874D01*
Y391305D01*
X1181083D01*
Y391200D01*
X1181187D01*
Y391096D01*
X1181291D01*
Y390992D01*
X1181500D01*
Y390888D01*
X1181708D01*
Y390784D01*
X1181812D01*
Y390679D01*
X1182021D01*
Y390575D01*
X1182229D01*
Y390471D01*
X1182542D01*
Y390367D01*
X1182750D01*
Y390262D01*
X1183063D01*
Y390158D01*
X1183376D01*
Y390054D01*
X1183793D01*
Y389950D01*
X1184210D01*
Y389846D01*
X1184835D01*
Y389741D01*
X1185460D01*
Y389637D01*
X1186086D01*
Y389533D01*
X1186607D01*
Y389429D01*
X1187024D01*
Y389324D01*
X1187441D01*
Y389220D01*
X1187753D01*
Y389116D01*
X1188066D01*
Y389012D01*
X1188379D01*
Y388908D01*
X1188587D01*
Y388803D01*
X1188796D01*
Y388699D01*
X1189004D01*
Y388595D01*
X1189212D01*
Y388491D01*
X1189421D01*
Y388386D01*
X1189629D01*
Y388282D01*
X1189838D01*
Y388178D01*
X1189942D01*
Y388074D01*
X1190151D01*
Y387970D01*
X1190255D01*
Y387865D01*
X1190359D01*
Y387761D01*
X1190463D01*
Y387657D01*
X1190567D01*
Y387553D01*
X1190672D01*
Y387448D01*
X1190776D01*
Y387344D01*
X1190880D01*
Y387240D01*
X1190984D01*
Y387136D01*
X1191088D01*
Y387031D01*
X1191193D01*
Y386927D01*
X1191297D01*
Y386823D01*
X1191401D01*
Y386719D01*
X1191505D01*
Y386510D01*
X1191610D01*
Y386406D01*
X1191714D01*
Y386198D01*
X1191818D01*
Y385989D01*
X1191922D01*
Y385781D01*
X1192027D01*
Y385468D01*
X1192131D01*
Y385155D01*
X1192235D01*
Y384739D01*
X1192339D01*
Y382758D01*
X1192235D01*
Y382237D01*
X1192131D01*
Y381924D01*
X1192027D01*
Y381716D01*
X1191922D01*
Y381507D01*
X1191818D01*
Y381299D01*
X1191714D01*
Y381091D01*
X1191610D01*
Y380882D01*
X1191505D01*
Y380778D01*
X1191401D01*
Y380674D01*
X1191297D01*
Y380569D01*
X1191193D01*
Y380361D01*
X1191088D01*
Y380257D01*
X1190984D01*
Y380153D01*
X1190880D01*
Y380048D01*
X1190776D01*
Y379944D01*
X1190567D01*
Y379840D01*
X1190463D01*
Y379736D01*
X1190359D01*
Y379631D01*
X1190255D01*
Y379527D01*
X1190046D01*
Y379423D01*
X1189942D01*
Y379319D01*
X1189734D01*
Y379215D01*
X1189525D01*
Y379110D01*
X1189317D01*
Y379006D01*
X1189108D01*
Y378902D01*
X1188796D01*
Y378798D01*
X1188587D01*
Y378693D01*
X1188274D01*
Y378589D01*
X1187962D01*
Y378485D01*
X1187441D01*
Y378381D01*
X1186815D01*
Y378276D01*
X1185877D01*
Y378172D01*
X1184105D01*
Y378276D01*
X1183167D01*
Y378381D01*
X1182438D01*
Y378485D01*
X1182021D01*
Y378589D01*
X1181604D01*
Y378693D01*
X1181291D01*
Y378798D01*
X1181083D01*
Y378902D01*
X1180770D01*
Y379006D01*
X1180562D01*
Y379110D01*
X1180353D01*
Y379215D01*
X1180145D01*
Y379319D01*
X1179936D01*
Y379423D01*
X1179728D01*
Y379527D01*
X1179624D01*
Y379631D01*
X1179415D01*
Y379736D01*
X1179311D01*
Y379840D01*
X1179207D01*
Y379944D01*
X1178998D01*
Y380048D01*
X1178894D01*
Y380153D01*
X1178790D01*
Y380257D01*
X1178686D01*
Y380361D01*
X1178581D01*
Y380465D01*
X1178477D01*
Y380569D01*
X1178373D01*
Y380778D01*
X1178269D01*
Y380882D01*
X1178165D01*
Y380986D01*
X1178060D01*
Y381299D01*
X1178269D01*
Y381403D01*
X1178373D01*
Y381507D01*
X1178477D01*
Y381612D01*
X1178686D01*
Y381716D01*
X1178790D01*
Y381820D01*
X1178998D01*
Y381924D01*
X1179103D01*
Y382029D01*
X1179311D01*
Y382133D01*
X1179415D01*
Y381924D01*
X1179520D01*
Y381716D01*
X1179624D01*
Y381507D01*
X1179728D01*
Y381403D01*
X1179832D01*
Y381195D01*
X1179936D01*
Y381091D01*
X1180041D01*
Y380986D01*
X1180145D01*
Y380882D01*
X1180249D01*
Y380674D01*
X1180353D01*
Y380569D01*
X1180562D01*
Y380465D01*
X1180666D01*
Y380361D01*
X1180770D01*
Y380257D01*
X1180874D01*
Y380153D01*
X1180979D01*
Y380048D01*
X1181187D01*
Y379944D01*
X1181291D01*
Y379840D01*
X1181500D01*
Y379736D01*
X1181708D01*
Y379631D01*
X1181917D01*
Y379527D01*
X1182125D01*
Y379423D01*
X1182334D01*
Y379319D01*
X1182646D01*
Y379215D01*
X1182959D01*
Y379110D01*
X1183272D01*
Y379006D01*
X1183793D01*
Y378902D01*
X1184626D01*
Y378798D01*
X1186398D01*
Y378902D01*
X1187024D01*
Y379006D01*
X1187441D01*
Y379110D01*
X1187753D01*
Y379215D01*
X1188066D01*
Y379319D01*
X1188274D01*
Y379423D01*
X1188483D01*
Y379527D01*
X1188691D01*
Y379631D01*
X1188900D01*
Y379736D01*
X1189004D01*
Y379840D01*
X1189212D01*
Y379944D01*
X1189317D01*
Y380048D01*
X1189421D01*
Y380153D01*
D02*
G37*
%LPC*%
G36*
X1087071Y396620D02*
X1086967D01*
Y386927D01*
X1087071D01*
Y385676D01*
X1087176D01*
Y384947D01*
X1087280D01*
Y384530D01*
X1087384D01*
Y384113D01*
X1087488D01*
Y383800D01*
X1087592D01*
Y383488D01*
X1087697D01*
Y383279D01*
X1087801D01*
Y383071D01*
X1087905D01*
Y382862D01*
X1088009D01*
Y382654D01*
X1088113D01*
Y382445D01*
X1088218D01*
Y382237D01*
X1088322D01*
Y382133D01*
X1088426D01*
Y381924D01*
X1088530D01*
Y381820D01*
X1088635D01*
Y381612D01*
X1088739D01*
Y381507D01*
X1088843D01*
Y381403D01*
X1088947D01*
Y381299D01*
X1089052D01*
Y381091D01*
X1089156D01*
Y380986D01*
X1089364D01*
Y381195D01*
X1089468D01*
Y381299D01*
X1089573D01*
Y381403D01*
X1089677D01*
Y381507D01*
X1089781D01*
Y381612D01*
X1089885D01*
Y381820D01*
X1089990D01*
Y382029D01*
X1090094D01*
Y382133D01*
X1090198D01*
Y382341D01*
X1090302D01*
Y382550D01*
X1090406D01*
Y382654D01*
Y382758D01*
X1090511D01*
Y382967D01*
X1090615D01*
Y383175D01*
X1090719D01*
Y383488D01*
X1090823D01*
Y383800D01*
X1090928D01*
Y384009D01*
X1091032D01*
Y384426D01*
X1091136D01*
Y384947D01*
X1091240D01*
Y385572D01*
X1091345D01*
Y386927D01*
X1091449D01*
Y387657D01*
X1091345D01*
Y388908D01*
X1091240D01*
Y389741D01*
X1091136D01*
Y390158D01*
X1091032D01*
Y390575D01*
X1090928D01*
Y390992D01*
X1090823D01*
Y391305D01*
X1090719D01*
Y391617D01*
X1090615D01*
Y391930D01*
X1090511D01*
Y392138D01*
X1090406D01*
Y392451D01*
X1090302D01*
Y392660D01*
X1090198D01*
Y392868D01*
X1090094D01*
Y393077D01*
X1089990D01*
Y393285D01*
X1089885D01*
Y393493D01*
X1089781D01*
Y393598D01*
X1089677D01*
Y393806D01*
X1089573D01*
Y394015D01*
X1089468D01*
Y394119D01*
X1089364D01*
Y394327D01*
X1089260D01*
Y394431D01*
X1089156D01*
Y394536D01*
X1089052D01*
Y394744D01*
X1088947D01*
Y394848D01*
X1088843D01*
Y394953D01*
X1088739D01*
Y395161D01*
X1088635D01*
Y395265D01*
X1088530D01*
Y395369D01*
X1088426D01*
Y395474D01*
X1088322D01*
Y395578D01*
X1088218D01*
Y395682D01*
X1088009D01*
Y395786D01*
X1087905D01*
Y395891D01*
X1087801D01*
Y395995D01*
X1087697D01*
Y396099D01*
X1087592D01*
Y396203D01*
X1087488D01*
Y396307D01*
X1087280D01*
Y396412D01*
X1087176D01*
Y396516D01*
X1087071D01*
Y396620D01*
D02*
G37*
G36*
X1083632Y397871D02*
X1081964D01*
Y397767D01*
X1081443D01*
Y397663D01*
X1081026D01*
Y397558D01*
X1080609D01*
Y397454D01*
X1080297D01*
Y397350D01*
X1080088D01*
Y397246D01*
X1079880D01*
Y397141D01*
X1079671D01*
Y397037D01*
X1079463D01*
Y396933D01*
X1079254D01*
Y396829D01*
X1079150D01*
Y396724D01*
X1078942D01*
Y396620D01*
X1078837D01*
Y396516D01*
X1078733D01*
Y396412D01*
X1078629D01*
Y396307D01*
X1078420D01*
Y396203D01*
X1078316D01*
Y396099D01*
X1078212D01*
Y395995D01*
X1078108D01*
Y395891D01*
X1078004D01*
Y395786D01*
X1077899D01*
Y395578D01*
X1077795D01*
Y395474D01*
X1077691D01*
Y395369D01*
X1077587D01*
Y395161D01*
X1077483D01*
Y395057D01*
X1077378D01*
Y394953D01*
X1077274D01*
Y394744D01*
X1077170D01*
Y394640D01*
X1077066D01*
Y394431D01*
X1076961D01*
Y394223D01*
X1076857D01*
Y394015D01*
X1076753D01*
Y393702D01*
X1076649D01*
Y393493D01*
X1076544D01*
Y393181D01*
X1076440D01*
Y392972D01*
X1076336D01*
Y392555D01*
X1076232D01*
Y392243D01*
X1076127D01*
Y391617D01*
X1076023D01*
Y390784D01*
X1075919D01*
Y388282D01*
X1076023D01*
Y387448D01*
X1076127D01*
Y386823D01*
X1076232D01*
Y386302D01*
X1076336D01*
Y385989D01*
X1076440D01*
Y385572D01*
X1076544D01*
Y385260D01*
X1076649D01*
Y385051D01*
X1076753D01*
Y384739D01*
X1076857D01*
Y384426D01*
X1076961D01*
Y384217D01*
X1077066D01*
Y384009D01*
X1077170D01*
Y383800D01*
X1077274D01*
Y383592D01*
X1077378D01*
Y383383D01*
X1077483D01*
Y383175D01*
X1077587D01*
Y383071D01*
X1077691D01*
Y382862D01*
X1077795D01*
Y382654D01*
X1077899D01*
Y382550D01*
X1078004D01*
Y382445D01*
X1078108D01*
Y382237D01*
X1078212D01*
Y382133D01*
X1078316D01*
Y382029D01*
X1078420D01*
Y381820D01*
X1078525D01*
Y381716D01*
X1078629D01*
Y381612D01*
X1078733D01*
Y381507D01*
X1078837D01*
Y381403D01*
X1078942D01*
Y381299D01*
X1079046D01*
Y381195D01*
X1079150D01*
Y381091D01*
X1079254D01*
Y380986D01*
X1079359D01*
Y380882D01*
X1079463D01*
Y380778D01*
X1079567D01*
Y380674D01*
X1079671D01*
Y380569D01*
X1079880D01*
Y380465D01*
X1079984D01*
Y380361D01*
X1080088D01*
Y380257D01*
X1080297D01*
Y380153D01*
X1080401D01*
Y380048D01*
X1080609D01*
Y379944D01*
X1080818D01*
Y379840D01*
X1081026D01*
Y379736D01*
X1081235D01*
Y379631D01*
X1081443D01*
Y379527D01*
X1081652D01*
Y379423D01*
X1081964D01*
Y379319D01*
X1082173D01*
Y379215D01*
X1082589D01*
Y379110D01*
X1083111D01*
Y379006D01*
X1083736D01*
Y378902D01*
X1085091D01*
Y379006D01*
X1085820D01*
Y379110D01*
X1086342D01*
Y379215D01*
X1086654D01*
Y379319D01*
X1086967D01*
Y379423D01*
X1087280D01*
Y379527D01*
X1087488D01*
Y379631D01*
X1087697D01*
Y379736D01*
X1087801D01*
Y379840D01*
X1088009D01*
Y379944D01*
X1088113D01*
Y380048D01*
X1088009D01*
Y380153D01*
X1087905D01*
Y380257D01*
X1087801D01*
Y380361D01*
X1087697D01*
Y380465D01*
X1087592D01*
Y380569D01*
X1087488D01*
Y380674D01*
X1087384D01*
Y380882D01*
X1087280D01*
Y380986D01*
X1087176D01*
Y381091D01*
X1087071D01*
Y381195D01*
X1086967D01*
Y381403D01*
X1086863D01*
Y381507D01*
X1086759D01*
Y381716D01*
X1086654D01*
Y381820D01*
X1086550D01*
Y382029D01*
X1086446D01*
Y382237D01*
X1086342D01*
Y382550D01*
X1086237D01*
Y382758D01*
X1086133D01*
Y383071D01*
X1086029D01*
Y383279D01*
X1085925D01*
Y383592D01*
X1085820D01*
Y384009D01*
X1085716D01*
Y384426D01*
X1085612D01*
Y385051D01*
X1085508D01*
Y386198D01*
X1085404D01*
Y397454D01*
X1085091D01*
Y397558D01*
X1084778D01*
Y397663D01*
X1084361D01*
Y397767D01*
X1083632D01*
Y397871D01*
D02*
G37*
G36*
X1045381Y414130D02*
X1042254D01*
Y414026D01*
X1041003D01*
Y413922D01*
X1040170D01*
Y413817D01*
X1039544D01*
Y413713D01*
X1038919D01*
Y413609D01*
X1038502D01*
Y413505D01*
X1037981D01*
Y413400D01*
X1037564D01*
Y413296D01*
X1037147D01*
Y413192D01*
X1036834D01*
Y413088D01*
X1036417D01*
Y412984D01*
X1036105D01*
Y412879D01*
X1035792D01*
Y412775D01*
X1035480D01*
Y412671D01*
X1035167D01*
Y412567D01*
X1034854D01*
Y412463D01*
X1034646D01*
Y412358D01*
X1034333D01*
Y412254D01*
X1034125D01*
Y412150D01*
X1033812D01*
Y412046D01*
X1033603D01*
Y411941D01*
X1033395D01*
Y411837D01*
X1033186D01*
Y411733D01*
X1032874D01*
Y411629D01*
X1032665D01*
Y411525D01*
X1032457D01*
Y411420D01*
X1032249D01*
Y411316D01*
X1032040D01*
Y411212D01*
X1031936D01*
Y411108D01*
X1031727D01*
Y411003D01*
X1031519D01*
Y410899D01*
X1031311D01*
Y410795D01*
X1031102D01*
Y410691D01*
X1030998D01*
Y410587D01*
X1030789D01*
Y410482D01*
X1030581D01*
Y410378D01*
X1030477D01*
Y410274D01*
X1030268D01*
Y410169D01*
X1030060D01*
Y410065D01*
X1029956D01*
Y409961D01*
X1029747D01*
Y409857D01*
X1029643D01*
Y409753D01*
X1029434D01*
Y409648D01*
X1029330D01*
Y409544D01*
X1029122D01*
Y409440D01*
X1029017D01*
Y409336D01*
X1028913D01*
Y409231D01*
X1028705D01*
Y409127D01*
X1028601D01*
Y409023D01*
X1028496D01*
Y408919D01*
X1028288D01*
Y408815D01*
X1028184D01*
Y408710D01*
X1028080D01*
Y408606D01*
X1027871D01*
Y408502D01*
X1027767D01*
Y408398D01*
X1027663D01*
Y408293D01*
X1027558D01*
Y408189D01*
X1027454D01*
Y408085D01*
X1027246D01*
Y407981D01*
X1027141D01*
Y407877D01*
X1027037D01*
Y407772D01*
X1026933D01*
Y407668D01*
X1026829D01*
Y407564D01*
X1026724D01*
Y407460D01*
X1026620D01*
Y407355D01*
X1026412D01*
Y407251D01*
X1026308D01*
Y407147D01*
X1026203D01*
Y407043D01*
X1026099D01*
Y406939D01*
X1025995D01*
Y406834D01*
X1025891D01*
Y406730D01*
X1025787D01*
Y406626D01*
X1025682D01*
Y406522D01*
X1025578D01*
Y406417D01*
X1025474D01*
Y406313D01*
X1025370D01*
Y406209D01*
X1025265D01*
Y406105D01*
X1025161D01*
Y406001D01*
X1025057D01*
Y405792D01*
X1024953D01*
Y405688D01*
X1024848D01*
Y405584D01*
X1024744D01*
Y405479D01*
X1024640D01*
Y405375D01*
X1024536D01*
Y405271D01*
X1024432D01*
Y405167D01*
X1024327D01*
Y404958D01*
X1024223D01*
Y404854D01*
X1024119D01*
Y404750D01*
X1024015D01*
Y404646D01*
X1023910D01*
Y404541D01*
X1023806D01*
Y404333D01*
X1023702D01*
Y404229D01*
X1023598D01*
Y404124D01*
X1023493D01*
Y403916D01*
X1023389D01*
Y403812D01*
X1023285D01*
Y403708D01*
X1023181D01*
Y403499D01*
X1023077D01*
Y403395D01*
X1022972D01*
Y403291D01*
X1022868D01*
Y403082D01*
X1022764D01*
Y402978D01*
X1022660D01*
Y402770D01*
X1022555D01*
Y402665D01*
X1022451D01*
Y402457D01*
X1022347D01*
Y402353D01*
X1022243D01*
Y402144D01*
X1022139D01*
Y401936D01*
X1022034D01*
Y401832D01*
X1021930D01*
Y401623D01*
X1021826D01*
Y401415D01*
X1021722D01*
Y401310D01*
X1021618D01*
Y401102D01*
X1021513D01*
Y400894D01*
X1021409D01*
Y400685D01*
X1021305D01*
Y400476D01*
X1021201D01*
Y400372D01*
X1021096D01*
Y400164D01*
X1020992D01*
Y399955D01*
X1020888D01*
Y399747D01*
X1020784D01*
Y399538D01*
X1020679D01*
Y399226D01*
X1020575D01*
Y399017D01*
X1020471D01*
Y398809D01*
X1020367D01*
Y398601D01*
X1020263D01*
Y398288D01*
X1020158D01*
Y398079D01*
X1020054D01*
Y397767D01*
X1019950D01*
Y397558D01*
X1019846D01*
Y397246D01*
X1019741D01*
Y396933D01*
X1019637D01*
Y396620D01*
X1019533D01*
Y396307D01*
X1019429D01*
Y395995D01*
X1019324D01*
Y395578D01*
X1019220D01*
Y395265D01*
X1019116D01*
Y394848D01*
X1019012D01*
Y394431D01*
X1018908D01*
Y393910D01*
X1018803D01*
Y393493D01*
X1018699D01*
Y392868D01*
X1018595D01*
Y392243D01*
X1018491D01*
Y391409D01*
X1018387D01*
Y390158D01*
X1018282D01*
Y387031D01*
X1018387D01*
Y385781D01*
X1018491D01*
Y384947D01*
X1018595D01*
Y384322D01*
X1018699D01*
Y383696D01*
X1018803D01*
Y383279D01*
X1018908D01*
Y382758D01*
X1019012D01*
Y382341D01*
X1019116D01*
Y381924D01*
X1019220D01*
Y381612D01*
X1019324D01*
Y381195D01*
X1019429D01*
Y380882D01*
X1019533D01*
Y380569D01*
X1019637D01*
Y380257D01*
X1019741D01*
Y379944D01*
X1019846D01*
Y379631D01*
X1019950D01*
Y379423D01*
X1020054D01*
Y379110D01*
X1020158D01*
Y378902D01*
X1020263D01*
Y378589D01*
X1020367D01*
Y378381D01*
X1020471D01*
Y378172D01*
X1020575D01*
Y377964D01*
X1020679D01*
Y377651D01*
X1020784D01*
Y377443D01*
X1020888D01*
Y377234D01*
X1020992D01*
Y377026D01*
X1021096D01*
Y376817D01*
X1021201D01*
Y376713D01*
X1021305D01*
Y376505D01*
X1021409D01*
Y376296D01*
X1021513D01*
Y376088D01*
X1021618D01*
Y375879D01*
X1021722D01*
Y375775D01*
X1021826D01*
Y375567D01*
X1021930D01*
Y375358D01*
X1022034D01*
Y375254D01*
X1022139D01*
Y375046D01*
X1022243D01*
Y374837D01*
X1022347D01*
Y374733D01*
X1022451D01*
Y374524D01*
X1022555D01*
Y374420D01*
X1022660D01*
Y374212D01*
X1022764D01*
Y374107D01*
X1022868D01*
Y373899D01*
X1022972D01*
Y373795D01*
X1023077D01*
Y373690D01*
X1023181D01*
Y373482D01*
X1023285D01*
Y373378D01*
X1023389D01*
Y373274D01*
X1023493D01*
Y373065D01*
X1023598D01*
Y372961D01*
X1023702D01*
Y372857D01*
X1023806D01*
Y372648D01*
X1023910D01*
Y372544D01*
X1024015D01*
Y372440D01*
X1024119D01*
Y372336D01*
X1024223D01*
Y372231D01*
X1024327D01*
Y372023D01*
X1024432D01*
Y371919D01*
X1024536D01*
Y371814D01*
X1024640D01*
Y371710D01*
X1024744D01*
Y371606D01*
X1024848D01*
Y371502D01*
X1024953D01*
Y371398D01*
X1025057D01*
Y371189D01*
X1025161D01*
Y371085D01*
X1025265D01*
Y370981D01*
X1025370D01*
Y370876D01*
X1025474D01*
Y370772D01*
X1025578D01*
Y370668D01*
X1025682D01*
Y370564D01*
X1025787D01*
Y370460D01*
X1025891D01*
Y370355D01*
X1025995D01*
Y370251D01*
X1026099D01*
Y370147D01*
X1026203D01*
Y370043D01*
X1026308D01*
Y369938D01*
X1026412D01*
Y369834D01*
X1026620D01*
Y369730D01*
X1026724D01*
Y369626D01*
X1026829D01*
Y369521D01*
X1026933D01*
Y369417D01*
X1027037D01*
Y369313D01*
X1027141D01*
Y369209D01*
X1027246D01*
Y369105D01*
X1027454D01*
Y369000D01*
X1027558D01*
Y368896D01*
X1027663D01*
Y368792D01*
X1027767D01*
Y368688D01*
X1027871D01*
Y368583D01*
X1028080D01*
Y368479D01*
X1028184D01*
Y368375D01*
X1028288D01*
Y368271D01*
X1028496D01*
Y368167D01*
X1028601D01*
Y368062D01*
X1028705D01*
Y367958D01*
X1028913D01*
Y367854D01*
X1029017D01*
Y367750D01*
X1029122D01*
Y367645D01*
X1029330D01*
Y367541D01*
X1029434D01*
Y367437D01*
X1029643D01*
Y367333D01*
X1029747D01*
Y367229D01*
X1029956D01*
Y367124D01*
X1030060D01*
Y367020D01*
X1030268D01*
Y366916D01*
X1030477D01*
Y366812D01*
X1030581D01*
Y366707D01*
X1030789D01*
Y366603D01*
X1030998D01*
Y366499D01*
X1031102D01*
Y366395D01*
X1031311D01*
Y366291D01*
X1031519D01*
Y366186D01*
X1031727D01*
Y366082D01*
X1031832D01*
Y365978D01*
X1032040D01*
Y365874D01*
X1032249D01*
Y365769D01*
X1032457D01*
Y365665D01*
X1032665D01*
Y365561D01*
X1032874D01*
Y365457D01*
X1033186D01*
Y365353D01*
X1033395D01*
Y365248D01*
X1033603D01*
Y365144D01*
X1033812D01*
Y365040D01*
X1034125D01*
Y364936D01*
X1034333D01*
Y364831D01*
X1034646D01*
Y364727D01*
X1034854D01*
Y364623D01*
X1035167D01*
Y364519D01*
X1035480D01*
Y364414D01*
X1035792D01*
Y364310D01*
X1036105D01*
Y364206D01*
X1036417D01*
Y364102D01*
X1036834D01*
Y363997D01*
X1037147D01*
Y363893D01*
X1037564D01*
Y363789D01*
X1037981D01*
Y363685D01*
X1038502D01*
Y363581D01*
X1038919D01*
Y363476D01*
X1039544D01*
Y363372D01*
X1040170D01*
Y363268D01*
X1041003D01*
Y363164D01*
X1042254D01*
Y363060D01*
X1045381D01*
Y363164D01*
X1046632D01*
Y363268D01*
X1047465D01*
Y363372D01*
X1048091D01*
Y363476D01*
X1048716D01*
Y363581D01*
X1049133D01*
Y363685D01*
X1049654D01*
Y363789D01*
X1050071D01*
Y363893D01*
X1050488D01*
Y363997D01*
X1050801D01*
Y364102D01*
X1051218D01*
Y364206D01*
X1051530D01*
Y364310D01*
X1051843D01*
Y364414D01*
X1052156D01*
Y364519D01*
X1052468D01*
Y364623D01*
X1052781D01*
Y364727D01*
X1052989D01*
Y364831D01*
X1053302D01*
Y364936D01*
X1053511D01*
Y365040D01*
X1053823D01*
Y365144D01*
X1054032D01*
Y365248D01*
X1054240D01*
Y365353D01*
X1054449D01*
Y365457D01*
X1054761D01*
Y365561D01*
X1054970D01*
Y365665D01*
X1055178D01*
Y365769D01*
X1055387D01*
Y365874D01*
X1055595D01*
Y365978D01*
X1055804D01*
Y366082D01*
X1055908D01*
Y366186D01*
X1056116D01*
Y366291D01*
X1056325D01*
Y366395D01*
X1056533D01*
Y366499D01*
X1056637D01*
Y366603D01*
X1056846D01*
Y366707D01*
X1057054D01*
Y366812D01*
X1057158D01*
Y366916D01*
X1057367D01*
Y367020D01*
X1057575D01*
Y367124D01*
X1057680D01*
Y367229D01*
X1057888D01*
Y367333D01*
X1057992D01*
Y367437D01*
X1058201D01*
Y367541D01*
X1058305D01*
Y367645D01*
X1058513D01*
Y367750D01*
X1058618D01*
Y367854D01*
X1058722D01*
Y367958D01*
X1058930D01*
Y368062D01*
X1059035D01*
Y368167D01*
X1059139D01*
Y368271D01*
X1059347D01*
Y368375D01*
X1059451D01*
Y368479D01*
X1059556D01*
Y368583D01*
X1059764D01*
Y368688D01*
X1059868D01*
Y368792D01*
X1059973D01*
Y368896D01*
X1060077D01*
Y369000D01*
X1060181D01*
Y369105D01*
X1060389D01*
Y369209D01*
X1060494D01*
Y369313D01*
X1060598D01*
Y369417D01*
X1060702D01*
Y369521D01*
X1060806D01*
Y369626D01*
X1060911D01*
Y369730D01*
X1061015D01*
Y369834D01*
X1061223D01*
Y369938D01*
X1061328D01*
Y370043D01*
X1061432D01*
Y370147D01*
X1061536D01*
Y370251D01*
X1061640D01*
Y370355D01*
X1061744D01*
Y370460D01*
X1061849D01*
Y370564D01*
X1061953D01*
Y370668D01*
X1062057D01*
Y370772D01*
X1062161D01*
Y370876D01*
X1062265D01*
Y370981D01*
X1062370D01*
Y371085D01*
X1062474D01*
Y371189D01*
X1062578D01*
Y371398D01*
X1062682D01*
Y371502D01*
X1062787D01*
Y371606D01*
X1062891D01*
Y371710D01*
X1062995D01*
Y371814D01*
X1063099D01*
Y371919D01*
X1063204D01*
Y372023D01*
X1063308D01*
Y372231D01*
X1063412D01*
Y372336D01*
X1063516D01*
Y372440D01*
X1063621D01*
Y372544D01*
X1063725D01*
Y372648D01*
X1063829D01*
Y372857D01*
X1063933D01*
Y372961D01*
X1064037D01*
Y373065D01*
X1064142D01*
Y373274D01*
X1064246D01*
Y373378D01*
X1064350D01*
Y373482D01*
X1064454D01*
Y373690D01*
X1064558D01*
Y373795D01*
X1064663D01*
Y373899D01*
X1064767D01*
Y374107D01*
X1064871D01*
Y374212D01*
X1064975D01*
Y374420D01*
X1065080D01*
Y374524D01*
X1065184D01*
Y374733D01*
X1065288D01*
Y374837D01*
X1065392D01*
Y375046D01*
X1065497D01*
Y375254D01*
X1065601D01*
Y375358D01*
X1065705D01*
Y375567D01*
X1065809D01*
Y375775D01*
X1065913D01*
Y375879D01*
X1066018D01*
Y376088D01*
X1066122D01*
Y376296D01*
X1066226D01*
Y376505D01*
X1066330D01*
Y376609D01*
X1066434D01*
Y376817D01*
X1066539D01*
Y377026D01*
X1066643D01*
Y377234D01*
X1066747D01*
Y377443D01*
X1066851D01*
Y377651D01*
X1066956D01*
Y377964D01*
X1067060D01*
Y378172D01*
X1067164D01*
Y378381D01*
X1067268D01*
Y378589D01*
X1067373D01*
Y378902D01*
X1067477D01*
Y379110D01*
X1067581D01*
Y379423D01*
X1067685D01*
Y379631D01*
X1067790D01*
Y379944D01*
X1067894D01*
Y380257D01*
X1067998D01*
Y380569D01*
X1068102D01*
Y380882D01*
X1068206D01*
Y381195D01*
X1068311D01*
Y381612D01*
X1068415D01*
Y381924D01*
X1068519D01*
Y382341D01*
X1068623D01*
Y382758D01*
X1068727D01*
Y383279D01*
X1068832D01*
Y383696D01*
X1068936D01*
Y384322D01*
X1069040D01*
Y384947D01*
X1069144D01*
Y385781D01*
X1069249D01*
Y387031D01*
X1069353D01*
Y390158D01*
X1069249D01*
Y391409D01*
X1069144D01*
Y392243D01*
X1069040D01*
Y392868D01*
X1068936D01*
Y393493D01*
X1068832D01*
Y393910D01*
X1068727D01*
Y394431D01*
X1068623D01*
Y394848D01*
X1068519D01*
Y395265D01*
X1068415D01*
Y395578D01*
X1068311D01*
Y395995D01*
X1068206D01*
Y396307D01*
X1068102D01*
Y396620D01*
X1067998D01*
Y396933D01*
X1067894D01*
Y397246D01*
X1067790D01*
Y397558D01*
X1067685D01*
Y397767D01*
X1067581D01*
Y398079D01*
X1067477D01*
Y398288D01*
X1067373D01*
Y398601D01*
X1067268D01*
Y398809D01*
X1067164D01*
Y399017D01*
X1067060D01*
Y399226D01*
X1066956D01*
Y399538D01*
X1066851D01*
Y399747D01*
X1066747D01*
Y399955D01*
X1066643D01*
Y400164D01*
X1066539D01*
Y400372D01*
X1066434D01*
Y400476D01*
X1066330D01*
Y400685D01*
X1066226D01*
Y400894D01*
X1066122D01*
Y401102D01*
X1066018D01*
Y401310D01*
X1065913D01*
Y401415D01*
X1065809D01*
Y401623D01*
X1065705D01*
Y401832D01*
X1065601D01*
Y401936D01*
X1065497D01*
Y402144D01*
X1065392D01*
Y402353D01*
X1065288D01*
Y402457D01*
X1065184D01*
Y402665D01*
X1065080D01*
Y402770D01*
X1064975D01*
Y402978D01*
X1064871D01*
Y403082D01*
X1064767D01*
Y403291D01*
X1064663D01*
Y403395D01*
X1064558D01*
Y403499D01*
X1064454D01*
Y403708D01*
X1064350D01*
Y403812D01*
X1064246D01*
Y403916D01*
X1064142D01*
Y404124D01*
X1064037D01*
Y404229D01*
X1063933D01*
Y404333D01*
X1063829D01*
Y404541D01*
X1063725D01*
Y404646D01*
X1063621D01*
Y404750D01*
X1063516D01*
Y404854D01*
X1063412D01*
Y404958D01*
X1063308D01*
Y405167D01*
X1063204D01*
Y405271D01*
X1063099D01*
Y405375D01*
X1062995D01*
Y405479D01*
X1062891D01*
Y405584D01*
X1062787D01*
Y405688D01*
X1062682D01*
Y405792D01*
X1062578D01*
Y406001D01*
X1062474D01*
Y406105D01*
X1062370D01*
Y406209D01*
X1062265D01*
Y406313D01*
X1062161D01*
Y406417D01*
X1062057D01*
Y406522D01*
X1061953D01*
Y406626D01*
X1061849D01*
Y406730D01*
X1061744D01*
Y406834D01*
X1061640D01*
Y406939D01*
X1061536D01*
Y407043D01*
X1061432D01*
Y407147D01*
X1061328D01*
Y407251D01*
X1061223D01*
Y407355D01*
X1061015D01*
Y407460D01*
X1060911D01*
Y407564D01*
X1060806D01*
Y407668D01*
X1060702D01*
Y407772D01*
X1060598D01*
Y407877D01*
X1060494D01*
Y407981D01*
X1060389D01*
Y408085D01*
X1060181D01*
Y408189D01*
X1060077D01*
Y408293D01*
X1059973D01*
Y408398D01*
X1059868D01*
Y408502D01*
X1059764D01*
Y408606D01*
X1059556D01*
Y408710D01*
X1059451D01*
Y408815D01*
X1059347D01*
Y408919D01*
X1059139D01*
Y409023D01*
X1059035D01*
Y409127D01*
X1058930D01*
Y409231D01*
X1058722D01*
Y409336D01*
X1058618D01*
Y409440D01*
X1058513D01*
Y409544D01*
X1058305D01*
Y409648D01*
X1058201D01*
Y409753D01*
X1057992D01*
Y409857D01*
X1057888D01*
Y409961D01*
X1057680D01*
Y410065D01*
X1057575D01*
Y410169D01*
X1057367D01*
Y410274D01*
X1057158D01*
Y410378D01*
X1057054D01*
Y410482D01*
X1056846D01*
Y410587D01*
X1056637D01*
Y410691D01*
X1056533D01*
Y410795D01*
X1056325D01*
Y410899D01*
X1056116D01*
Y411003D01*
X1055908D01*
Y411108D01*
X1055699D01*
Y411212D01*
X1055595D01*
Y411316D01*
X1055387D01*
Y411420D01*
X1055178D01*
Y411525D01*
X1054970D01*
Y411629D01*
X1054761D01*
Y411733D01*
X1054449D01*
Y411837D01*
X1054240D01*
Y411941D01*
X1054032D01*
Y412046D01*
X1053823D01*
Y412150D01*
X1053511D01*
Y412254D01*
X1053302D01*
Y412358D01*
X1052989D01*
Y412463D01*
X1052781D01*
Y412567D01*
X1052468D01*
Y412671D01*
X1052156D01*
Y412775D01*
X1051843D01*
Y412879D01*
X1051530D01*
Y412984D01*
X1051218D01*
Y413088D01*
X1050801D01*
Y413192D01*
X1050488D01*
Y413296D01*
X1050071D01*
Y413400D01*
X1049654D01*
Y413505D01*
X1049133D01*
Y413609D01*
X1048716D01*
Y413713D01*
X1048091D01*
Y413817D01*
X1047465D01*
Y413922D01*
X1046632D01*
Y414026D01*
X1045381D01*
Y414130D01*
D02*
G37*
%LPD*%
G36*
X1045173Y407981D02*
X1046215D01*
Y407877D01*
X1046944D01*
Y407772D01*
X1047465D01*
Y407668D01*
X1047987D01*
Y407564D01*
X1048403D01*
Y407460D01*
X1048820D01*
Y407355D01*
X1049237D01*
Y407251D01*
X1049550D01*
Y407147D01*
X1049863D01*
Y407043D01*
X1050175D01*
Y406939D01*
X1050488D01*
Y406834D01*
X1050801D01*
Y406730D01*
X1051009D01*
Y406626D01*
X1051322D01*
Y406522D01*
X1051530D01*
Y406417D01*
X1051739D01*
Y406313D01*
X1051947D01*
Y406209D01*
X1052260D01*
Y406105D01*
X1052468D01*
Y406001D01*
X1052572D01*
Y405896D01*
X1052781D01*
Y405792D01*
X1052989D01*
Y405688D01*
X1053198D01*
Y405584D01*
X1053406D01*
Y405479D01*
X1053615D01*
Y405375D01*
X1053719D01*
Y405271D01*
X1053928D01*
Y405167D01*
X1054136D01*
Y405062D01*
X1054240D01*
Y404958D01*
X1054449D01*
Y404854D01*
X1054553D01*
Y404750D01*
X1054761D01*
Y404646D01*
X1054865D01*
Y404541D01*
X1055074D01*
Y404437D01*
X1055178D01*
Y404333D01*
X1055282D01*
Y404229D01*
X1055491D01*
Y404124D01*
X1055595D01*
Y404020D01*
X1055699D01*
Y403916D01*
X1055908D01*
Y403812D01*
X1056012D01*
Y403708D01*
X1056116D01*
Y403603D01*
X1056220D01*
Y403499D01*
X1056325D01*
Y403395D01*
X1056429D01*
Y403291D01*
X1056637D01*
Y403186D01*
X1056741D01*
Y403082D01*
X1056846D01*
Y402978D01*
X1056950D01*
Y402874D01*
X1057054D01*
Y402770D01*
X1057158D01*
Y402665D01*
X1057263D01*
Y402561D01*
X1057367D01*
Y402457D01*
X1057471D01*
Y402353D01*
X1057575D01*
Y402248D01*
X1057680D01*
Y402144D01*
X1057784D01*
Y402040D01*
X1057888D01*
Y401936D01*
X1057992D01*
Y401832D01*
X1058096D01*
Y401727D01*
X1058201D01*
Y401623D01*
X1058305D01*
Y401519D01*
X1058409D01*
Y401415D01*
X1058513D01*
Y401206D01*
X1058618D01*
Y401102D01*
X1058722D01*
Y400998D01*
X1058826D01*
Y400894D01*
X1058930D01*
Y400789D01*
X1059035D01*
Y400685D01*
X1059139D01*
Y400476D01*
X1059243D01*
Y400372D01*
X1059347D01*
Y400268D01*
X1059451D01*
Y400060D01*
X1059556D01*
Y399955D01*
X1059660D01*
Y399747D01*
X1059764D01*
Y399643D01*
X1059868D01*
Y399434D01*
X1059973D01*
Y399330D01*
X1060077D01*
Y399122D01*
X1060181D01*
Y399017D01*
X1060285D01*
Y398809D01*
X1060389D01*
Y398705D01*
X1060494D01*
Y398496D01*
X1060598D01*
Y398288D01*
X1060702D01*
Y398184D01*
X1060806D01*
Y397975D01*
X1060911D01*
Y397767D01*
X1061015D01*
Y397558D01*
X1061119D01*
Y397350D01*
X1061223D01*
Y397141D01*
X1061328D01*
Y396933D01*
X1061432D01*
Y396724D01*
X1061536D01*
Y396516D01*
X1061640D01*
Y396203D01*
X1061744D01*
Y395995D01*
X1061849D01*
Y395786D01*
X1061953D01*
Y395474D01*
X1062057D01*
Y395265D01*
X1062161D01*
Y394848D01*
X1062265D01*
Y394536D01*
X1062370D01*
Y394223D01*
X1062474D01*
Y393910D01*
X1062578D01*
Y393598D01*
X1062682D01*
Y393181D01*
X1062787D01*
Y392660D01*
X1062891D01*
Y392138D01*
X1062995D01*
Y391617D01*
X1063099D01*
Y390575D01*
X1063204D01*
Y388699D01*
X1063308D01*
Y388595D01*
X1063204D01*
Y386614D01*
X1063099D01*
Y385676D01*
X1062995D01*
Y385155D01*
X1062891D01*
Y384634D01*
X1062787D01*
Y384113D01*
X1062682D01*
Y383696D01*
X1062578D01*
Y383383D01*
X1062474D01*
Y383071D01*
X1062370D01*
Y382758D01*
X1062265D01*
Y382341D01*
X1062161D01*
Y382029D01*
X1062057D01*
Y381820D01*
X1061953D01*
Y381507D01*
X1061849D01*
Y381299D01*
X1061744D01*
Y380986D01*
X1061640D01*
Y380778D01*
X1061536D01*
Y380569D01*
X1061432D01*
Y380361D01*
X1061328D01*
Y380153D01*
X1061223D01*
Y379944D01*
X1061119D01*
Y379736D01*
X1061015D01*
Y379527D01*
X1060911D01*
Y379319D01*
X1060806D01*
Y379110D01*
X1060702D01*
Y378902D01*
X1060598D01*
Y378798D01*
X1060494D01*
Y378589D01*
X1060389D01*
Y378381D01*
X1060285D01*
Y378276D01*
X1060181D01*
Y378068D01*
X1060077D01*
Y377964D01*
X1059973D01*
Y377755D01*
X1059868D01*
Y377651D01*
X1059764D01*
Y377443D01*
X1059660D01*
Y377338D01*
X1059556D01*
Y377130D01*
X1059451D01*
Y377026D01*
X1059347D01*
Y376922D01*
X1059243D01*
Y376713D01*
X1059139D01*
Y376609D01*
X1059035D01*
Y376505D01*
X1058930D01*
Y376400D01*
X1058826D01*
Y376296D01*
X1058722D01*
Y376088D01*
X1058618D01*
Y375984D01*
X1058513D01*
Y375879D01*
X1058409D01*
Y375775D01*
X1058305D01*
Y375671D01*
X1058201D01*
Y375567D01*
X1058096D01*
Y375462D01*
X1057992D01*
Y375358D01*
X1057888D01*
Y375254D01*
X1057784D01*
Y375150D01*
X1057680D01*
Y375046D01*
X1057575D01*
Y374941D01*
X1057471D01*
Y374837D01*
X1057367D01*
Y374733D01*
X1057263D01*
Y374629D01*
X1057158D01*
Y374524D01*
X1057054D01*
Y374420D01*
X1056950D01*
Y374316D01*
X1056846D01*
Y374212D01*
X1056741D01*
Y374107D01*
X1056637D01*
Y374003D01*
X1056533D01*
Y373899D01*
X1056429D01*
Y373795D01*
X1056220D01*
Y373690D01*
X1056116D01*
Y373586D01*
X1056012D01*
Y373482D01*
X1055908D01*
Y373378D01*
X1055804D01*
Y373274D01*
X1055595D01*
Y373169D01*
X1055491D01*
Y373065D01*
X1055387D01*
Y372961D01*
X1055178D01*
Y372857D01*
X1055074D01*
Y372752D01*
X1054970D01*
Y372648D01*
X1054761D01*
Y372544D01*
X1054657D01*
Y372440D01*
X1054449D01*
Y372336D01*
X1054344D01*
Y372231D01*
X1054136D01*
Y372127D01*
X1053928D01*
Y372023D01*
X1053823D01*
Y371919D01*
X1053615D01*
Y371814D01*
X1053406D01*
Y371710D01*
X1053198D01*
Y371606D01*
X1053094D01*
Y371502D01*
X1052885D01*
Y371398D01*
X1052677D01*
Y371293D01*
X1052468D01*
Y371189D01*
X1052260D01*
Y371085D01*
X1052051D01*
Y370981D01*
X1051843D01*
Y370876D01*
X1051635D01*
Y370772D01*
X1051322D01*
Y370668D01*
X1051113D01*
Y370564D01*
X1050801D01*
Y370460D01*
X1050592D01*
Y370355D01*
X1050280D01*
Y370251D01*
X1049967D01*
Y370147D01*
X1049654D01*
Y370043D01*
X1049342D01*
Y369938D01*
X1048925D01*
Y369834D01*
X1048508D01*
Y369730D01*
X1048091D01*
Y369626D01*
X1047570D01*
Y369521D01*
X1047049D01*
Y369417D01*
X1046423D01*
Y369313D01*
X1045485D01*
Y369209D01*
X1042150D01*
Y369313D01*
X1041212D01*
Y369417D01*
X1040587D01*
Y369521D01*
X1040065D01*
Y369626D01*
X1039544D01*
Y369730D01*
X1039127D01*
Y369834D01*
X1038710D01*
Y369938D01*
X1038294D01*
Y370043D01*
X1037981D01*
Y370147D01*
X1037668D01*
Y370251D01*
X1037356D01*
Y370355D01*
X1037043D01*
Y370460D01*
X1036834D01*
Y370564D01*
X1036522D01*
Y370668D01*
X1036313D01*
Y370772D01*
X1036001D01*
Y370876D01*
X1035792D01*
Y370981D01*
X1035584D01*
Y371085D01*
X1035375D01*
Y371189D01*
X1035167D01*
Y371293D01*
X1034958D01*
Y371398D01*
X1034750D01*
Y371502D01*
X1034541D01*
Y371606D01*
X1034437D01*
Y371710D01*
X1034229D01*
Y371814D01*
X1034020D01*
Y371919D01*
X1033812D01*
Y372023D01*
X1033708D01*
Y372127D01*
X1033499D01*
Y372231D01*
X1033395D01*
Y372336D01*
X1033186D01*
Y372440D01*
X1032978D01*
Y372544D01*
X1032874D01*
Y372648D01*
X1032665D01*
Y372752D01*
X1032561D01*
Y372857D01*
X1032457D01*
Y372961D01*
X1032249D01*
Y373065D01*
X1032144D01*
Y373169D01*
X1032040D01*
Y373274D01*
X1031832D01*
Y373378D01*
X1031727D01*
Y373482D01*
X1031623D01*
Y373586D01*
X1031519D01*
Y373690D01*
X1031415D01*
Y373795D01*
X1031206D01*
Y373899D01*
X1031102D01*
Y374003D01*
X1030998D01*
Y374107D01*
X1030894D01*
Y374212D01*
X1030789D01*
Y374316D01*
X1030685D01*
Y374420D01*
X1030581D01*
Y374524D01*
X1030477D01*
Y374629D01*
X1030372D01*
Y374733D01*
X1030268D01*
Y374837D01*
X1030164D01*
Y374941D01*
X1030060D01*
Y375046D01*
X1029956D01*
Y375150D01*
X1029851D01*
Y375254D01*
X1029747D01*
Y375358D01*
X1029643D01*
Y375462D01*
X1029539D01*
Y375567D01*
X1029434D01*
Y375671D01*
X1029330D01*
Y375775D01*
X1029226D01*
Y375879D01*
X1029122D01*
Y375984D01*
X1029017D01*
Y376088D01*
X1028913D01*
Y376296D01*
X1028809D01*
Y376400D01*
X1028705D01*
Y376505D01*
X1028601D01*
Y376609D01*
X1028496D01*
Y376817D01*
X1028392D01*
Y376922D01*
X1028288D01*
Y377026D01*
X1028184D01*
Y377234D01*
X1028080D01*
Y377338D01*
X1027975D01*
Y377547D01*
X1027871D01*
Y377651D01*
X1027767D01*
Y377755D01*
X1027663D01*
Y377964D01*
X1027558D01*
Y378068D01*
X1027454D01*
Y378276D01*
X1027350D01*
Y378381D01*
X1027246D01*
Y378589D01*
X1027141D01*
Y378798D01*
X1027037D01*
Y378902D01*
X1026933D01*
Y379110D01*
X1026829D01*
Y379319D01*
X1026724D01*
Y379527D01*
X1026620D01*
Y379736D01*
X1026516D01*
Y379944D01*
X1026412D01*
Y380153D01*
X1026308D01*
Y380361D01*
X1026203D01*
Y380569D01*
X1026099D01*
Y380778D01*
X1025995D01*
Y380986D01*
X1025891D01*
Y381299D01*
X1025787D01*
Y381507D01*
X1025682D01*
Y381820D01*
X1025578D01*
Y382029D01*
X1025474D01*
Y382341D01*
X1025370D01*
Y382758D01*
X1025265D01*
Y383071D01*
X1025161D01*
Y383383D01*
X1025057D01*
Y383800D01*
X1024953D01*
Y384217D01*
X1024848D01*
Y384634D01*
X1024744D01*
Y385155D01*
X1024640D01*
Y385885D01*
X1024536D01*
Y386614D01*
X1024432D01*
Y388595D01*
X1024327D01*
Y388699D01*
X1024432D01*
Y390575D01*
X1024536D01*
Y391409D01*
X1024640D01*
Y392034D01*
X1024744D01*
Y392660D01*
X1024848D01*
Y393077D01*
X1024953D01*
Y393493D01*
X1025057D01*
Y393806D01*
X1025161D01*
Y394223D01*
X1025265D01*
Y394536D01*
X1025370D01*
Y394848D01*
X1025474D01*
Y395265D01*
X1025578D01*
Y395474D01*
X1025682D01*
Y395786D01*
X1025787D01*
Y395995D01*
X1025891D01*
Y396203D01*
X1025995D01*
Y396516D01*
X1026099D01*
Y396724D01*
X1026203D01*
Y396933D01*
X1026308D01*
Y397141D01*
X1026412D01*
Y397350D01*
X1026516D01*
Y397558D01*
X1026620D01*
Y397767D01*
X1026724D01*
Y397975D01*
X1026829D01*
Y398184D01*
X1026933D01*
Y398288D01*
X1027037D01*
Y398496D01*
X1027141D01*
Y398705D01*
X1027246D01*
Y398809D01*
X1027350D01*
Y399017D01*
X1027454D01*
Y399122D01*
X1027558D01*
Y399330D01*
X1027663D01*
Y399434D01*
X1027767D01*
Y399643D01*
X1027871D01*
Y399747D01*
X1027975D01*
Y399955D01*
X1028080D01*
Y400060D01*
X1028184D01*
Y400268D01*
X1028288D01*
Y400372D01*
X1028392D01*
Y400476D01*
X1028496D01*
Y400581D01*
X1028601D01*
Y400789D01*
X1028705D01*
Y400894D01*
X1028809D01*
Y400998D01*
X1028913D01*
Y401102D01*
X1029017D01*
Y401206D01*
X1029122D01*
Y401415D01*
X1029226D01*
Y401519D01*
X1029330D01*
Y401623D01*
X1029434D01*
Y401727D01*
X1029539D01*
Y401832D01*
X1029643D01*
Y401936D01*
X1029747D01*
Y402040D01*
X1029851D01*
Y402144D01*
X1029956D01*
Y402248D01*
X1030060D01*
Y402353D01*
X1030164D01*
Y402457D01*
X1030268D01*
Y402561D01*
X1030372D01*
Y402665D01*
X1030477D01*
Y402770D01*
X1030581D01*
Y402874D01*
X1030685D01*
Y402978D01*
X1030789D01*
Y403082D01*
X1030894D01*
Y403186D01*
X1030998D01*
Y403291D01*
X1031206D01*
Y403395D01*
X1031311D01*
Y403499D01*
X1031415D01*
Y403603D01*
X1031519D01*
Y403708D01*
X1031623D01*
Y403812D01*
X1031727D01*
Y403916D01*
X1031936D01*
Y404020D01*
X1032040D01*
Y404124D01*
X1032144D01*
Y404229D01*
X1032353D01*
Y404333D01*
X1032457D01*
Y404437D01*
X1032561D01*
Y404541D01*
X1032770D01*
Y404646D01*
X1032874D01*
Y404750D01*
X1033082D01*
Y404854D01*
X1033186D01*
Y404958D01*
X1033395D01*
Y405062D01*
X1033603D01*
Y405167D01*
X1033708D01*
Y405271D01*
X1033916D01*
Y405375D01*
X1034125D01*
Y405479D01*
X1034229D01*
Y405584D01*
X1034437D01*
Y405688D01*
X1034646D01*
Y405792D01*
X1034854D01*
Y405896D01*
X1035063D01*
Y406001D01*
X1035167D01*
Y406105D01*
X1035375D01*
Y406209D01*
X1035688D01*
Y406313D01*
X1035896D01*
Y406417D01*
X1036105D01*
Y406522D01*
X1036313D01*
Y406626D01*
X1036626D01*
Y406730D01*
X1036834D01*
Y406834D01*
X1037147D01*
Y406939D01*
X1037460D01*
Y407043D01*
X1037773D01*
Y407147D01*
X1038085D01*
Y407251D01*
X1038398D01*
Y407355D01*
X1038815D01*
Y407460D01*
X1039232D01*
Y407564D01*
X1039649D01*
Y407668D01*
X1040170D01*
Y407772D01*
X1040691D01*
Y407877D01*
X1041420D01*
Y407981D01*
X1042463D01*
Y408085D01*
X1045173D01*
Y407981D01*
D02*
G37*
%LPC*%
G36*
X1044964Y406730D02*
X1044026D01*
Y402040D01*
X1043922D01*
Y401936D01*
X1043818D01*
Y401832D01*
X1043713D01*
Y401727D01*
X1043609D01*
Y401623D01*
X1043505D01*
Y401519D01*
X1043401D01*
Y401415D01*
X1043296D01*
Y401310D01*
X1043192D01*
Y401206D01*
X1043088D01*
Y401102D01*
X1042984D01*
Y400998D01*
X1042879D01*
Y400894D01*
X1042775D01*
Y400789D01*
X1042671D01*
Y400685D01*
X1042567D01*
Y400581D01*
X1042463D01*
Y400476D01*
X1042358D01*
Y400372D01*
X1042254D01*
Y400268D01*
X1042150D01*
Y400164D01*
X1042046D01*
Y400060D01*
X1041942D01*
Y399955D01*
X1041837D01*
Y399851D01*
X1041733D01*
Y399747D01*
X1041629D01*
Y399643D01*
X1041525D01*
Y399538D01*
X1041420D01*
Y399434D01*
X1041316D01*
Y399330D01*
X1041212D01*
Y399226D01*
X1041108D01*
Y399122D01*
X1041003D01*
Y399017D01*
X1040899D01*
Y398913D01*
X1040795D01*
Y398809D01*
X1040691D01*
Y398705D01*
X1040587D01*
Y398601D01*
X1040482D01*
Y398496D01*
X1040378D01*
Y398392D01*
X1040274D01*
Y398288D01*
X1040170D01*
Y398184D01*
X1040065D01*
Y398079D01*
X1039961D01*
Y397975D01*
X1039857D01*
Y397871D01*
X1039753D01*
Y397767D01*
X1039649D01*
Y397663D01*
X1039544D01*
Y397558D01*
X1039440D01*
Y397454D01*
X1039336D01*
Y397350D01*
X1039232D01*
Y397246D01*
X1039127D01*
Y397141D01*
X1039023D01*
Y397037D01*
X1038919D01*
Y396933D01*
X1038815D01*
Y396829D01*
X1038710D01*
Y396724D01*
X1038606D01*
Y396620D01*
X1038502D01*
Y396516D01*
X1038398D01*
Y396412D01*
X1038294D01*
Y396307D01*
X1038189D01*
Y395891D01*
X1038085D01*
Y395578D01*
X1037981D01*
Y395369D01*
X1037877D01*
Y395161D01*
X1037773D01*
Y394953D01*
X1037668D01*
Y394744D01*
X1037564D01*
Y394640D01*
X1037460D01*
Y394536D01*
X1037356D01*
Y394431D01*
X1037251D01*
Y394327D01*
X1037147D01*
Y394223D01*
X1036939D01*
Y394119D01*
X1036834D01*
Y394015D01*
X1036730D01*
Y393910D01*
X1036522D01*
Y393806D01*
X1036313D01*
Y393702D01*
X1036001D01*
Y393598D01*
X1035480D01*
Y393493D01*
X1034958D01*
Y393598D01*
X1034333D01*
Y393702D01*
X1033916D01*
Y393806D01*
X1033812D01*
Y393910D01*
X1033603D01*
Y394015D01*
X1033395D01*
Y394119D01*
X1033291D01*
Y394223D01*
X1033186D01*
Y394327D01*
X1033082D01*
Y394431D01*
X1032978D01*
Y394536D01*
X1032874D01*
Y394640D01*
X1032770D01*
Y394744D01*
X1032665D01*
Y394848D01*
X1032561D01*
Y395057D01*
X1032457D01*
Y395265D01*
X1032353D01*
Y395474D01*
X1032249D01*
Y395786D01*
X1032144D01*
Y397350D01*
X1032249D01*
Y397663D01*
X1032353D01*
Y397975D01*
X1032457D01*
Y398184D01*
X1032561D01*
Y398288D01*
X1032665D01*
Y398496D01*
X1032770D01*
Y398601D01*
X1032874D01*
Y398705D01*
X1032978D01*
Y398809D01*
X1033082D01*
Y398913D01*
X1033186D01*
Y399017D01*
X1033291D01*
Y399122D01*
X1033499D01*
Y399226D01*
X1033708D01*
Y399330D01*
X1033812D01*
Y399434D01*
X1034125D01*
Y399538D01*
X1034541D01*
Y399643D01*
X1035792D01*
Y399538D01*
X1036209D01*
Y399434D01*
X1036417D01*
Y399330D01*
X1036626D01*
Y399226D01*
X1036834D01*
Y399122D01*
X1036939D01*
Y399017D01*
X1037147D01*
Y398913D01*
X1037251D01*
Y398809D01*
X1037356D01*
Y398705D01*
X1037460D01*
Y398601D01*
X1037564D01*
Y398496D01*
X1037668D01*
Y398288D01*
X1037773D01*
Y398184D01*
X1037877D01*
Y397975D01*
X1037981D01*
Y398079D01*
X1038085D01*
Y398184D01*
X1038189D01*
Y398288D01*
X1038294D01*
Y398392D01*
X1038398D01*
Y398496D01*
X1038502D01*
Y398601D01*
X1038606D01*
Y398705D01*
X1038710D01*
Y398809D01*
X1038815D01*
Y398913D01*
X1038919D01*
Y399017D01*
X1039023D01*
Y399122D01*
X1039127D01*
Y399226D01*
X1039232D01*
Y399330D01*
X1039336D01*
Y399434D01*
X1039440D01*
Y399538D01*
X1039544D01*
Y399643D01*
X1039649D01*
Y399747D01*
X1039753D01*
Y399851D01*
X1039857D01*
Y399955D01*
X1039961D01*
Y400060D01*
X1040065D01*
Y400164D01*
X1040170D01*
Y400268D01*
X1040274D01*
Y400372D01*
X1040378D01*
Y400476D01*
X1040482D01*
Y400581D01*
X1040691D01*
Y400685D01*
X1040795D01*
Y400789D01*
X1040899D01*
Y400894D01*
X1041003D01*
Y400998D01*
X1041108D01*
Y401102D01*
X1041212D01*
Y401206D01*
X1041316D01*
Y401310D01*
X1041420D01*
Y401415D01*
X1041525D01*
Y401519D01*
X1041629D01*
Y401623D01*
X1041733D01*
Y401727D01*
X1041837D01*
Y401832D01*
X1041942D01*
Y401936D01*
X1042046D01*
Y402040D01*
X1042150D01*
Y402144D01*
X1042254D01*
Y402248D01*
X1042358D01*
Y402353D01*
X1042463D01*
Y402457D01*
X1042567D01*
Y402561D01*
X1042671D01*
Y406626D01*
X1041942D01*
Y406522D01*
X1041003D01*
Y406417D01*
X1040482D01*
Y406313D01*
X1039961D01*
Y406209D01*
X1039544D01*
Y406105D01*
X1039127D01*
Y406001D01*
X1038710D01*
Y405896D01*
X1038398D01*
Y405792D01*
X1038085D01*
Y405688D01*
X1037668D01*
Y405584D01*
X1037460D01*
Y405479D01*
X1037147D01*
Y405375D01*
X1036939D01*
Y405271D01*
X1036730D01*
Y405167D01*
X1036417D01*
Y405062D01*
X1036209D01*
Y404958D01*
X1036001D01*
Y404854D01*
X1035792D01*
Y404750D01*
X1035584D01*
Y404646D01*
X1035375D01*
Y404541D01*
X1035167D01*
Y404437D01*
X1035063D01*
Y404333D01*
X1034854D01*
Y404229D01*
X1034646D01*
Y404124D01*
X1034437D01*
Y404020D01*
X1034333D01*
Y403916D01*
X1034125D01*
Y403812D01*
X1034020D01*
Y403708D01*
X1033812D01*
Y403603D01*
X1033708D01*
Y403499D01*
X1033499D01*
Y403395D01*
X1033291D01*
Y403291D01*
X1033186D01*
Y403186D01*
X1033082D01*
Y403082D01*
X1032874D01*
Y402978D01*
X1032770D01*
Y402874D01*
X1032665D01*
Y402770D01*
X1032561D01*
Y402665D01*
X1032353D01*
Y402561D01*
X1032249D01*
Y402457D01*
X1032144D01*
Y402353D01*
X1032040D01*
Y402248D01*
X1031832D01*
Y402144D01*
X1031727D01*
Y402040D01*
X1031623D01*
Y401936D01*
X1031519D01*
Y401832D01*
X1031415D01*
Y401727D01*
X1031311D01*
Y401623D01*
X1031206D01*
Y401519D01*
X1031102D01*
Y401415D01*
X1030998D01*
Y401310D01*
X1030894D01*
Y401206D01*
X1030789D01*
Y401102D01*
X1030685D01*
Y400998D01*
X1030581D01*
Y400894D01*
X1030477D01*
Y400789D01*
X1030372D01*
Y400685D01*
X1030268D01*
Y400581D01*
X1030164D01*
Y400476D01*
X1030060D01*
Y400268D01*
X1029956D01*
Y400164D01*
X1029851D01*
Y400060D01*
X1029747D01*
Y399955D01*
X1029643D01*
Y399851D01*
X1029539D01*
Y399643D01*
X1029434D01*
Y399538D01*
X1029330D01*
Y399330D01*
X1029226D01*
Y399226D01*
X1029122D01*
Y399122D01*
X1029017D01*
Y398913D01*
X1028913D01*
Y398809D01*
X1028809D01*
Y398601D01*
X1028705D01*
Y398496D01*
X1028601D01*
Y398288D01*
X1028496D01*
Y398184D01*
X1028392D01*
Y397975D01*
X1028288D01*
Y397767D01*
X1028184D01*
Y397558D01*
X1028080D01*
Y397454D01*
X1027975D01*
Y397246D01*
X1027871D01*
Y397037D01*
X1027767D01*
Y396829D01*
X1027663D01*
Y396620D01*
X1027558D01*
Y396412D01*
X1027454D01*
Y396203D01*
X1027350D01*
Y395995D01*
X1027246D01*
Y395786D01*
X1027141D01*
Y395578D01*
X1027037D01*
Y395265D01*
X1026933D01*
Y394953D01*
X1026829D01*
Y394640D01*
X1026724D01*
Y394327D01*
X1026620D01*
Y394015D01*
X1026516D01*
Y393702D01*
X1026412D01*
Y393285D01*
X1026308D01*
Y392868D01*
X1026203D01*
Y392451D01*
X1026099D01*
Y392034D01*
X1025995D01*
Y391305D01*
X1025891D01*
Y390575D01*
X1025787D01*
Y386719D01*
X1025891D01*
Y385781D01*
X1025995D01*
Y385260D01*
X1026099D01*
Y384739D01*
X1026203D01*
Y384322D01*
X1026308D01*
Y383905D01*
X1026412D01*
Y383592D01*
X1026516D01*
Y383175D01*
X1026620D01*
Y382862D01*
X1026724D01*
Y382550D01*
X1026829D01*
Y382237D01*
X1026933D01*
Y382029D01*
X1027037D01*
Y381716D01*
X1027141D01*
Y381507D01*
X1027246D01*
Y381299D01*
X1027350D01*
Y381091D01*
X1027454D01*
Y380778D01*
X1027558D01*
Y380569D01*
X1027663D01*
Y380465D01*
X1027767D01*
Y380257D01*
X1027871D01*
Y380048D01*
X1027975D01*
Y379840D01*
X1028080D01*
Y379631D01*
X1028184D01*
Y379423D01*
X1028288D01*
Y379319D01*
X1028392D01*
Y379110D01*
X1028496D01*
Y378902D01*
X1028601D01*
Y378693D01*
X1028705D01*
Y378589D01*
X1028809D01*
Y378485D01*
X1028913D01*
Y378276D01*
X1029017D01*
Y378172D01*
X1029122D01*
Y377964D01*
X1029226D01*
Y377860D01*
X1029330D01*
Y377755D01*
X1029434D01*
Y377547D01*
X1029539D01*
Y377443D01*
X1029643D01*
Y377338D01*
X1029747D01*
Y377234D01*
X1029851D01*
Y377026D01*
X1029956D01*
Y376922D01*
X1030060D01*
Y376817D01*
X1030164D01*
Y376713D01*
X1030268D01*
Y376609D01*
X1030372D01*
Y376505D01*
X1030477D01*
Y376400D01*
X1030581D01*
Y376192D01*
X1030685D01*
Y376088D01*
X1030789D01*
Y375984D01*
X1030894D01*
Y375879D01*
X1030998D01*
Y375775D01*
X1031102D01*
Y375671D01*
X1031206D01*
Y375567D01*
X1031311D01*
Y375462D01*
X1031415D01*
Y375358D01*
X1031519D01*
Y375254D01*
X1031623D01*
Y375150D01*
X1031727D01*
Y375046D01*
X1031832D01*
Y374941D01*
X1032040D01*
Y374837D01*
X1032144D01*
Y374733D01*
X1032249D01*
Y374629D01*
X1032353D01*
Y374524D01*
X1032457D01*
Y374420D01*
X1032665D01*
Y374316D01*
X1032770D01*
Y374212D01*
X1032874D01*
Y374107D01*
X1032978D01*
Y374003D01*
X1033186D01*
Y373899D01*
X1033291D01*
Y373795D01*
X1033499D01*
Y373690D01*
X1033603D01*
Y373586D01*
X1033708D01*
Y373482D01*
X1033916D01*
Y373378D01*
X1034020D01*
Y373274D01*
X1034229D01*
Y373169D01*
X1034437D01*
Y373065D01*
X1034541D01*
Y372961D01*
X1034750D01*
Y372857D01*
X1034958D01*
Y372752D01*
X1035063D01*
Y372648D01*
X1035271D01*
Y372544D01*
X1035480D01*
Y372440D01*
X1035688D01*
Y372336D01*
X1035896D01*
Y372231D01*
X1036105D01*
Y372127D01*
X1036313D01*
Y380986D01*
X1036209D01*
Y381091D01*
X1036105D01*
Y381195D01*
X1036001D01*
Y381299D01*
X1035896D01*
Y381403D01*
X1035792D01*
Y381612D01*
X1035688D01*
Y381716D01*
X1035584D01*
Y381820D01*
X1035480D01*
Y381924D01*
X1035375D01*
Y382029D01*
X1035271D01*
Y382237D01*
X1035167D01*
Y382341D01*
X1035063D01*
Y382445D01*
X1034958D01*
Y382550D01*
X1034854D01*
Y382758D01*
X1034750D01*
Y382654D01*
X1034646D01*
Y382550D01*
X1034541D01*
Y382445D01*
X1034437D01*
Y382341D01*
X1034333D01*
Y382237D01*
X1034229D01*
Y382133D01*
X1034125D01*
Y382029D01*
X1033916D01*
Y381924D01*
X1033812D01*
Y381820D01*
X1033603D01*
Y381716D01*
X1033499D01*
Y381612D01*
X1033186D01*
Y381507D01*
X1032978D01*
Y381403D01*
X1032665D01*
Y381299D01*
X1031936D01*
Y381195D01*
X1031519D01*
Y381299D01*
X1030789D01*
Y381403D01*
X1030477D01*
Y381507D01*
X1030164D01*
Y381612D01*
X1029956D01*
Y381716D01*
X1029851D01*
Y381820D01*
X1029643D01*
Y381924D01*
X1029539D01*
Y382029D01*
X1029330D01*
Y382133D01*
X1029226D01*
Y382237D01*
X1029122D01*
Y382341D01*
X1029017D01*
Y382445D01*
X1028913D01*
Y382550D01*
X1028809D01*
Y382654D01*
X1028705D01*
Y382758D01*
X1028601D01*
Y382967D01*
X1028496D01*
Y383175D01*
X1028392D01*
Y383383D01*
X1028288D01*
Y383488D01*
X1028184D01*
Y383905D01*
X1028080D01*
Y384217D01*
X1027975D01*
Y385781D01*
X1028080D01*
Y386093D01*
X1028184D01*
Y386510D01*
X1028288D01*
Y386719D01*
X1028392D01*
Y386823D01*
X1028496D01*
Y387031D01*
X1028601D01*
Y387240D01*
X1028705D01*
Y387344D01*
X1028809D01*
Y387448D01*
X1028913D01*
Y387553D01*
X1029017D01*
Y387657D01*
X1029122D01*
Y387761D01*
X1029226D01*
Y387865D01*
X1029330D01*
Y387970D01*
X1029434D01*
Y388074D01*
X1029539D01*
Y388178D01*
X1029747D01*
Y388282D01*
X1029956D01*
Y388386D01*
X1030164D01*
Y388491D01*
X1030372D01*
Y388595D01*
X1030789D01*
Y388699D01*
X1031311D01*
Y388803D01*
X1032144D01*
Y388699D01*
X1032665D01*
Y388595D01*
X1033082D01*
Y388491D01*
X1033291D01*
Y388386D01*
X1033499D01*
Y388282D01*
X1033708D01*
Y388178D01*
X1033812D01*
Y388074D01*
X1034020D01*
Y387970D01*
X1034125D01*
Y387865D01*
X1034229D01*
Y387761D01*
X1034333D01*
Y387657D01*
X1034437D01*
Y387553D01*
X1034541D01*
Y387448D01*
X1034646D01*
Y387344D01*
X1034750D01*
Y387136D01*
X1034854D01*
Y387031D01*
X1034958D01*
Y386823D01*
X1035063D01*
Y386614D01*
X1035167D01*
Y386406D01*
X1035271D01*
Y386093D01*
X1035375D01*
Y385781D01*
X1035480D01*
Y384009D01*
X1035584D01*
Y383905D01*
X1035688D01*
Y383800D01*
X1035792D01*
Y383696D01*
X1035896D01*
Y383592D01*
X1036001D01*
Y383488D01*
X1036105D01*
Y383279D01*
X1036209D01*
Y383175D01*
X1036313D01*
Y383071D01*
X1036417D01*
Y382967D01*
X1036522D01*
Y382862D01*
X1036626D01*
Y382758D01*
X1036730D01*
Y382654D01*
X1036834D01*
Y382445D01*
X1036939D01*
Y382341D01*
X1037043D01*
Y382237D01*
X1037147D01*
Y382133D01*
X1037251D01*
Y382029D01*
X1037356D01*
Y381924D01*
X1037460D01*
Y381716D01*
X1037564D01*
Y381612D01*
X1037668D01*
Y381507D01*
X1037773D01*
Y381403D01*
X1037877D01*
Y371502D01*
X1038189D01*
Y371398D01*
X1038502D01*
Y371293D01*
X1038919D01*
Y371189D01*
X1039232D01*
Y371085D01*
X1039753D01*
Y370981D01*
X1040170D01*
Y370876D01*
X1040691D01*
Y370772D01*
X1041316D01*
Y370668D01*
X1042150D01*
Y370564D01*
X1043088D01*
Y385468D01*
X1042879D01*
Y385572D01*
X1042567D01*
Y385676D01*
X1042254D01*
Y385781D01*
X1042046D01*
Y385885D01*
X1041837D01*
Y385989D01*
X1041733D01*
Y386093D01*
X1041629D01*
Y386198D01*
X1041420D01*
Y386302D01*
X1041316D01*
Y386406D01*
X1041212D01*
Y386510D01*
X1041108D01*
Y386614D01*
X1041003D01*
Y386719D01*
X1040899D01*
Y386823D01*
X1040795D01*
Y387031D01*
X1040691D01*
Y387136D01*
X1040587D01*
Y387344D01*
X1040482D01*
Y387553D01*
X1040378D01*
Y387761D01*
X1040274D01*
Y388074D01*
X1040170D01*
Y388386D01*
X1040065D01*
Y389950D01*
X1040170D01*
Y390262D01*
X1040274D01*
Y390575D01*
X1040378D01*
Y390784D01*
X1040482D01*
Y390992D01*
X1040587D01*
Y391200D01*
X1040691D01*
Y391305D01*
X1040795D01*
Y391409D01*
X1040899D01*
Y391617D01*
X1041003D01*
Y391722D01*
X1041108D01*
Y391826D01*
X1041212D01*
Y391930D01*
X1041316D01*
Y392034D01*
X1041420D01*
Y392138D01*
X1041629D01*
Y392243D01*
X1041733D01*
Y392347D01*
X1041942D01*
Y392451D01*
X1042150D01*
Y392555D01*
X1042254D01*
Y392660D01*
X1042567D01*
Y392764D01*
X1042984D01*
Y392868D01*
X1044651D01*
Y392764D01*
X1045068D01*
Y392660D01*
X1045381D01*
Y392555D01*
X1045589D01*
Y392451D01*
X1045694D01*
Y392347D01*
X1045902D01*
Y392243D01*
X1046111D01*
Y392138D01*
X1046215D01*
Y392034D01*
X1046319D01*
Y391930D01*
X1046423D01*
Y391826D01*
X1046527D01*
Y391722D01*
X1046632D01*
Y391617D01*
X1046736D01*
Y391513D01*
X1046840D01*
Y391305D01*
X1046944D01*
Y391200D01*
X1047049D01*
Y390992D01*
X1047153D01*
Y390784D01*
X1047257D01*
Y390575D01*
X1047361D01*
Y390262D01*
X1047465D01*
Y389950D01*
X1047570D01*
Y388386D01*
X1047465D01*
Y387970D01*
X1047361D01*
Y387761D01*
X1047257D01*
Y387448D01*
X1047153D01*
Y387240D01*
X1047049D01*
Y387136D01*
X1046944D01*
Y386927D01*
X1046840D01*
Y386823D01*
X1046736D01*
Y386719D01*
X1046632D01*
Y386614D01*
X1046527D01*
Y386510D01*
X1046423D01*
Y386406D01*
X1046319D01*
Y386302D01*
X1046215D01*
Y386198D01*
X1046111D01*
Y386093D01*
X1045902D01*
Y385989D01*
X1045798D01*
Y385885D01*
X1045589D01*
Y385781D01*
X1045381D01*
Y385676D01*
X1045068D01*
Y385572D01*
X1044756D01*
Y385468D01*
X1044547D01*
Y370668D01*
X1045798D01*
Y370772D01*
X1046527D01*
Y370876D01*
X1047153D01*
Y370981D01*
X1047674D01*
Y371085D01*
X1048091D01*
Y371189D01*
X1048508D01*
Y371293D01*
X1048820D01*
Y383488D01*
X1048925D01*
Y383592D01*
X1049029D01*
Y383696D01*
X1049133D01*
Y383800D01*
X1049237D01*
Y383905D01*
X1049342D01*
Y384009D01*
X1049446D01*
Y384113D01*
X1049550D01*
Y384217D01*
X1049654D01*
Y384322D01*
X1049758D01*
Y384426D01*
X1049863D01*
Y384530D01*
X1049967D01*
Y384634D01*
X1050071D01*
Y384739D01*
X1050175D01*
Y384843D01*
X1050280D01*
Y384947D01*
X1050384D01*
Y385051D01*
X1050488D01*
Y385155D01*
X1050592D01*
Y385260D01*
X1050696D01*
Y385364D01*
X1050801D01*
Y385468D01*
X1050905D01*
Y385572D01*
X1051009D01*
Y385676D01*
X1051113D01*
Y385781D01*
X1051218D01*
Y385885D01*
X1051322D01*
Y385989D01*
X1051426D01*
Y386093D01*
X1051530D01*
Y386198D01*
X1051635D01*
Y386302D01*
X1051739D01*
Y386510D01*
X1051635D01*
Y386823D01*
X1051530D01*
Y387031D01*
X1051426D01*
Y387448D01*
X1051322D01*
Y388908D01*
X1051426D01*
Y389220D01*
X1051530D01*
Y389533D01*
X1051635D01*
Y389846D01*
X1051739D01*
Y390054D01*
X1051843D01*
Y390158D01*
X1051947D01*
Y390367D01*
X1052051D01*
Y390471D01*
X1052156D01*
Y390575D01*
X1052260D01*
Y390679D01*
X1052364D01*
Y390888D01*
X1052468D01*
Y390992D01*
X1052677D01*
Y391096D01*
X1052781D01*
Y391200D01*
X1052885D01*
Y391305D01*
X1052989D01*
Y391409D01*
X1053198D01*
Y391513D01*
X1053406D01*
Y391617D01*
X1053615D01*
Y391722D01*
X1053928D01*
Y391826D01*
X1054344D01*
Y391930D01*
X1055804D01*
Y391826D01*
X1056220D01*
Y391722D01*
X1056533D01*
Y391617D01*
X1056741D01*
Y391513D01*
X1056950D01*
Y391409D01*
X1057158D01*
Y391305D01*
X1057263D01*
Y391200D01*
X1057367D01*
Y391096D01*
X1057575D01*
Y390992D01*
X1057680D01*
Y390888D01*
X1057784D01*
Y390784D01*
X1057888D01*
Y390575D01*
X1057992D01*
Y390471D01*
X1058096D01*
Y390367D01*
X1058201D01*
Y390262D01*
X1058305D01*
Y390054D01*
X1058409D01*
Y389846D01*
X1058513D01*
Y389637D01*
X1058618D01*
Y389324D01*
X1058722D01*
Y388908D01*
X1058826D01*
Y387448D01*
X1058722D01*
Y387031D01*
X1058618D01*
Y386719D01*
X1058513D01*
Y386510D01*
X1058409D01*
Y386302D01*
X1058305D01*
Y386093D01*
X1058201D01*
Y385989D01*
X1058096D01*
Y385885D01*
X1057992D01*
Y385781D01*
X1057888D01*
Y385572D01*
X1057784D01*
Y385468D01*
X1057575D01*
Y385364D01*
X1057471D01*
Y385260D01*
X1057367D01*
Y385155D01*
X1057263D01*
Y385051D01*
X1057054D01*
Y384947D01*
X1056950D01*
Y384843D01*
X1056741D01*
Y384739D01*
X1056533D01*
Y384634D01*
X1056220D01*
Y384530D01*
X1055804D01*
Y384426D01*
X1054240D01*
Y384530D01*
X1053928D01*
Y384634D01*
X1053615D01*
Y384739D01*
X1053406D01*
Y384843D01*
X1053198D01*
Y384947D01*
X1052989D01*
Y385051D01*
X1052885D01*
Y385155D01*
X1052781D01*
Y385260D01*
X1052572D01*
Y385155D01*
X1052468D01*
Y385051D01*
X1052364D01*
Y384947D01*
X1052260D01*
Y384843D01*
X1052156D01*
Y384739D01*
X1052051D01*
Y384634D01*
X1051947D01*
Y384530D01*
X1051843D01*
Y384426D01*
X1051739D01*
Y384322D01*
X1051635D01*
Y384217D01*
X1051530D01*
Y384113D01*
X1051426D01*
Y384009D01*
X1051322D01*
Y383905D01*
X1051218D01*
Y383800D01*
X1051113D01*
Y383696D01*
X1051009D01*
Y383592D01*
X1050905D01*
Y383488D01*
X1050801D01*
Y383383D01*
X1050696D01*
Y383279D01*
X1050592D01*
Y383175D01*
X1050488D01*
Y383071D01*
X1050384D01*
Y382967D01*
X1050280D01*
Y382862D01*
X1050175D01*
Y371710D01*
X1050280D01*
Y371814D01*
X1050488D01*
Y371919D01*
X1050801D01*
Y372023D01*
X1051009D01*
Y372127D01*
X1051322D01*
Y372231D01*
X1051530D01*
Y372336D01*
X1051739D01*
Y372440D01*
X1051947D01*
Y372544D01*
X1052156D01*
Y372648D01*
X1052260D01*
Y372752D01*
X1052468D01*
Y372857D01*
X1052677D01*
Y372961D01*
X1052885D01*
Y373065D01*
X1053094D01*
Y373169D01*
X1053198D01*
Y373274D01*
X1053406D01*
Y373378D01*
X1053615D01*
Y373482D01*
X1053719D01*
Y373586D01*
X1053928D01*
Y373690D01*
X1054032D01*
Y373795D01*
X1054136D01*
Y373899D01*
X1054344D01*
Y374003D01*
X1054449D01*
Y374107D01*
X1054553D01*
Y374212D01*
X1054761D01*
Y374316D01*
X1054865D01*
Y374420D01*
X1054970D01*
Y374524D01*
X1055178D01*
Y374629D01*
X1055282D01*
Y374733D01*
X1055387D01*
Y374837D01*
X1055491D01*
Y374941D01*
X1055699D01*
Y375046D01*
X1055804D01*
Y375150D01*
X1055908D01*
Y375254D01*
X1056012D01*
Y375358D01*
X1056116D01*
Y375462D01*
X1056220D01*
Y375567D01*
X1056325D01*
Y375671D01*
X1056429D01*
Y375775D01*
X1056533D01*
Y375879D01*
X1056637D01*
Y375984D01*
X1056741D01*
Y376088D01*
X1056846D01*
Y376192D01*
X1056950D01*
Y376296D01*
X1057054D01*
Y376400D01*
X1057158D01*
Y376505D01*
X1057263D01*
Y376609D01*
X1057367D01*
Y376713D01*
X1057471D01*
Y376817D01*
X1057575D01*
Y377026D01*
X1057680D01*
Y377130D01*
X1057784D01*
Y377234D01*
X1057888D01*
Y377338D01*
X1057992D01*
Y377547D01*
X1058096D01*
Y377651D01*
X1058201D01*
Y377755D01*
X1058305D01*
Y377964D01*
X1058409D01*
Y378068D01*
X1058513D01*
Y378172D01*
X1058618D01*
Y378381D01*
X1058722D01*
Y378485D01*
X1058826D01*
Y378693D01*
X1058930D01*
Y378798D01*
X1059035D01*
Y379006D01*
X1059139D01*
Y379110D01*
X1059243D01*
Y379319D01*
X1059347D01*
Y379423D01*
X1059451D01*
Y379631D01*
X1059556D01*
Y379840D01*
X1059660D01*
Y380048D01*
X1059764D01*
Y380257D01*
X1059868D01*
Y380465D01*
X1059973D01*
Y380569D01*
X1060077D01*
Y380882D01*
X1060181D01*
Y381091D01*
X1060285D01*
Y381299D01*
X1060389D01*
Y381507D01*
X1060494D01*
Y381716D01*
X1060598D01*
Y382029D01*
X1060702D01*
Y382341D01*
X1060806D01*
Y382550D01*
X1060911D01*
Y382862D01*
X1061015D01*
Y383175D01*
X1061119D01*
Y383592D01*
X1061223D01*
Y383905D01*
X1061328D01*
Y384322D01*
X1061432D01*
Y384739D01*
X1061536D01*
Y385260D01*
X1061640D01*
Y385781D01*
X1061744D01*
Y386719D01*
X1061849D01*
Y390679D01*
X1061744D01*
Y391305D01*
X1061640D01*
Y391930D01*
X1061536D01*
Y392451D01*
X1061432D01*
Y392868D01*
X1061328D01*
Y393285D01*
X1061223D01*
Y393702D01*
X1061119D01*
Y394119D01*
X1061015D01*
Y394431D01*
X1060911D01*
Y394640D01*
X1060806D01*
Y394744D01*
Y394848D01*
Y394953D01*
X1060702D01*
Y395265D01*
X1060598D01*
Y395474D01*
X1060494D01*
Y395786D01*
X1060389D01*
Y395995D01*
X1060285D01*
Y396203D01*
X1060181D01*
Y396412D01*
X1060077D01*
Y396620D01*
X1059973D01*
Y396829D01*
X1059868D01*
Y397037D01*
X1059764D01*
Y397246D01*
X1059660D01*
Y397454D01*
X1059556D01*
Y397663D01*
X1059451D01*
Y397767D01*
X1059347D01*
Y397975D01*
X1059243D01*
Y398184D01*
X1059139D01*
Y398288D01*
X1059035D01*
Y398496D01*
X1058930D01*
Y398705D01*
X1058826D01*
Y398809D01*
X1058722D01*
Y398913D01*
X1058618D01*
Y399122D01*
X1058513D01*
Y399226D01*
X1058409D01*
Y399330D01*
X1058305D01*
Y399538D01*
X1058201D01*
Y399643D01*
X1058096D01*
Y399747D01*
X1057992D01*
Y399955D01*
X1057888D01*
Y400060D01*
X1057784D01*
Y400164D01*
X1057680D01*
Y400268D01*
X1057575D01*
Y400476D01*
X1057471D01*
Y400581D01*
X1057367D01*
Y400685D01*
X1057263D01*
Y400789D01*
X1057158D01*
Y400894D01*
X1057054D01*
Y400998D01*
X1056950D01*
Y401206D01*
X1056846D01*
Y401310D01*
X1056741D01*
Y401415D01*
X1056637D01*
Y401519D01*
X1056533D01*
Y401623D01*
X1056325D01*
Y401727D01*
X1056220D01*
Y401832D01*
X1056116D01*
Y401936D01*
X1056012D01*
Y402040D01*
X1055908D01*
Y402144D01*
X1055804D01*
Y402248D01*
X1055699D01*
Y402353D01*
X1055595D01*
Y402457D01*
X1055491D01*
Y402561D01*
X1055282D01*
Y402665D01*
X1055178D01*
Y402770D01*
X1055074D01*
Y402874D01*
X1054865D01*
Y402978D01*
X1054761D01*
Y403082D01*
X1054657D01*
Y403186D01*
X1054449D01*
Y403291D01*
X1054344D01*
Y403395D01*
X1054240D01*
Y403499D01*
X1054136D01*
Y403603D01*
X1053928D01*
Y403708D01*
X1053719D01*
Y403812D01*
X1053615D01*
Y403916D01*
X1053406D01*
Y404020D01*
X1053302D01*
Y404124D01*
X1053094D01*
Y404229D01*
X1052885D01*
Y404333D01*
X1052781D01*
Y404437D01*
X1052572D01*
Y404541D01*
X1052364D01*
Y404646D01*
X1052156D01*
Y404750D01*
X1051947D01*
Y404854D01*
X1051739D01*
Y404958D01*
X1051530D01*
Y405062D01*
X1051322D01*
Y405167D01*
X1051113D01*
Y405271D01*
X1050801D01*
Y405375D01*
X1050592D01*
Y405479D01*
X1050280D01*
Y405584D01*
X1049967D01*
Y405688D01*
X1049758D01*
Y405792D01*
X1049446D01*
Y405896D01*
X1049133D01*
Y406001D01*
X1048716D01*
Y406105D01*
X1048299D01*
Y406209D01*
X1047882D01*
Y406313D01*
X1047465D01*
Y406417D01*
X1046840D01*
Y406522D01*
X1046215D01*
Y406626D01*
X1044964D01*
Y406730D01*
D02*
G37*
G36*
X1035480Y398392D02*
X1034854D01*
Y398288D01*
X1034437D01*
Y398184D01*
X1034333D01*
Y398079D01*
X1034125D01*
Y397975D01*
X1034020D01*
Y397871D01*
X1033916D01*
Y397767D01*
X1033812D01*
Y397663D01*
X1033708D01*
Y397454D01*
X1033603D01*
Y397350D01*
X1033499D01*
Y396829D01*
X1033395D01*
Y396516D01*
X1033499D01*
Y395995D01*
X1033603D01*
Y395786D01*
X1033708D01*
Y395682D01*
X1033812D01*
Y395578D01*
X1033916D01*
Y395369D01*
X1034125D01*
Y395265D01*
X1034229D01*
Y395161D01*
X1034437D01*
Y395057D01*
X1034750D01*
Y394953D01*
X1035584D01*
Y395057D01*
X1035896D01*
Y395161D01*
X1036105D01*
Y395265D01*
X1036209D01*
Y395369D01*
X1036313D01*
Y395474D01*
X1036417D01*
Y395578D01*
X1036522D01*
Y395682D01*
X1036626D01*
Y395891D01*
X1036730D01*
Y396099D01*
X1036834D01*
Y396203D01*
Y396307D01*
Y397141D01*
X1036730D01*
Y397454D01*
X1036626D01*
Y397663D01*
X1036522D01*
Y397767D01*
X1036417D01*
Y397871D01*
X1036313D01*
Y397975D01*
X1036209D01*
Y398079D01*
X1036001D01*
Y398184D01*
X1035792D01*
Y398288D01*
X1035480D01*
Y398392D01*
D02*
G37*
G36*
X1044026Y391617D02*
X1043609D01*
Y391513D01*
X1043088D01*
Y391409D01*
X1042775D01*
Y391305D01*
X1042567D01*
Y391200D01*
X1042463D01*
Y391096D01*
X1042254D01*
Y390992D01*
X1042150D01*
Y390888D01*
X1042046D01*
Y390784D01*
X1041942D01*
Y390575D01*
X1041837D01*
Y390471D01*
X1041733D01*
Y390262D01*
X1041629D01*
Y390054D01*
X1041525D01*
Y389741D01*
X1041420D01*
Y388595D01*
X1041525D01*
Y388178D01*
X1041629D01*
Y388074D01*
X1041733D01*
Y387865D01*
X1041837D01*
Y387761D01*
X1041942D01*
Y387553D01*
X1042046D01*
Y387448D01*
X1042150D01*
Y387344D01*
X1042254D01*
Y387240D01*
X1042358D01*
Y387136D01*
X1042567D01*
Y387031D01*
X1042775D01*
Y386927D01*
X1042984D01*
Y386823D01*
X1043296D01*
Y386719D01*
X1044339D01*
Y386823D01*
X1044651D01*
Y386927D01*
X1044860D01*
Y387031D01*
X1045068D01*
Y387136D01*
X1045277D01*
Y387240D01*
X1045381D01*
Y387344D01*
X1045485D01*
Y387448D01*
X1045589D01*
Y387553D01*
X1045694D01*
Y387761D01*
X1045798D01*
Y387865D01*
X1045902D01*
Y388074D01*
X1046006D01*
Y388178D01*
X1046111D01*
Y388491D01*
X1046215D01*
Y389741D01*
X1046111D01*
Y390054D01*
X1046006D01*
Y390262D01*
X1045902D01*
Y390471D01*
X1045798D01*
Y390575D01*
X1045694D01*
Y390784D01*
X1045589D01*
Y390888D01*
X1045485D01*
Y390992D01*
X1045381D01*
Y391096D01*
X1045173D01*
Y391200D01*
X1045068D01*
Y391305D01*
X1044860D01*
Y391409D01*
X1044547D01*
Y391513D01*
X1044026D01*
Y391617D01*
D02*
G37*
G36*
X1055282Y390575D02*
X1054865D01*
Y390471D01*
X1054344D01*
Y390367D01*
X1054032D01*
Y390262D01*
X1053823D01*
Y390158D01*
X1053719D01*
Y390054D01*
X1053511D01*
Y389950D01*
X1053406D01*
Y389846D01*
X1053302D01*
Y389741D01*
X1053198D01*
Y389533D01*
X1053094D01*
Y389429D01*
X1052989D01*
Y389220D01*
X1052885D01*
Y389012D01*
X1052781D01*
Y388699D01*
X1052677D01*
Y387553D01*
X1052781D01*
Y387136D01*
X1052885D01*
Y387031D01*
X1052989D01*
Y386823D01*
X1053094D01*
Y386719D01*
X1053198D01*
Y386510D01*
X1053302D01*
Y386406D01*
X1053406D01*
Y386302D01*
X1053511D01*
Y386198D01*
X1053615D01*
Y386093D01*
X1053823D01*
Y385989D01*
X1054032D01*
Y385885D01*
X1054240D01*
Y385781D01*
X1054553D01*
Y385676D01*
X1055595D01*
Y385781D01*
X1055908D01*
Y385885D01*
X1056116D01*
Y385989D01*
X1056325D01*
Y386093D01*
X1056533D01*
Y386198D01*
X1056637D01*
Y386302D01*
X1056741D01*
Y386406D01*
X1056846D01*
Y386510D01*
X1056950D01*
Y386719D01*
X1057054D01*
Y386823D01*
X1057158D01*
Y387031D01*
X1057263D01*
Y387136D01*
X1057367D01*
Y387448D01*
X1057471D01*
Y388803D01*
X1057367D01*
Y389012D01*
X1057263D01*
Y389220D01*
X1057158D01*
Y389429D01*
X1057054D01*
Y389533D01*
X1056950D01*
Y389741D01*
X1056846D01*
Y389846D01*
X1056741D01*
Y389950D01*
X1056637D01*
Y390054D01*
X1056429D01*
Y390158D01*
X1056325D01*
Y390262D01*
X1056116D01*
Y390367D01*
X1055804D01*
Y390471D01*
X1055282D01*
Y390575D01*
D02*
G37*
G36*
X1032249Y387448D02*
X1031311D01*
Y387344D01*
X1030998D01*
Y387240D01*
X1030685D01*
Y387136D01*
X1030477D01*
Y387031D01*
X1030372D01*
Y386927D01*
X1030268D01*
Y386823D01*
X1030060D01*
Y386719D01*
X1029956D01*
Y386510D01*
X1029851D01*
Y386406D01*
X1029747D01*
Y386198D01*
X1029643D01*
Y385989D01*
X1029539D01*
Y385781D01*
X1029434D01*
Y385260D01*
X1029330D01*
Y384739D01*
X1029434D01*
Y384217D01*
X1029539D01*
Y384009D01*
X1029643D01*
Y383800D01*
X1029747D01*
Y383696D01*
Y383592D01*
X1029851D01*
Y383488D01*
X1029956D01*
Y383383D01*
X1030060D01*
Y383279D01*
X1030164D01*
Y383175D01*
X1030268D01*
Y383071D01*
X1030372D01*
Y382967D01*
X1030581D01*
Y382862D01*
X1030685D01*
Y382758D01*
X1030998D01*
Y382654D01*
X1031519D01*
Y382550D01*
X1032040D01*
Y382654D01*
X1032561D01*
Y382758D01*
X1032874D01*
Y382862D01*
X1032978D01*
Y382967D01*
X1033186D01*
Y383071D01*
X1033291D01*
Y383175D01*
X1033395D01*
Y383279D01*
X1033499D01*
Y383383D01*
X1033603D01*
Y383488D01*
X1033708D01*
Y383592D01*
X1033812D01*
Y383800D01*
X1033916D01*
Y384009D01*
X1034020D01*
Y384217D01*
X1034125D01*
Y384530D01*
X1034229D01*
Y385468D01*
X1034125D01*
Y385781D01*
X1034020D01*
Y385989D01*
X1033916D01*
Y386198D01*
X1033812D01*
Y386406D01*
X1033708D01*
Y386510D01*
X1033603D01*
Y386719D01*
X1033499D01*
Y386823D01*
X1033291D01*
Y386927D01*
X1033186D01*
Y387031D01*
X1033082D01*
Y387136D01*
X1032874D01*
Y387240D01*
X1032561D01*
Y387344D01*
X1032249D01*
Y387448D01*
D02*
G37*
G36*
X1143874Y396724D02*
X1143770D01*
Y396516D01*
X1143666D01*
Y396203D01*
X1143562D01*
Y395891D01*
X1143457D01*
Y395682D01*
X1143353D01*
Y395369D01*
X1143249D01*
Y395057D01*
X1143145D01*
Y394744D01*
X1143040D01*
Y394431D01*
X1142936D01*
Y394119D01*
X1142832D01*
Y393806D01*
X1142728D01*
Y393493D01*
X1142624D01*
Y393181D01*
X1142519D01*
Y392972D01*
X1142415D01*
Y392660D01*
X1142311D01*
Y392347D01*
X1142207D01*
Y392034D01*
X1142102D01*
Y391722D01*
X1141998D01*
Y391409D01*
X1141894D01*
Y391096D01*
X1141790D01*
Y390784D01*
X1141685D01*
Y390575D01*
X1141581D01*
Y390262D01*
X1141477D01*
Y389950D01*
X1141373D01*
Y389637D01*
X1141269D01*
Y389324D01*
X1141164D01*
Y389012D01*
X1141060D01*
Y388699D01*
X1140956D01*
Y388386D01*
X1140852D01*
Y388074D01*
X1140748D01*
Y387865D01*
X1140643D01*
Y387553D01*
X1140539D01*
Y387240D01*
X1140435D01*
Y386927D01*
X1140331D01*
Y386614D01*
X1140226D01*
Y386302D01*
X1140122D01*
Y385989D01*
X1140018D01*
Y385676D01*
X1139914D01*
Y385364D01*
X1139809D01*
Y385155D01*
X1139705D01*
Y384843D01*
X1139601D01*
Y384530D01*
X1139497D01*
Y384217D01*
X1139393D01*
Y383905D01*
X1139288D01*
Y383696D01*
X1148460D01*
Y384009D01*
X1148356D01*
Y384217D01*
X1148252D01*
Y384530D01*
X1148148D01*
Y384843D01*
X1148043D01*
Y385155D01*
X1147939D01*
Y385468D01*
X1147835D01*
Y385676D01*
X1147731D01*
Y385989D01*
X1147626D01*
Y386302D01*
X1147522D01*
Y386614D01*
X1147418D01*
Y386823D01*
X1147314D01*
Y387136D01*
X1147209D01*
Y387448D01*
X1147105D01*
Y387761D01*
X1147001D01*
Y388074D01*
X1146897D01*
Y388282D01*
X1146793D01*
Y388595D01*
X1146688D01*
Y388908D01*
X1146584D01*
Y389220D01*
X1146480D01*
Y389429D01*
X1146376D01*
Y389533D01*
Y389637D01*
Y389741D01*
X1146271D01*
Y390054D01*
X1146167D01*
Y390367D01*
X1146063D01*
Y390575D01*
X1145959D01*
Y390888D01*
X1145855D01*
Y391200D01*
X1145750D01*
Y391513D01*
X1145646D01*
Y391826D01*
X1145542D01*
Y392034D01*
X1145438D01*
Y392347D01*
X1145333D01*
Y392660D01*
X1145229D01*
Y392972D01*
X1145125D01*
Y393181D01*
X1145021D01*
Y393493D01*
X1144917D01*
Y393806D01*
X1144812D01*
Y394119D01*
X1144708D01*
Y394327D01*
X1144604D01*
Y394640D01*
X1144500D01*
Y394953D01*
X1144395D01*
Y395265D01*
X1144291D01*
Y395578D01*
X1144187D01*
Y395786D01*
X1144083D01*
Y396099D01*
X1143979D01*
Y396412D01*
X1143874D01*
Y396724D01*
D02*
G37*
%LPD*%
D10*
X332250Y765740D02*
G03*
X332250Y765740I-1250J0D01*
G01*
X1195558Y537270D02*
G03*
X1195558Y537270I-1250J0D01*
G01*
X1123676Y731834D02*
G03*
X1123676Y731834I-1250J0D01*
G01*
X1062434Y555352D02*
G03*
X1062434Y555352I-1250J0D01*
G01*
X1063700Y693528D02*
G03*
X1063700Y693528I-1250J0D01*
G01*
X1165326Y517340D02*
G03*
X1165326Y517340I-1250J0D01*
G01*
X1180650Y742530D02*
G03*
X1180650Y742530I-1250J0D01*
G01*
X805510Y705380D02*
G03*
X805510Y705380I-1250J0D01*
G01*
X408920Y435226D02*
G03*
X408920Y435226I-1250J0D01*
G01*
Y570708D02*
G03*
X408920Y570708I-1250J0D01*
G01*
X495280Y435860D02*
G03*
X495280Y435860I-1250J0D01*
G01*
X542270Y728010D02*
G03*
X542270Y728010I-1250J0D01*
G01*
X408920Y706190D02*
G03*
X408920Y706190I-1250J0D01*
G01*
X676890Y286120D02*
G03*
X676890Y286120I-1250J0D01*
G01*
X779760Y359030D02*
G03*
X779760Y359030I-1250J0D01*
G01*
X332250Y524440D02*
G03*
X332250Y524440I-1250J0D01*
G01*
X943336Y356488D02*
G03*
X943336Y356488I-1250J0D01*
G01*
X859488Y438004D02*
G03*
X859488Y438004I-1250J0D01*
G01*
X930382Y343864D02*
G03*
X930382Y343864I-1250J0D01*
G01*
D11*
X1108500Y850000D02*
G03*
X1108500Y850000I-1500J0D01*
G01*
D12*
X750750Y920000D02*
G03*
X750750Y920000I-30750J0D01*
G01*
X860750D02*
G03*
X860750Y920000I-30750J0D01*
G01*
X1190750D02*
G03*
X1190750Y920000I-30750J0D01*
G01*
X1080750D02*
G03*
X1080750Y920000I-30750J0D01*
G01*
X970750D02*
G03*
X970750Y920000I-30750J0D01*
G01*
X420750D02*
G03*
X420750Y920000I-30750J0D01*
G01*
X640750D02*
G03*
X640750Y920000I-30750J0D01*
G01*
X530750D02*
G03*
X530750Y920000I-30750J0D01*
G01*
X310750D02*
G03*
X310750Y920000I-30750J0D01*
G01*
X772990Y490220D02*
G03*
X772990Y490220I-27500J0D01*
G01*
D13*
X1165566Y569077D02*
G03*
X1165566Y525662I-15200J-21707D01*
G01*
X479030Y555860D02*
G03*
X470780Y547610I0J-8250D01*
G01*
X517280Y547610D02*
G03*
X509030Y555860I-8250J0D01*
G01*
X509030Y442360D02*
G03*
X517280Y450610I0J8250D01*
G01*
X470780D02*
G03*
X479030Y442360I8250J0D01*
G01*
X572770Y726910D02*
G03*
X585470Y726910I6350J0D01*
G01*
X288950Y527590D02*
Y760190D01*
X356250D01*
Y527590D02*
Y760190D01*
X288950Y527590D02*
X356250D01*
X1196000Y822000D02*
Y884000D01*
X1114000D02*
X1196000D01*
X1114000Y822000D02*
Y884000D01*
Y822000D02*
X1196000D01*
X693050Y906500D02*
Y933500D01*
X803050Y906500D02*
Y933500D01*
X1133050Y906500D02*
Y933500D01*
X1023050Y906500D02*
Y933500D01*
X913050Y906500D02*
Y933500D01*
X363050Y906500D02*
Y933500D01*
X583050Y906500D02*
Y933500D01*
X473050Y906500D02*
Y933500D01*
X253050Y906500D02*
Y933500D01*
X1207308Y566770D02*
Y580120D01*
X1181308Y566770D02*
X1207308D01*
X1181308D02*
Y580120D01*
X1135426Y761334D02*
Y774684D01*
X1109426Y761334D02*
X1135426D01*
X1109426D02*
Y774684D01*
X1153160Y585836D02*
Y599836D01*
X1071230Y766064D02*
X1085230D01*
X1066784Y573352D02*
X1115084Y584102D01*
Y477102D02*
Y583602D01*
X1066784Y487352D02*
X1115084Y476602D01*
X1066784Y487352D02*
Y573352D01*
X1068050Y711528D02*
X1116350Y722278D01*
Y615278D02*
Y721778D01*
X1068050Y625528D02*
X1116350Y614778D01*
X1068050Y625528D02*
Y711528D01*
X1055116Y474574D02*
Y506374D01*
X1004316Y474574D02*
X1055116D01*
X1004316Y506374D02*
X1055116D01*
X1004316Y474574D02*
Y506374D01*
X1165566Y525662D02*
Y569077D01*
X1194308Y475336D02*
Y507136D01*
X1143508Y475336D02*
X1194308D01*
X1143508Y507136D02*
X1194308D01*
X1143508Y475336D02*
Y507136D01*
X1141900Y632530D02*
X1194900D01*
Y736530D01*
X1141900D02*
X1194900D01*
X1141900Y632530D02*
Y736530D01*
X815010Y713630D02*
Y780780D01*
Y524780D02*
Y532030D01*
X970910Y524780D02*
X996010D01*
X815010D02*
X840110D01*
X996010Y713630D02*
Y780780D01*
Y524780D02*
Y532030D01*
X815010Y780780D02*
X996010D01*
X747730Y622820D02*
X773730D01*
X791730Y562820D02*
Y620820D01*
X747730Y560820D02*
X773730D01*
X729730Y562820D02*
Y620820D01*
X747730Y679184D02*
X773730D01*
X729730Y681184D02*
Y739184D01*
X747730Y741184D02*
X773730D01*
X791730Y681184D02*
Y739184D01*
X420370Y391869D02*
Y409726D01*
X415370Y391869D02*
X420370D01*
X415370Y377583D02*
Y391869D01*
Y377583D02*
X420370D01*
Y359726D02*
Y377583D01*
X369570Y359726D02*
X420370D01*
X369570D02*
Y409726D01*
X420370D01*
Y527351D02*
Y545208D01*
X415370Y527351D02*
X420370D01*
X415370Y513065D02*
Y527351D01*
Y513065D02*
X420370D01*
Y495208D02*
Y513065D01*
X369570Y495208D02*
X420370D01*
X369570D02*
Y545208D01*
X420370D01*
X445008Y483533D02*
Y490783D01*
Y555783D02*
Y563033D01*
X432508Y555783D02*
X457508D01*
X432508Y490783D02*
Y555783D01*
Y490783D02*
X457508D01*
Y555783D01*
X445008Y339726D02*
Y346976D01*
Y411976D02*
Y419226D01*
X432508Y411976D02*
X457508D01*
X432508Y346976D02*
Y411976D01*
Y346976D02*
X457508D01*
Y411976D01*
X477720Y406600D02*
Y431600D01*
Y406600D02*
X527720D01*
Y431600D01*
X477720D02*
X527720D01*
X509030Y442360D02*
X509030Y442360D01*
X479030Y442360D02*
X509030D01*
X479030Y555860D02*
X509030D01*
X470780Y450610D02*
Y547610D01*
X517280Y450610D02*
Y547610D01*
X552620Y372910D02*
X605620D01*
X585470Y726910D02*
X605620D01*
X552620D02*
X572770D01*
X605620Y372910D02*
Y726910D01*
X552620Y372910D02*
Y726910D01*
X420370Y662833D02*
Y680690D01*
X415370Y662833D02*
X420370D01*
X415370Y648547D02*
Y662833D01*
Y648547D02*
X420370D01*
Y630690D02*
Y648547D01*
X369570Y630690D02*
X420370D01*
X369570D02*
Y680690D01*
X420370D01*
X445008Y627340D02*
Y634590D01*
Y699590D02*
Y706840D01*
X432508Y699590D02*
X457508D01*
X432508Y634590D02*
Y699590D01*
Y634590D02*
X457508D01*
Y699590D01*
X693928Y593980D02*
Y601230D01*
Y666230D02*
Y673480D01*
X681428Y666230D02*
X706428D01*
X681428Y601230D02*
Y666230D01*
Y601230D02*
X706428D01*
Y666230D01*
X477720Y585270D02*
X527720D01*
Y560270D02*
Y585270D01*
X477720Y560270D02*
X527720D01*
X477720D02*
Y585270D01*
X528470Y597002D02*
Y628802D01*
X477670Y597002D02*
X528470D01*
X477670Y628802D02*
X528470D01*
X477670Y597002D02*
Y628802D01*
X635610Y510540D02*
X667410D01*
X635610D02*
Y561340D01*
X667410Y510540D02*
Y561340D01*
X635610D02*
X667410D01*
X710940Y292120D02*
Y358120D01*
X685890Y292120D02*
X710940D01*
X641040D02*
X665390D01*
X641040Y358120D02*
X665390D01*
X685890D02*
X710940D01*
X641040Y292120D02*
Y314870D01*
Y335370D02*
Y358120D01*
X828040Y324460D02*
Y356260D01*
X777240Y324460D02*
X828040D01*
X777240Y356260D02*
X828040D01*
X777240Y324460D02*
Y356260D01*
X723740Y475220D02*
Y505220D01*
X664410Y398030D02*
Y463030D01*
X689410D01*
Y398030D02*
Y463030D01*
X664410Y398030D02*
X689410D01*
X676910Y390780D02*
Y398030D01*
Y463030D02*
Y470280D01*
X828040Y288900D02*
Y320700D01*
X777240Y288900D02*
X828040D01*
X777240Y320700D02*
X828040D01*
X777240Y288900D02*
Y320700D01*
X658876Y667246D02*
Y674496D01*
Y594996D02*
Y602246D01*
X646376D02*
X671376D01*
Y667246D01*
X646376D02*
X671376D01*
X646376Y602246D02*
Y667246D01*
X731520Y395590D02*
Y409590D01*
X772560Y383030D02*
Y414530D01*
X822560Y383030D02*
Y414530D01*
X1037448Y669290D02*
X1051448D01*
X709534Y711708D02*
X723534D01*
X728726Y524622D02*
Y538622D01*
X508000Y705954D02*
Y719954D01*
X288950Y286290D02*
Y518890D01*
X356250D01*
Y286290D02*
Y518890D01*
X288950Y286290D02*
X356250D01*
X955086Y385988D02*
Y399338D01*
X929086Y385988D02*
X955086D01*
X929086D02*
Y399338D01*
X938530Y432166D02*
Y446166D01*
X863838Y456004D02*
X912138Y466754D01*
Y359754D02*
Y466254D01*
X863838Y370004D02*
X912138Y359254D01*
X863838Y370004D02*
Y456004D01*
X914654Y310236D02*
Y342036D01*
X863854Y310236D02*
X914654D01*
X863854Y342036D02*
X914654D01*
X863854Y310236D02*
Y342036D01*
X944557Y276339D02*
Y341389D01*
Y276339D02*
X979607D01*
Y341389D01*
X944557D02*
X979607D01*
X912622Y271374D02*
Y303174D01*
X861822Y271374D02*
X912622D01*
X861822Y303174D02*
X912622D01*
X861822Y271374D02*
Y303174D01*
D14*
X565620Y716910D02*
G03*
X565620Y716910I-3000J0D01*
G01*
D15*
X1016254Y259334D02*
Y332232D01*
X996188Y352298D02*
X1016254Y332232D01*
X996188Y352298D02*
Y443992D01*
X1210056D01*
X972820Y467360D02*
X996188Y443992D01*
X972820Y467360D02*
Y477520D01*
X1060196Y602742D02*
X1115314D01*
X1125728Y613156D01*
Y723392D01*
X1153922Y751586D01*
X1210310D01*
X762000Y440436D02*
Y444500D01*
X795020Y477520D01*
X972820D01*
X1059180Y563880D01*
Y810260D01*
X640800Y380000D02*
Y476504D01*
Y482050D01*
X652018Y493268D01*
X645414Y570992D02*
X703072D01*
X449326Y746506D02*
X613410D01*
X635000Y724916D01*
Y581406D02*
Y724916D01*
X620800Y260000D02*
Y360000D01*
X640800Y380000D01*
X635000Y581406D02*
X645414Y570992D01*
X652018Y493268D02*
X702056D01*
X835152Y440000D02*
X837366D01*
X843280Y434086D01*
X703072Y570992D02*
X710800Y563264D01*
Y450000D02*
X720800Y440000D01*
X710800Y450000D02*
Y500000D01*
Y563264D01*
X702056Y493268D02*
X710692D01*
X843280Y260096D02*
Y434086D01*
X720800Y440000D02*
X835152D01*
X432308Y763524D02*
X449326Y746506D01*
X432308Y763524D02*
Y809752D01*
X260000Y810000D02*
X1210000D01*
X260000D02*
X260000Y260000D01*
X1210000D01*
Y810000D01*
D16*
X314961Y789938D02*
X309883D01*
X312422D01*
Y777242D01*
X309883Y774703D01*
X307343D01*
X304804Y777242D01*
X330196Y774703D02*
X320039D01*
X330196Y784859D01*
Y787398D01*
X327657Y789938D01*
X322578D01*
X320039Y787398D01*
X1040892Y346959D02*
Y331724D01*
Y339342D01*
X1051049D01*
Y346959D01*
Y331724D01*
X1056127D02*
X1061205D01*
X1058666D01*
Y341881D01*
X1056127D01*
X1068823D02*
X1073901Y331724D01*
X1078980Y341881D01*
X1091676Y331724D02*
X1086597D01*
X1084058Y334263D01*
Y339342D01*
X1086597Y341881D01*
X1091676D01*
X1094215Y339342D01*
Y336802D01*
X1084058D01*
X1099293Y346959D02*
Y331724D01*
X1109450D01*
X1114528D02*
X1119606D01*
X1117067D01*
Y341881D01*
X1114528D01*
X1127224Y331724D02*
Y341881D01*
X1134842D01*
X1137381Y339342D01*
Y331724D01*
X1142459D02*
Y346959D01*
Y336802D02*
X1150077Y341881D01*
X1142459Y336802D02*
X1150077Y331724D01*
X269901Y860261D02*
Y875496D01*
X277519D01*
X280058Y872956D01*
Y867878D01*
X277519Y865339D01*
X269901D01*
X295293Y880574D02*
Y865339D01*
X287675D01*
X285136Y867878D01*
Y872956D01*
X287675Y875496D01*
X295293D01*
X310528Y880574D02*
X305450Y878035D01*
X300371Y872956D01*
Y867878D01*
X302910Y865339D01*
X307989D01*
X310528Y867878D01*
Y870417D01*
X307989Y872956D01*
X300371D01*
X489901Y860261D02*
Y875496D01*
X497519D01*
X500058Y872956D01*
Y867878D01*
X497519Y865339D01*
X489901D01*
X515293Y880574D02*
Y865339D01*
X507675D01*
X505136Y867878D01*
Y872956D01*
X507675Y875496D01*
X515293D01*
X530528Y880574D02*
X520371D01*
Y872956D01*
X525449Y875496D01*
X527989D01*
X530528Y872956D01*
Y867878D01*
X527989Y865339D01*
X522910D01*
X520371Y867878D01*
X599901Y860261D02*
Y875496D01*
X607519D01*
X610058Y872956D01*
Y867878D01*
X607519Y865339D01*
X599901D01*
X625293Y880574D02*
Y865339D01*
X617675D01*
X615136Y867878D01*
Y872956D01*
X617675Y875496D01*
X625293D01*
X637989Y865339D02*
Y880574D01*
X630371Y872956D01*
X640528D01*
X819901Y860261D02*
Y875496D01*
X827518D01*
X830058Y872956D01*
Y867878D01*
X827518Y865339D01*
X819901D01*
X845293Y880574D02*
Y865339D01*
X837675D01*
X835136Y867878D01*
Y872956D01*
X837675Y875496D01*
X845293D01*
X850371Y878035D02*
X852910Y880574D01*
X857989D01*
X860528Y878035D01*
Y875496D01*
X857989Y872956D01*
X855449D01*
X857989D01*
X860528Y870417D01*
Y867878D01*
X857989Y865339D01*
X852910D01*
X850371Y867878D01*
X929901Y860261D02*
Y875496D01*
X937518D01*
X940058Y872956D01*
Y867878D01*
X937518Y865339D01*
X929901D01*
X955293Y880574D02*
Y865339D01*
X947675D01*
X945136Y867878D01*
Y872956D01*
X947675Y875496D01*
X955293D01*
X970528Y865339D02*
X960371D01*
X970528Y875496D01*
Y878035D01*
X967989Y880574D01*
X962910D01*
X960371Y878035D01*
X1149901Y860261D02*
Y875496D01*
X1157518D01*
X1160058Y872956D01*
Y867878D01*
X1157518Y865339D01*
X1149901D01*
X1175293Y880574D02*
Y865339D01*
X1167675D01*
X1165136Y867878D01*
Y872956D01*
X1167675Y875496D01*
X1175293D01*
X1180371Y865339D02*
X1185450D01*
X1182910D01*
Y880574D01*
X1180371Y878035D01*
X1081218Y832804D02*
Y827725D01*
Y830265D01*
X1093914D01*
X1096453Y827725D01*
Y825186D01*
X1093914Y822647D01*
X1096453Y845500D02*
X1081218D01*
X1088836Y837882D01*
Y848039D01*
X379901Y875494D02*
Y860259D01*
X387519D01*
X390058Y862798D01*
Y872955D01*
X387519Y875494D01*
X379901D01*
X395136Y872955D02*
X397675Y875494D01*
X402754D01*
X405293Y872955D01*
Y870416D01*
X402754Y867877D01*
X400214D01*
X402754D01*
X405293Y865337D01*
Y862798D01*
X402754Y860259D01*
X397675D01*
X395136Y862798D01*
X709901Y875494D02*
Y860259D01*
X717518D01*
X720058Y862798D01*
Y872955D01*
X717518Y875494D01*
X709901D01*
X735293Y860259D02*
X725136D01*
X735293Y870416D01*
Y872955D01*
X732754Y875494D01*
X727675D01*
X725136Y872955D01*
X1039901Y875494D02*
Y860259D01*
X1047518D01*
X1050058Y862798D01*
Y872955D01*
X1047518Y875494D01*
X1039901D01*
X1055136Y860259D02*
X1060214D01*
X1057675D01*
Y875494D01*
X1055136Y872955D01*
X1104904Y579118D02*
Y566422D01*
X1107443Y563882D01*
X1112522D01*
X1115061Y566422D01*
Y579118D01*
X1120139Y576578D02*
X1122678Y579118D01*
X1127757D01*
X1130296Y576578D01*
Y574039D01*
X1127757Y571500D01*
X1125218D01*
X1127757D01*
X1130296Y568961D01*
Y566422D01*
X1127757Y563882D01*
X1122678D01*
X1120139Y566422D01*
X1021087Y754382D02*
Y769617D01*
X1028704D01*
X1031243Y767078D01*
Y762000D01*
X1028704Y759461D01*
X1021087D01*
X1026165D02*
X1031243Y754382D01*
X1046478D02*
X1036322D01*
X1046478Y764539D01*
Y767078D01*
X1043939Y769617D01*
X1038861D01*
X1036322Y767078D01*
X1061713Y754382D02*
X1051557D01*
X1061713Y764539D01*
Y767078D01*
X1059174Y769617D01*
X1054096D01*
X1051557Y767078D01*
X1141603Y609473D02*
Y624708D01*
X1149221D01*
X1151760Y622169D01*
Y617090D01*
X1149221Y614551D01*
X1141603D01*
X1146681D02*
X1151760Y609473D01*
X1166995D02*
X1156838D01*
X1166995Y619630D01*
Y622169D01*
X1164456Y624708D01*
X1159377D01*
X1156838Y622169D01*
X1172073Y609473D02*
X1177151D01*
X1174612D01*
Y624708D01*
X1172073Y622169D01*
X1071500Y596264D02*
Y606421D01*
X1068960Y608960D01*
X1063882D01*
X1061343Y606421D01*
Y596264D01*
X1063882Y593725D01*
X1068960D01*
X1066421Y598803D02*
X1071500Y593725D01*
X1068960D02*
X1071500Y596264D01*
X1076578Y608960D02*
X1086735D01*
Y606421D01*
X1076578Y596264D01*
Y593725D01*
X1072766Y734440D02*
Y744597D01*
X1070227Y747136D01*
X1065148D01*
X1062609Y744597D01*
Y734440D01*
X1065148Y731901D01*
X1070227D01*
X1067687Y736979D02*
X1072766Y731901D01*
X1070227D02*
X1072766Y734440D01*
X1085462Y731901D02*
Y747136D01*
X1077844Y739519D01*
X1088001D01*
X1110615Y821558D02*
Y806323D01*
X1118232D01*
X1120772Y808862D01*
Y819019D01*
X1118232Y821558D01*
X1110615D01*
X1125850D02*
X1136007D01*
Y819019D01*
X1125850Y808862D01*
Y806323D01*
X1182497Y626994D02*
Y611759D01*
X1190115D01*
X1192654Y614298D01*
Y624455D01*
X1190115Y626994D01*
X1182497D01*
X1207889D02*
X1202810Y624455D01*
X1197732Y619376D01*
Y614298D01*
X1200271Y611759D01*
X1205350D01*
X1207889Y614298D01*
Y616837D01*
X1205350Y619376D01*
X1197732D01*
X1015870Y527935D02*
X1013331Y530474D01*
X1008252D01*
X1005713Y527935D01*
Y517778D01*
X1008252Y515239D01*
X1013331D01*
X1015870Y517778D01*
X1020948Y515239D02*
X1026026D01*
X1023487D01*
Y530474D01*
X1020948Y527935D01*
X1043801Y515239D02*
X1033644D01*
X1043801Y525396D01*
Y527935D01*
X1041262Y530474D01*
X1036183D01*
X1033644Y527935D01*
X952504Y325117D02*
Y312422D01*
X955043Y309883D01*
X960122D01*
X962661Y312422D01*
Y325117D01*
X977896Y309883D02*
X967739D01*
X977896Y320039D01*
Y322578D01*
X975357Y325117D01*
X970278D01*
X967739Y322578D01*
X996944Y452118D02*
Y436882D01*
X989326D01*
X986787Y439422D01*
Y444500D01*
X989326Y447039D01*
X996944D01*
X991865D02*
X986787Y452118D01*
X981709D02*
X976630D01*
X979170D01*
Y436882D01*
X981709Y439422D01*
X969013Y449578D02*
X966474Y452118D01*
X961395D01*
X958856Y449578D01*
Y439422D01*
X961395Y436882D01*
X966474D01*
X969013Y439422D01*
Y441961D01*
X966474Y444500D01*
X958856D01*
X868554Y478916D02*
Y489073D01*
X866014Y491612D01*
X860936D01*
X858397Y489073D01*
Y478916D01*
X860936Y476377D01*
X866014D01*
X863475Y481455D02*
X868554Y476377D01*
X866014D02*
X868554Y478916D01*
X883789Y491612D02*
X878710Y489073D01*
X873632Y483994D01*
Y478916D01*
X876171Y476377D01*
X881250D01*
X883789Y478916D01*
Y481455D01*
X881250Y483994D01*
X873632D01*
X977904Y401317D02*
Y386082D01*
X985522D01*
X988061Y388622D01*
Y398778D01*
X985522Y401317D01*
X977904D01*
X1003296D02*
X993139D01*
Y393700D01*
X998217Y396239D01*
X1000757D01*
X1003296Y393700D01*
Y388622D01*
X1000757Y386082D01*
X995678D01*
X993139Y388622D01*
X480064Y507998D02*
Y505458D01*
X485143Y500380D01*
X490221Y505458D01*
Y507998D01*
X485143Y500380D02*
Y492762D01*
X495299Y505458D02*
X497838Y507998D01*
X502917D01*
X505456Y505458D01*
Y502919D01*
X500378Y497841D01*
Y495302D02*
Y492762D01*
X616940Y286131D02*
X627097D01*
X632175Y291209D01*
X627097Y296288D01*
X616940D01*
X632175Y301366D02*
X616940D01*
Y308984D01*
X619479Y311523D01*
X624557D01*
X627097Y308984D01*
Y301366D01*
Y306444D02*
X632175Y311523D01*
X619479Y316601D02*
X616940Y319140D01*
Y324219D01*
X619479Y326758D01*
X622018D01*
X627097Y321679D01*
X629636D02*
X632175D01*
X535051Y753486D02*
Y740790D01*
X537590Y738251D01*
X542668D01*
X545208Y740790D01*
Y753486D01*
X550286Y750947D02*
X552825Y753486D01*
X557904D01*
X560443Y750947D01*
Y748408D01*
X555364Y743329D01*
Y740790D02*
Y738251D01*
X747654Y359029D02*
X760350D01*
X762889Y361568D01*
Y366646D01*
X760350Y369186D01*
X747654D01*
X762889Y374264D02*
Y379342D01*
Y376803D01*
X747654D01*
X750193Y374264D01*
X733171Y730882D02*
X748406D01*
Y723265D01*
X745867Y720726D01*
X740788D01*
X738249Y723265D01*
Y730882D01*
Y725804D02*
X733171Y720726D01*
Y705491D02*
Y715648D01*
X743328Y705491D01*
X745867D01*
X748406Y708030D01*
Y713108D01*
X745867Y715648D01*
Y700412D02*
X748406Y697873D01*
Y692795D01*
X745867Y690256D01*
X735710D01*
X733171Y692795D01*
Y697873D01*
X735710Y700412D01*
X745867D01*
X705993Y567817D02*
Y552582D01*
X698375D01*
X695836Y555121D01*
Y560200D01*
X698375Y562739D01*
X705993D01*
X700915D02*
X695836Y567817D01*
X690758D02*
X685680D01*
X688219D01*
Y552582D01*
X690758Y555121D01*
X667905Y567817D02*
X678062D01*
X667905Y557660D01*
Y555121D01*
X670444Y552582D01*
X675523D01*
X678062Y555121D01*
X638054Y700535D02*
Y715770D01*
X645672D01*
X648211Y713230D01*
Y708152D01*
X645672Y705613D01*
X638054D01*
X643132D02*
X648211Y700535D01*
X653289D02*
X658368D01*
X655828D01*
Y715770D01*
X653289Y713230D01*
X665985D02*
X668524Y715770D01*
X673603D01*
X676142Y713230D01*
Y703074D01*
X673603Y700535D01*
X668524D01*
X665985Y703074D01*
Y713230D01*
X457073Y601177D02*
Y585942D01*
X449455D01*
X446916Y588481D01*
Y593559D01*
X449455Y596099D01*
X457073D01*
X451995D02*
X446916Y601177D01*
X441838Y585942D02*
X431681D01*
Y588481D01*
X441838Y598638D01*
Y601177D01*
X457073Y457370D02*
Y442135D01*
X449455D01*
X446916Y444674D01*
Y449752D01*
X449455Y452292D01*
X457073D01*
X451995D02*
X446916Y457370D01*
X431681Y442135D02*
X436760Y444674D01*
X441838Y449752D01*
Y454831D01*
X439299Y457370D01*
X434220D01*
X431681Y454831D01*
Y452292D01*
X434220Y449752D01*
X441838D01*
X457073Y313563D02*
Y298328D01*
X449455D01*
X446916Y300867D01*
Y305945D01*
X449455Y308485D01*
X457073D01*
X451995D02*
X446916Y313563D01*
X431681Y298328D02*
X441838D01*
Y305945D01*
X436760Y303406D01*
X434220D01*
X431681Y305945D01*
Y311024D01*
X434220Y313563D01*
X439299D01*
X441838Y311024D01*
X664845Y496443D02*
Y511678D01*
X672462D01*
X675002Y509139D01*
Y504061D01*
X672462Y501521D01*
X664845D01*
X669923D02*
X675002Y496443D01*
X687698D02*
Y511678D01*
X680080Y504061D01*
X690237D01*
X743077Y385953D02*
Y370718D01*
X735460D01*
X732920Y373257D01*
Y378335D01*
X735460Y380875D01*
X743077D01*
X737999D02*
X732920Y385953D01*
X717685D02*
X727842D01*
X717685Y375796D01*
Y373257D01*
X720224Y370718D01*
X725303D01*
X727842Y373257D01*
X518157Y741677D02*
Y726442D01*
X510539D01*
X508000Y728982D01*
Y734060D01*
X510539Y736599D01*
X518157D01*
X513078D02*
X508000Y741677D01*
X502922D02*
X497843D01*
X500382D01*
Y726442D01*
X502922Y728982D01*
X409578Y598668D02*
Y588511D01*
X412118Y585972D01*
X417196D01*
X419735Y588511D01*
Y598668D01*
X417196Y601207D01*
X412118D01*
X414657Y596129D02*
X409578Y601207D01*
X412118D02*
X409578Y598668D01*
X404500Y588511D02*
X401961Y585972D01*
X396882D01*
X394343Y588511D01*
Y591050D01*
X396882Y593589D01*
X399422D01*
X396882D01*
X394343Y596129D01*
Y598668D01*
X396882Y601207D01*
X401961D01*
X404500Y598668D01*
X409578Y463186D02*
Y453029D01*
X412118Y450490D01*
X417196D01*
X419735Y453029D01*
Y463186D01*
X417196Y465725D01*
X412118D01*
X414657Y460647D02*
X409578Y465725D01*
X412118D02*
X409578Y463186D01*
X394343Y465725D02*
X404500D01*
X394343Y455568D01*
Y453029D01*
X396882Y450490D01*
X401961D01*
X404500Y453029D01*
X409578Y327704D02*
Y317547D01*
X412118Y315008D01*
X417196D01*
X419735Y317547D01*
Y327704D01*
X417196Y330243D01*
X412118D01*
X414657Y325165D02*
X409578Y330243D01*
X412118D02*
X409578Y327704D01*
X404500Y330243D02*
X399422D01*
X401961D01*
Y315008D01*
X404500Y317547D01*
X804291Y790321D02*
Y805556D01*
X809369Y800478D01*
X814448Y805556D01*
Y790321D01*
X819526Y805556D02*
Y790321D01*
X827144D01*
X829683Y792860D01*
Y803017D01*
X827144Y805556D01*
X819526D01*
X834761Y803017D02*
X837300Y805556D01*
X842379D01*
X844918Y803017D01*
Y800478D01*
X839839Y795399D01*
Y792860D02*
Y790321D01*
X342138Y299209D02*
X337060D01*
X339599D01*
Y286514D01*
X337060Y283974D01*
X334520D01*
X331981Y286514D01*
X347216Y283974D02*
X352295D01*
X349756D01*
Y299209D01*
X347216Y296670D01*
X760983Y335028D02*
X763522Y332488D01*
X768601D01*
X771140Y335028D01*
Y345184D01*
X768601Y347724D01*
X763522D01*
X760983Y345184D01*
X755905Y332488D02*
X745748D01*
Y335028D01*
X755905Y345184D01*
Y347724D01*
X760475Y297182D02*
X763014Y294642D01*
X768093D01*
X770632Y297182D01*
Y307338D01*
X768093Y309877D01*
X763014D01*
X760475Y307338D01*
X745240Y294642D02*
X750319Y297182D01*
X755397Y302260D01*
Y307338D01*
X752858Y309877D01*
X747779D01*
X745240Y307338D01*
Y304799D01*
X747779Y302260D01*
X755397D01*
X488366Y454021D02*
X485826Y456560D01*
X480748D01*
X478209Y454021D01*
Y443864D01*
X480748Y441325D01*
X485826D01*
X488366Y443864D01*
X503601Y456560D02*
X493444D01*
Y448942D01*
X498522Y451482D01*
X501062D01*
X503601Y448942D01*
Y443864D01*
X501062Y441325D01*
X495983D01*
X493444Y443864D01*
X505461Y556258D02*
X502922Y558797D01*
X497843D01*
X495304Y556258D01*
Y546102D01*
X497843Y543563D01*
X502922D01*
X505461Y546102D01*
X518157Y543563D02*
Y558797D01*
X510539Y551180D01*
X520696D01*
X688971Y549786D02*
X691510Y552326D01*
Y557404D01*
X688971Y559943D01*
X678814D01*
X676275Y557404D01*
Y552326D01*
X678814Y549786D01*
X676275Y534551D02*
Y544708D01*
X686432Y534551D01*
X688971D01*
X691510Y537090D01*
Y542169D01*
X688971Y544708D01*
X489224Y650363D02*
X486684Y652902D01*
X481606D01*
X479067Y650363D01*
Y640206D01*
X481606Y637667D01*
X486684D01*
X489224Y640206D01*
X494302Y637667D02*
X499380D01*
X496841D01*
Y652902D01*
X494302Y650363D01*
D17*
X1194308Y570665D02*
D03*
X1122426Y765231D02*
D03*
X942086Y389888D02*
D03*
M02*
